/* XPM */
static char *_afe9dc3d6884b8d8c5289dba41793fcJBJvxBv5DN2W3msP[] = {
/* columns rows colors chars-per-pixel */
"32 32 3 1 ",
"  c None",
". c #3F2A2D",
"X c #E0E5DF",
/* pixels */
"                                ",
"                                ",
"                                ",
"                                ",
"                                ",
"                                ",
"                                ",
"                                ",
"                                ",
"                                ",
"                                ",
"                                ",
"                                ",
"            .........           ",
"            ..XXXX...           ",
"            .XXXXXX..           ",
"            .XXXXXX..           ",
"            .XXXXXX..           ",
"            .XXXXXX..           ",
"            ..XXXX...           ",
"            .........           ",
"                                ",
"                                ",
"                                ",
"                                ",
"                                ",
"                                ",
"                                ",
"                                ",
"                                ",
"                                ",
"                                "
};
