/* XPM */
static char *_17b97ed551d4c58a5680a0ff0f83174Q1rgejp07Mw32s60[] = {
/* columns rows colors chars-per-pixel */
"32 32 4 1 ",
"  c None",
". c #3F2A2D",
"X c #C1D0C4",
"o c #E0E5DF",
/* pixels */
"            ........            ",
"            ..oooo..            ",
"            .oooooX.            ",
"            ooooooXX            ",
"            ooooooXX            ",
"            ooooooXX            ",
"            ooooooXX            ",
"            ooooooXX            ",
"            ooooooXX            ",
"            ooooooXX            ",
"            ooooooXX            ",
"            ooooooXX            ",
"            ooooooXX            ",
"            ooooooXX            ",
"            ooooooXX            ",
"            ooooooXX            ",
"            ooooooXX            ",
"            ooooooXX            ",
"            ooooooXX            ",
"            ooooooXX            ",
"            ooooooXX            ",
"            ooooooXX            ",
"            ooooooXX            ",
"            ooooooXX            ",
"            ooooooXX            ",
"            ooooooXX            ",
"            ooooooXX            ",
"            ooooooXX            ",
"            ooooooXX            ",
"            .oooooX.            ",
"            ..oooo..            ",
"            ........            "
};
