/* XPM */
static char *d8da3ec2b5314830ec7a7a7ea01f4a0cBZvtnipxcfniw6hh[] = {
/* columns rows colors chars-per-pixel */
"32 32 7 1 ",
"  c #3F2A2D",
". c #9B5F49",
"X c #B36D42",
"o c #93A697",
"O c #A5B6A9",
"+ c #C1D0C4",
"@ c #E0E5DF",
/* pixels */
"  @@@@@@@@@@@@@@@@@@@@@@@@@@@@  ",
" @@@@@@@@@@@@@@@@@@@@@@@@@@@@@@ ",
"@@@@@@@@@@@@@@@@@@@@@@@@@@@@@@@@",
"@@@@@@@@@@@@@@@@@@@@@@@@@@@@@@@@",
"+@@@@@@@@@@@@@@@@@@@@@@@@@@@@@@+",
"++@@@@@@@@@@@@@@@@@@@@@@@@@@@@++",
" ++++++++++++++++++++++++++++++ ",
"  ++++++++++++++++++++++++++++  ",
"                                ",
"  oooooooooooooooooooooooooooo  ",
" oOOooOOoooOOOoOOoooOOOoooooOoO ",
" OOOooOOOooOOOooooooooOoOOOOooo ",
" oooooOOOoOOOooOOooOoooOOOOOooO ",
" OOoooooooOOooOOOooooOOoOOOOoOO ",
" OOOooooooooooOOooooOOOOoOOoooo ",
" OOOooooOOoooooooOooOOOOoooooOO ",
" OOooooOOOOoOoOoOOooooOoooooOOO ",
" oooooOOOOOoooooooOoOoooOOooOOO ",
" OOoooOOOOooooOOOooooooOOOooOOO ",
" OOOoooOOOooOoOOOOooOOoOOOoooOO ",
" OoooooooooOOoOOOOoOOOoOOOooooo ",
" ooOOOOooooOOooOOOoOOOooOOooooo ",
" OoOOOOOoOoooooooooOOOooooOOooo ",
" OoOOOOOooOOooOOOOooooooOOOoooO ",
" OooOOOoooOOooOOOOoOOOooOOooooO ",
" OooooooooooOooOOooOOoooooooooo ",
" ooooooOOOOOooooooooooooooOoOOO ",
" oOOOoOOOOOOOoOooOOooOOOOoooOOo ",
"  oOOoOOOOOOOoooOOOOoOOOOOooOo  ",
".  oooooooooooooooooooooooooo  .",
"....XXXXXXXXXXXXXXXXXXXXXXXX....",
"................................"
};
