/* XPM */
static char *_146794314c8481c9a3a41e1ed8d0376jihuIYny7T50r17B[] = {
/* columns rows colors chars-per-pixel */
"72 24 8 1 ",
"  c None",
". c #382121",
"X c #A04345",
"o c #BC4D4F",
"O c #4B9A27",
"+ c #D8B78F",
"@ c #FFD7A8",
"# c white",
/* pixels */
"                                                                        ",
"                                                                        ",
"                                                                        ",
"                                                                        ",
"        ............                                                    ",
"       ..XXXXooooooo.                                                   ",
"      .O.XXXXXooXXXo.            ............                           ",
"      .O.X#.#Xo.ooo..           ..XXXXooooooo.           .............. ",
"      ...X#.#Xoooooo.          .O.XXXXXooXXXo.          ..O.XXXXooooooo.",
"       .O.#.#Xoooooo.          .O.X#.#Xo.ooo..          .O..XXXXXooXXXo.",
"       .O.XXXXoooooo.          ...X#.#Xoooooo.           .O.X#.#Xo.ooo..",
"       ...XXXXXo.....           .O.#.#XXooooo.          .O..X#.#Xoooooo.",
"       ..XXoooo.                .O.XXXXXooooo.          ....X#.#Xoooooo.",
"        .X+@@@@.                 ..XXXXXoo....            ..XXXXXoooooo.",
"      ...X+@@@@.              .....X+@@@@.            ....X..XXXX.......",
"      .ooX+@@@@.              .ooXX++@@@.             .ooXXX+@@@@.      ",
"      ..XXXo++o.              ..XXXo+++.               .XXX++++o.       ",
"       ..Xooooo.               ..Xooooo.                .Xooooo.        ",
"        .Xo..Xo.                .Xo..Xo.                .Xo..Xo.        ",
"        .X. .X.                 .X. .X.                 .X. .X.         ",
"        ..  ..                  ..  ..                  ..  ..          ",
"                                                                        ",
"                                                                        ",
"                                                                        "
};
