/* XPM */
static char *dab3992e68094025937a97f5557da8afHvCneI8SBt0HiXI0[] = {
/* columns rows colors chars-per-pixel */
"120 24 8 1 ",
"  c None",
". c #382121",
"X c #A04345",
"o c #BC4D4F",
"O c #4B9A27",
"+ c #D8B78F",
"@ c #FFD7A8",
"# c white",
/* pixels */
"                                                                                                                        ",
"                                                                                                                        ",
"                                                                                                                        ",
"                                                                                                                   ##   ",
"        ............                                                                                     ####      ###  ",
"       ..XXXXooooooo.                                                                                    ####      ###  ",
"      .O.XXXXXooXXXo.           ............                                                                            ",
"      .O.X#.#Xo.ooo..          ..XXXXooooooo.                                                                   #       ",
"      ...X#.#Xoooooo.         .O.XXXXXooXXXo.                                                       ###         #       ",
"       .O.#.#Xoooooo.         .O.X###Xo.ooo..                                                      ####       ###       ",
"       .O.XXXXoooooo.         ...X###Xoooooo.           ............            ############      #####    #  ####      ",
"       ...XXXXXo.....          .O.###Xoooooo.          ..XXXXooooooo.          ##############              #            ",
"       ..XXoooo.               ...XXXXXo.....         .O.XXXXXooXXXo.         ###############              ###     ###  ",
"        .X+@@@@.               ..XXoooo.              .O.X###Xo.ooo..         ###############         ########      ##  ",
"      ...X+@@@@.              ...X+@@@@.              ...X###Xoooooo.         ###############         ##  ######    ##  ",
"      .ooX+@@@@.              .ooX+@@@@.              ..O.###Xoooooo.         ###############     ##      ######  ####  ",
"      ..XXXo++o.              ..XXXo++o.              ....XXXXXo.....         ###############     ###    #######    #   ",
"       ..Xooooo.               ..Xooooo.               ..Xooooo.               #########           ##    #######        ",
"        .Xo..Xo.                .Xo..Xo.                .Xo..Xo.                ########                ########        ",
"        .X. .X.                 .X. .X.                 .X. .X.                 ### ###                 ### ###         ",
"        ..  ..                  ..  ..                  ..  ..                  ##  ##                  ##  ##          ",
"                                                                                                                        ",
"                                                                                                                        ",
"                                                                                                                        "
};
