/* XPM */
static char *a042dcf6cf654e59c0f3f0f4902c6810Kdo3FpuoYnLlvdbM[] = {
/* columns rows colors chars-per-pixel */
"72 24 8 1 ",
"  c None",
". c #382121",
"X c #A04345",
"o c #BC4D4F",
"O c #4B9A27",
"+ c #D8B68F",
"@ c #FFD7A8",
"# c white",
/* pixels */
"                                                                        ",
"                                                                        ",
"                                                                        ",
"                                                                        ",
"        ............                                                    ",
"       ..XXXXooooooo.           ............            ............    ",
"      .O.XXXXXooXXXo.          ..XXXXooooooo.          ..XXXXooooooo.   ",
"      .O.X###Xo.ooo..         .O.XXXXXooXXXo.         .O.XXXXXooXXXo.   ",
"      ...X###Xoooooo.         .O.X###Xo.ooo..         .O.X###Xo.ooo..   ",
"       .O.###Xoooooo.         ...X###Xoooooo.         ...X###Xoooooo.   ",
"       .O.XXXXoooooo.          .O.###Xoooooo.          .O.###Xoooooo.   ",
"       ...XXXXXo.....          .O.XXXXoooooo.          .O.XXXXoooooo.   ",
"       ..XXoooo.               ...XXXXXo.....          ...XXXXXo.....   ",
"        .X+@@@@.               ..XXoooo.               ..XXoooo.        ",
"      ...X+@@@@.              ...X+@@@@.                .X+@@@@.        ",
"      .ooX+@@@@.              .ooX+@@@@.              ...X+@@@@.        ",
"      ..XXXo++o.              ..XXXo++o.              .ooX+@@@@.        ",
"       ..Xooooo.               ..Xooooo.              ..XXXo++o.        ",
"         .XooX.                  .XooX.                ..Xooooo.        ",
"          .XX.                    .XX.                   .XooX.         ",
"           ..                      ..                     ....          ",
"                                                                        ",
"                                                                        ",
"                                                                        "
};
