/* XPM */
static char *ffda66135bf042f6ecdb128a0cff4720O4p7MSb10CppYPPZ[] = {
/* columns rows colors chars-per-pixel */
"96 24 8 1 ",
"  c None",
". c #382121",
"X c #A04345",
"o c #BC4D4F",
"O c #4B9A27",
"+ c #D8B78F",
"@ c #FFD7A8",
"# c white",
/* pixels */
"                                                        ............                            ",
"                                                       ..XXXXooooooo.                           ",
"                                                      .O.XXXXXooXXXo.                           ",
"                                                      .O.X#.#Xo.ooo..                           ",
"        ............                                  ...X#.#Xoooooo.                           ",
"       ..XXXXooooooo.           ............           .O.#.#Xoooooo.           ............    ",
"      .O.XXXXXooXXXo.          ..XXXXooooooo.          .O.XXXXoooooo.          ..XXXXooooooo.   ",
"      .O.X#.#Xo.ooo..         .O.XXXXXooXXXo.          ...XXXXXo.....         .O.XXXXXooXXXo.   ",
"      ...X#.#Xoooooo.         .O.X#.#Xo.ooo..          ..XXoooo.              .O.X#.#Xo.ooo..   ",
"       .O.#.#Xoooooo.         ...X#.#Xoooooo.           .XXoooo.              ...X#.#Xoooooo.   ",
"       .O.XXXXoooooo.          .O.#.#Xoooooo.           .X+@@@@.               .O.#.#Xoooooo.   ",
"       ...XXXXXo.....          .O.XXXXoooooo.         ..oX+@@@@.               .O.XXXXoooooo.   ",
"       ..XXoooo.               ...XXXXXo.....         .oXX+@@@@.               ...XXXXXo.....   ",
"        .X+@@@@.               ..XXoooo.               .XXXo++o.               ..XXoooo.        ",
"      ...X+@@@@.                .X+@@@@.                .Xooooo.                .X+@@@@.        ",
"      .ooX+@@@@.              ...X+@@@@.                .Xo..Xo.              ...X+@@@@.        ",
"      ..XXXo++o.              .ooX+@@@@.                ... ...               .ooX+@@@@.        ",
"       ..Xooooo.              ..XXXo++o.                                      ..XXXo++o.        ",
"        .Xo..Xo.               ..Xooooo.                                       ..Xooooo.        ",
"        .X. .X.                 .Xo..Xo.                                        .Xo..Xo.        ",
"        ..  ..                  ... ...                                         ... ...         ",
"                                                                                                ",
"                                                                                                ",
"                                                                                                "
};
