/* XPM */
static char *_293b9a9f0e44da4d2dc9e51d7ddfde0mJjLHa6YGk801f76[] = {
/* columns rows colors chars-per-pixel */
"144 24 8 1 ",
"  c None",
". c #382121",
"X c #A04345",
"o c #BC4D4F",
"O c #4B9A27",
"+ c #D8B78F",
"@ c #FFD7A8",
"# c white",
/* pixels */
"                                                                                                                                                ",
"                                                                                                                                                ",
"                                                                                                                                                ",
"                                                                                                                                                ",
"        ............            ############            ............            ............            ............            ############    ",
"       ..XXXXooooooo.          ##############          ..XXXXooooooo.          ..XXXXooooooo.          ..XXXXooooooo.          ##############   ",
"      .O.XXXXXooXXXo.         ###############         .O.XXXXXooXXXo.         .O.XXXXXooXXXo.         .O.XXXXXooXXXo.         ###############   ",
"      .O.X#.#Xo.ooo..         ###############         .O.X#.#Xo.ooo..         .O.X#.#Xo.ooo..         .O.X#.#Xo.ooo..         ###############   ",
"      ...X#.#Xoooooo.         ###############         ...X#.#Xoooooo.         ...X#.#Xoooooo.         ...X#.#Xoooooo.         ###############   ",
"       .O.#.#Xoooooo.          .O.#.#Xoooooo.          ##############          .O.#.#Xoooooo.          .O.#.#Xoooooo.          ##############   ",
"       .O.XXXXoooooo.          .O.XXXXoooooo.          ##############          .O.XXXXoooooo.          .O.XXXXoooooo.          ##############   ",
"       ...XXXXXo.....          ...XXXXXo.....          ##############          ...XXXXXo.....          ...XXXXXo.....          ##############   ",
"       ..XXoooo.               ..XXoooo.               #########               ..XXoooo.               ..XXoooo.               #########        ",
"        .X+@@@@.                .X+@@@@.                ########                .X+@@@@.                .X+@@@@.                ########        ",
"      ...X+@@@@.              ...X+@@@@.              ##########              ...X+@@@@.              ...X+@@@@.              ##########        ",
"      .ooX+@@@@.              .ooX+@@@@.              .ooX+@@@@.              ##########              .ooX+@@@@.              ##########        ",
"      ..XXXo++o.              ..XXXo++o.              ..XXXo++o.              ##########              ..XXXo++o.              ##########        ",
"       ..Xooooo.               ..Xooooo.               ..Xooooo.               #########               ..Xooooo.               #########        ",
"        .Xo..Xo.                .Xo..Xo.                .Xo..Xo.                ########                .Xo..Xo.                ########        ",
"        .X. .X.                 .X. .X.                 .X. .X.                 ### ###                 .X. .X.                 ### ###         ",
"        ..  ..                  ..  ..                  ..  ..                  ##  ##                  ..  ..                  ##  ##          ",
"                                                                                                                                                ",
"                                                                                                                                                ",
"                                                                                                                                                "
};
