/* XPM */
static char *e89eafe7e08d48c3adfb7b9ba0591767hJvIfA20xQoO0lW2[] = {
/* columns rows colors chars-per-pixel */
"32 32 8 1 ",
"  c #3F2A2D",
". c #9B5F49",
"X c #B36D42",
"o c #5292C3",
"O c #93A697",
"+ c #A5B6A9",
"@ c #C1D0C4",
"# c #E0E5DF",
/* pixels */
"  ############################  ",
" ############################## ",
"################################",
"################################",
"@##############################@",
"@@############################@@",
" @@@@@@@@@@@@@@@@@@@@@@@@@@@@@@ ",
"  @@@@@@@@@@@@@@@@@@@@@@@@@@@@  ",
"                                ",
"  ++++++++++++++++++++++++++++  ",
" ++++++++++++++++++++++++++++++ ",
" ++++......................++++ ",
" ++++..oooooooo..oo#ooooo..++++ ",
" ++++.ooo#ooooo..ooo#ooooo.++++ ",
" ++++.oooo#oooo..oooo#oooo.++++ ",
" ++++.ooooooooo..ooooooooo.++++ ",
" ++++......................++++ ",
" ++++......................++++ ",
" ++++.oo#oooooo..ooooooooo.++++ ",
" ++++.ooo#ooooo..oo#oooooo.++++ ",
" ++++.oooo#oooo..ooo#ooooo.++++ ",
" ++++..oooooooo..oooooooo..++++ ",
" ++++......................++++ ",
" ++++OOOOOOOOOOOOOOOOOOOOOO++++ ",
" ++++++++++++++++++++++++++++++ ",
" ++++++++++++++++++++++++++++++ ",
" ++++++++++++++++++++++++++++++ ",
" ++++++++++++++++++++++++++++++ ",
"  ++++++++++++++++++++++++++++  ",
".  ++++++++++++++++++++++++++  .",
"....XXXXXXXXXXXXXXXXXXXXXXXX....",
"................................"
};
