/* XPM */
static char *_0e2ec9bf791436fd1f7169bcb5d7084A0I0trS7p3J9NeRq[] = {
/* columns rows colors chars-per-pixel */
"87 87 256 2 ",
"   c #040200",
".  c #0B0400",
"X  c #0C0B00",
"o  c #060C00",
"O  c #140500",
"+  c #1C0400",
"@  c #130C00",
"#  c #1C0C00",
"$  c #0E1101",
"%  c #151302",
"&  c #1B1402",
"*  c #151B03",
"=  c #1D1B04",
"-  c #1D1B0A",
";  c #19160A",
":  c #1F1D10",
">  c #220400",
",  c #2C0300",
"<  c #240C00",
"1  c #2B0C01",
"2  c #2F0C08",
"3  c #330300",
"4  c #3C0200",
"5  c #330A03",
"6  c #3C0A03",
"7  c #390F0C",
"8  c #231402",
"9  c #2B1403",
"0  c #231B05",
"q  c #2B1A05",
"w  c #241D0B",
"e  c #2B1C0A",
"r  c #281509",
"t  c #321205",
"y  c #331C0D",
"u  c #38160B",
"i  c #271C11",
"p  c #341D12",
"a  c #3C1B12",
"s  c #1D240B",
"d  c #1B2409",
"f  c #1F2315",
"g  c #24230D",
"h  c #2A230D",
"j  c #24270D",
"k  c #32230C",
"l  c #36210B",
"z  c #252512",
"x  c #2C2513",
"c  c #252C13",
"v  c #2C2B14",
"b  c #2C2D19",
"n  c #2C2319",
"m  c #342413",
"M  c #3A2314",
"N  c #322B15",
"B  c #3A2A16",
"V  c #342D1A",
"C  c #3B2C1B",
"Z  c #33261A",
"A  c #2B3116",
"S  c #2D331B",
"D  c #29371A",
"F  c #323015",
"G  c #33331C",
"H  c #3A331C",
"J  c #34391E",
"K  c #3C381D",
"L  c #2E3321",
"P  c #343522",
"I  c #3C3522",
"U  c #353A22",
"Y  c #3C3B24",
"T  c #3C3D2A",
"R  c #34382B",
"E  c #3C3E32",
"W  c #322D22",
"Q  c #430100",
"!  c #470906",
"~  c #451B14",
"^  c #491510",
"/  c #432C1C",
"(  c #48261B",
")  c #42331D",
"_  c #44381D",
"`  c #472E22",
"'  c #582C25",
"]  c #433423",
"[  c #4B3324",
"{  c #433B25",
"}  c #4A3B25",
"|  c #443D2A",
" . c #4B3D2A",
".. c #493529",
"X. c #523C2C",
"o. c #573729",
"O. c #493E31",
"+. c #593C32",
"@. c #63372E",
"#. c #3C4226",
"$. c #3D432B",
"%. c #384629",
"&. c #3C4333",
"*. c #3C4A34",
"=. c #434226",
"-. c #43432C",
";. c #4B432D",
":. c #43492D",
">. c #4C4A2D",
",. c #4A4326",
"<. c #53432D",
"1. c #57482D",
"2. c #444532",
"3. c #4B4632",
"4. c #454A32",
"5. c #4B4C34",
"6. c #464A3A",
"7. c #4B4D3A",
"8. c #48473B",
"9. c #534432",
"0. c #5B4434",
"q. c #534C34",
"w. c #5B4C34",
"e. c #534D39",
"r. c #5C4C3A",
"t. c #5F4639",
"y. c #465135",
"u. c #4B5236",
"i. c #4D533A",
"p. c #49573B",
"a. c #535136",
"s. c #53533B",
"d. c #5B533D",
"f. c #545A3E",
"g. c #5B5A3E",
"h. c #5A5235",
"j. c #634C3C",
"k. c #664938",
"l. c #62543D",
"z. c #6B553C",
"x. c #635B3E",
"c. c #685537",
"v. c #71563E",
"b. c #6B4934",
"n. c #4C603D",
"m. c #4E5A42",
"M. c #535541",
"N. c #5B5542",
"B. c #555B42",
"V. c #5B5C43",
"C. c #5D5D49",
"Z. c #585749",
"A. c #524D41",
"S. c #635542",
"D. c #6A5542",
"F. c #625B44",
"G. c #6B5C43",
"H. c #645E4A",
"J. c #6B5D4A",
"K. c #755A47",
"L. c #6E5B4F",
"P. c #546243",
"I. c #5C6245",
"U. c #5D634A",
"Y. c #5C6A4C",
"T. c #596747",
"R. c #5D6C51",
"E. c #4F6242",
"W. c #626146",
"Q. c #6A6246",
"!. c #63644B",
"~. c #6B644C",
"^. c #646A4D",
"/. c #6C6A4D",
"(. c #616847",
"). c #72654C",
"_. c #7B634C",
"`. c #726A4E",
"'. c #746347",
"]. c #656651",
"[. c #6C6651",
"{. c #656B52",
"}. c #6C6B53",
"|. c #6D6D59",
" X c #736552",
".X c #736C54",
"XX c #7B6C54",
"oX c #746E59",
"OX c #7B6C5A",
"+X c #7A6453",
"@X c #667154",
"#X c #6C7254",
"$X c #6D745B",
"%X c #68775A",
"&X c #737255",
"*X c #7A7255",
"=X c #74735B",
"-X c #7B745C",
";X c #757A5B",
":X c #7B7A5D",
">X c #777856",
",X c #7C7662",
"<X c #7C7B63",
"1X c #777A63",
"2X c #786F60",
"3X c #82664E",
"4X c #846C54",
"5X c #886A55",
"6X c #84745B",
"7X c #8B745C",
"8X c #837B5F",
"9X c #887559",
"0X c #92785E",
"qX c #946B59",
"wX c #837C64",
"eX c #8B7C63",
"rX c #837D6A",
"tX c #877864",
"yX c #937C64",
"uX c #957965",
"iX c #946A62",
"pX c #906956",
"aX c #7B8267",
"sX c #8B8166",
"dX c #85836C",
"fX c #8C836B",
"gX c #868568",
"hX c #93846A",
"jX c #9B846B",
"kX c #9A896E",
"lX c #93866A",
"zX c #8B8672",
"xX c #8C8C74",
"cX c #878A72",
"vX c #948B74",
"bX c #9C8C72",
"nX c #948D79",
"mX c #948874",
"MX c #9B937C",
"NX c #989378",
"BX c #8D937A",
"VX c #A48C74",
"CX c #A78A74",
"ZX c #A4937A",
"AX c #A8937A",
"SX c #AC8E76",
"DX c #80815F",
"FX c #9C9882",
"GX c #988F80",
"HX c #A59B85",
"JX c #B29D84",
"KX c #A9A38B",
"LX c #B1A88F",
"PX c #B7B9A1",
"IX c #C5BAA8",
"UX c #D0C7B3",
/* pixels */
"7 ~ o.+.+.+.O.O.-.M.2.T u.4.T 4.$.$.$.:.i.5.-.-.:.-.5.s.Y u.#.-.4.5.-.-.i.4.$.i.6.&.*.6.&.&.&.R &.6.2.M.2.7.&.2.2.T 6.7.4.4.&.*.2.2.A.L A.6.P A.T A.2.M.7.i.4.e. .9.0. .] ] ] ",
", a ' +.+.9.O.I -.-.G T s.7.4.{.U.^.I.g.I.I.N.g.W.s.g.u.s.(.(.I.s.s.s.T s.7.i.2.M.6.6.&.R E &.R &.&.2.6.7.7.M.Z.A.R M.A.&.m.$.m.7.A.7.6.6.P Z.4.&.s.i.i.V.].s.3. Xj. .] C B M ",
"> 2 t t p ] { I T Y b U i.i.s.$X{.{.{.{.=X#X/.&Xd.N.<XI.I.V.^.^.B.s.N.G 7.7.B.L L L R R L L f o   L M.* o * U b 4.L 4.U U $XP z * R C.6.z b ].P B.B.C.G >.].~.~.r.C y y 8 8 r ",
"2 1 > + < e m x Y 7.3.Y T -.T -.1X#X{.<X:Xs.-.a.3.C.dX#X(.(.#X{.C.N.!.5.5.5.5.g ; - P E E E L $ z % o   X z i.{.- z $.P * 6.&.B.M.- 6.7.b z 5.|.s.:.N.F s./.3.=.8 + 9 y # # M ",
"( u r p p r & 8 N ;.s.e.s.d.e.5.V.C.W.}.}.s.-.3.=.-.7.i.u.#X{.^.5.5.s.V.| | v % ; w I 8.M.Z.A.T T 6.S % % 4.M.6.$X{.M.7.- * P C.2.G 2.- w F v = e.x H 0 ;.a.g @ 8 y / B 8 e B ",
"` p r p Z p x C 0 h I q.d.e.e.N.H q.g.g.~..X~.~.G H -.i.$.I.y.i.J =.-.[.5.e.V N & ; I A.Z.N.A.8.@ g T |.M.$.U B.U.{.7.2.$.4.|.B.-.s.-.-.:.= g 0 Y h x & g h 8 h ] X.[ e e m e ",
"Z p r 8 r C  .;.C h h H ] | ;.;.s.Q.~.}..X~.F.F.s.d.&X$Xg.y.#.$.u.N.N.-XoX.Xe.e.w 8 V 9.9.....| -.s.C.].}.$XI.7.S M.2X7.T Y C.5.Y W.s.F N N d.;.H q.>._ m B m _  .+.M < M C r ",
"p C C r e ]  .I 3.{ H H q.tXnXrX~.F.~.fXfXd.;.F.<XH.&XI.f.#.J A ^..X~.~.oXH.| Y Z # # e 8 O 8 Z P $.C.!.=X].{.].3.v N.3.7.g { N.W.Y !..XgX<X/.F.fXmXd.{ C r.w.<.]  .p r ] C r ",
"{ x Z I N V 3.r.d.q.9.H ;.N q.-XeXJ.Q.rX-X-XmX,X-XvX}.u.4.U $.g.s.N.{ =.| N { { C N C & # m m C Y F G I I -.s.d.!.N.;.N.3.q.gX=X=X:X:X:XgX*XQ.:X.X{ N d.S.r.d.q.D.N C ] ] r N ",
"V V I C x I 9.;.9.G.S.J.q.q.{ q.fXG.H ;. X6XtX).FXmX3.b #.#.:.7.F N N x G G G | e.I | ;.;.;.] q.-.G G G b F G G | ;.Y | x Y NXLX*XsX*X`.x.=.>.>.H ;.F.6X.Xd.l.d.t.N H ] H & w ",
"G Y | G w x N h H 9.q.d.q.~.F.q.q.rXfXtX-Xd.S.-X.X-Xs.3.s.#.J J =.K ;.-.q.H.s..Xs.{ ;.d.F.d.| 3.~.g.s.s.5.-.-.Y H { { q.;.3.-X.Xq./.d.`.`.F.*X;.x.-X.XF.d.3.3.{ N h H I I v V ",
"G G Y | I V H ;.3.| q.{ 3.d.}.q.-.F.N.OXHXHXmX-Xd.~.s.q.;.G :.V.g.s.C.V.~..X~.:X-.a.N.d.V.Q.s.=./.I.^.[.W.g.d.s.d.3.H { 9.d. Xd.`.NXZXvXg.;.~.q..XwXN.{ ;.3.q.-.g V Y I G v v ",
"g z v b x 0 w N a.{ >.>.g.W.#Xg.Y ;.{ ;.d.XXbXvXG.F.} ;.q.q.!.}.!.#XW.[.}.W.!.^.u.{.&X(.W.#X{.a.g.V./.=X/.!././..X~.q.,.{ <.S.l.NX8X/.>.{ h.d.H s.=X}.W.d.Y T Y = G U F v b x ",
"T s.i.Y G H N h Y F N s.g.&X&X;X}.}.N.q.) { l.l.r.l.r.G.~..X*X!.=XdX}.<X<X(.{.(.I.@X^.@X^.(.^.I.I.I.&X<X:X=X<XwX.X-X-X).G.l.l.w.q.{ ,.{ ;.Q..X=XH.=X#X{.i.z j b * G S b b U b ",
"j $.-.G Y -.G x K Y F >.u.I.i.I.g.-X.X~.l. .;.r.d. X.X.X~..XrX-X:X<X;X1X:X{.(.(.(.(.f.@X@Xf.T.I.I.V./.=X-X:X:X-X-X-XXX).OX6XXX).).l.;.S.-X.X~.H.V.s.7.M.4.A S A S :.J S c S * ",
"s S G P -.G w g g G -.#.I.5.$.Y -.W.{ { ~.S.w.).j.XXtX6XXX6XyX.X:X=XgX;X;X;XV./.}.#XW.&X;X(.^.I./.I.^.=X:X8X8X*X6XeXeXOXOXXXl.w.<.G.;.G.F.N -.N.Y T 7.].M.U A * z T z c c S % ",
"S T -.P v v x g x g I 7.7.I.{.s.s.>.x K ;.l.eXD.k.K._.K.CX0XqXyX8XgX:X&X.X>././.&X&X-XwXsX-X*X*X;X@Xg.g./.8X8XOXsX7X9X4X'.v.c.z.yXeX.X{ Y s.v e.V.H.F.3.q.g * j G G z w g - % ",
"Y 2.3.I v v v h = % g I | 7.V.7.5.;.F.K } OX_.yX5Xv.b.v.5XuXCXuXfXgX/.`.W.d.`.XX6XeXhXhXhXfXeX-X&X#X/.W.W..XeXkXhXkX4X'.c.1.4XlXeXtXrX~.& g }.-.q.N.d.3.V g g I g v x g x z % ",
"P 7.M.5.Y G v - x w x Y 3.5.5.5.s.;.d.H Q.).7XyXCX_.z.z.0.3XjXyX8X:Xg.Q.d.).*XeX8XkXZXkXkXbXkX8X-X:X*XQ.x.Q.6XhX0XyXc.c.c.z.jXyX6XyXd.-XY T 3.q.q.e.q.S.x = % g V G x & w z z ",
"b s.=X|.C.7.Y v g 0 w V ;.{ H Y d.H N q.l.XXOX9X9X7X5X7Xk.K._._.`./.x./.).6X8XeXhXbXZXbXbXZXbXhXsX8X*X`.).).'.'.x.v.w.'.9X7X0X_.tXtXnXY [.F = =X;.N C t.V 0 = b g N V I Y V w ",
"% -.].].M.s.5.| V w & x { I H Y -.= N ~.8 bXw.9XG.7XyXZXkX9X1.<.x.W.*X*XeXeXeXeXVXbXbXVXVXbXbXbXhXyXeXeX8X*XQ.h._ 1.8XkXjXjX4X7XeXJ.HX{ ~.~.x 0 ;.B ) N e = G Y g x G 3.3.v % ",
"$ P s.7.2.s.C.V.N.I w e C ] ] I G g H q.h -X).G.hXkX6XkXHXsX<._ >.q.*X).eXeXhXhXZXVXVXVXVXbXbXZXjXjXjXyX6XG.h.>.,.>.lXkXjXkX4XZX0.F.oX-XN e.h w N  .w.e 8 h ;.I Y I I -.| x - ",
"s $.B.s.B.].|.!.V.V & & r C C r I -.I { q.{ XXl.LXkXeXsXlXQ.q.q.h.1.G.l.'.yXjXAXVXVXVXVXVXVXVXCXSXuX0X4XG.l.h.d./.>.F.6XkXVX0XkXwXd.x V -.I 3.;.# B / q N q.d.3.I ;.5.3.:.G g ",
"% U i.M.C.].N.Y 3.w @ 8 e [ ` # | s.3.V.Y H m lXlX-XZXHX:X,.d.Q.*X/.x.h.w.yXyXAXjXSXSXCXCXAXVXjXSXuXK.z.z.G.`.*X*Xq.,..XZXbXyXyXfXH.G | :.V.d. .M M + 9 C d.;.5.3.N.3.x g V G ",
"b U 7.7.!.$XM.7.3.e.C < < u > p I F H !.d.3.fXfXlXfXNXNXq.>.g.F.Q.bXG.OXG.1.4XjXCXSXAXSXSXVXVXCX3XqXv.z.7X).sX*Xg.g.W._ ZXkXVX7XfXwX5.5.Y dXY { y < t 9 j. XF.F.d.Y 7.:.% % b ",
"G $.s.V.!.B.5.].N.N.r...> 1 u j.h 5.5.d.;.~.nX.XfX<XxXgXH >./.Q.8X).eXhXG.7Xv.z.7XSXJXCXCXSXCXqX3X3X5X7XXXkX.X&X&Xg.~.,.Q.ZX8XeXwXxX=X5.5.N.| N M < < y 0.OXG.H.V.5.s.7.g = v ",
"A $.M.M.Y.M.2.|.e. .t.t.1 5 ( D.H -.-.}.3.N.=X~.-XfX~.a.>.W.W.&X).).ZX8X_.ZXK.v._.4XuXSXCXyX3X_.5X5XCXyXz.bXeX/.:X&Xq.q.;.XXlX.X3.[.=X[.1XN.q.) y 1 > y / OX X~.!.B.B.s.T b x ",
"d $.4.4.Y.{.i.V.3. .../ > 5 ^ k.V 7.M.[.h s.}.{ .XfX~.a.q.g.a.*Xx.bXXXc.yXVXyX7X5XK.K.uXuX_.3XjXuX0XAXVX'.G.ZX*Xg.W.F.a.a.>.wXrX:.s.-.U i.[.9.C 9 9 t 1 9 S.OX~.!.V.s.i.7.I x ",
"* U u.u.{.$Xs.M.3.J.X.1 > 3 , +.] T B.=X% | H.I HXd.;.~.F.wX.XH lXkX_ j.JXVXjX7XuXqX_.K.K.3XuXAXVX4XAXJX_.,.sXbX,.{ fX!.~.F.{ xX-.$.-.d C.HX9.O + M o.9 > C ~.d.H.B.7.7.i.Y v ",
"c U B.{.$X].p.!.3.J./ > ~ @.3 7 | z 2.=Xv V q.s.oXH..XnX.X.X*X.XLXw.,.eXJXyX4X7X7X3X_.5X4X_.4XyXyXXXAX7X_ ).XXZXQ.~..X-XdX[.z s.aXJ #.o ].xX;.M < +.K.( 9 q r.q.!.B.7.s.s.-.G ",
"U U Y.$XY.C.V.].3.9.1 > @.iX( > r $.i.-.G 5.s.e.d.tX-XfXmXfX.XNXKX,.G.bXJX4XG.4X_.K.5XVXCX_.c.'.Q.*XbXl.} bX6XeXhXnXs..X1X-.s.U $XU i.#.$XN.# + M K._.+.y < } d.N.7.5.s.s.-.Y ",
"U T Y.Y.p.{.{.N.D.X.< < o.iX@.t & $.T G s.3.I H.F.,X-XrX<XwX=XwXHX*XG.9XJX7Xz.c.4XyXjXVXjXeX4X'.w.'.eX6XZXbXeXXXeXeX-Xq.5.* 1X$X#.T.{.f.s.!.m q [ K.0.+.9 + B J.3.J T y.5.#.J ",
"$ &.B.A.p.U.V. .k.~ 9 8 5.*X_.q = 5.:.g d.Y d.;.s.=X,X~.[.}.[.rX9XAX0X7X4X_.v.4X9XyXAX7XeXbXG.yX1.4Xz.7XZXbX_.G..X.XN.~.5.= -.aX%Xm.1XI.N.J.q 8 ;.;.;.} N # t 9.Y $.7.4.S A U ",
": P 7.A.&.U.3.j.@.3 < H y.y.a.} @ x 7.Y I d.7.N.-.1X5.[.dX=XwXxX0X7Xv.b.3X4X7XjX3XhX7XyX7XhXXX4X4XyXc.k._._.eXkXwX-X~.-.N.Y -.{.R.%.I.7.H C 8 { a.a.s.d. .9 1 [ { $.4.u.M.i.U ",
"- ; I M.4.].| +X' , 9 d.P.y.;.r.N x 5.{ v e.s.N.!.G s.!.;.-.s.~.bXK.b.o.4X0XjXhXyXZXw.eXG.OXbXeXhXhXG.w.z.w.kXfX,X{ ;.G N.T T ].R.c $.{ 8 < q G.F.d.H..XG.M , a -.-.U $.B.M.U ",
"% X n 7.6.B.3.L.( 5 u ~.Y.T.>.{ & = = g 5.7.1X!.FX0 -.b & % 3.<XXXw.c.c.6XZXAXbXAXAX} bXl.).ZXZXeX6X).OX-XG.-Xd.s.. h -.Y b s.|.C.b H B < 9 / G.F.a.g..X X( , 5 { 7.T U u.4.S ",
"@ ; w b $.S e.9.~ 5 p N.p.P.-.C = V = 0 3.-.s.3.MX.Xx x H @ 0 x x.G.XXXXG.lXMXkXmXfX9.LX~.[.fXnXtX).G.mXtX.XN.G V h w | z P C.H.5.| ] q + l 1.d.F.a.a.~. X' 3 5 ] i.7.4.M.4.D ",
"X i & X z $ e.[ ^ 3 M s.*.%.:.q.& V 0 % g H.5.gXg H & -.V ;.I h Q.fXeX8X;.l.wXrX-X-X3.LX!.H.oXrX-Xq.d.fX,X.XY V | 3.& { v P T 3.] r...< < / G.S.W.f.s.H.J.' 6 5 3.s.7.4.p.4.L ",
"@ i - X * % 3...7 3 ` e.y.*.V.~.3.q.N & X e.5.-X;.& N d.% Y [.N.{ .X.X-X;.G .X<XH.=XP <X2.5.oX=X!.b s.oX[.M.x 5.[.G v e.x I 3.I C t.M < ( 0.).~.I.I.g.N.S.o.^ 3 9.u.s.i.4.$.%.",
"- n W w ; z P [ 3 3 ..3.m.m.=X[.-.;.h 0 w | [.q.N.h = !.H.& zX[.g M.C.}.s.X 5.s.5.1Xz !.P T =X!.B.* s.7.i.P g =X<X= H.[.@ N.zXZ m  .+ < 0.D.~.(.P.T.P.g.d.o.^ , B 3.[.{.f.:.$.",
"% b N.P 2.7.V C , 5 t.5.*.p.!.H.0 h G H 0 0 -X~.;.s.& H.KXN.3.[.% Y M.7.b $ T G T M.z s.% 7.7.!.b - G 4.M.= {.}.5.C.nX[.x N 3.C r m p B D.r./.^.T.n.Y.$Xd.X.7 5 B g.d.a.7.B.J ",
"; b e.S 4.i.I ` 5 5 +.;.*.y.e.{ & { ;.d.x N [.Y V [.=X{ N.gX}.I G % U P z &.V.* b b * $.* Y P b P o U P   Y s z !.FXH.w oX{ x I 8 r C C l.G.V.^.P.p.T.@Xs.0.u 5 C !.}.~.d.u.U ",
"v I N.$.M.I.3.[ 5 3 ..| y.y.;.m h ;.| .XG 0 ;.;.= ~.{ N.}.<X.XH Y T - : S b M.G w % G 5.% - b v 2.z S j G U xXY <XH.oXH.{ ~.d.;.w w C C 0.d.W.g.T.P.Y.^.7.w.a > B F.~.!.>.G d ",
"P $.!.i.R.{.e./ 3 3 o.| 4.$.] r ] N.d.N.I = V .X-.[.@ N.d.N.X 3.|.T S L ].}.2.].M.g -.!.T N.H.5.2.z 2.S U -.[.d.H.s.| N .X~.vX;.* F x C ]  .~.s.I.T.Y.I.;.r.a > ] Q.~.!.a.-.j ",
"J #.V.i.T.U.s./ 3 6 0.;.#.A m 9 0 F.[.h { I w N.| nXw d.F.rXwXdXT b z ].].C.cX<X5.g !.-XG N.oXgX}.I.M.S T 5.(.xX-XN q.;.@ 6XnXq.% -.3.) y M ;.a.f.I.U.B.| t.( 1 ) /./.Q.d.g.G ",
"J #.f.u.E.P.W.X.3 6 k.q.#.A B y O I d.N .XF.0 { X H HX-XS..X-XwX% % 2.Y z C.=XKXV.& q.F.Y -X-X-X=X$.T   5.=XW.MXLX.X>.H *XwXbX& S I.,X] > t + _ a.V.^.C.;.t.( 1 B `.*X~.s.s.F ",
"J %.T.P.T.P./.w.3 3 k.r.:.G B y 0 N { F.rXF.I ;.H.N H { ,Xd.IXzX-.7.b - w C.rXnX,XH -XF.;.tXfXnXd.5.= 5.<X~.F.g.vXMXsX/.lXsX_ N s.xXH.C 9 t + 9 _ >.H.F. .0.~ 1 ) `.-X&XF.s.G ",
"J :.^.#X@XI.~.+.3 3 @.0. .N q + q K N N.;.K | N V [.H.tXKXC MXN |.-.7.-.X s.=X<XHX{ -X{ h.eXmXfX[.  [.x <X0 Y <X/.:XfX-X-X{ F x V.LX& 9 ( u [ < O e  .r.[ +.^ 5 B d.F./.~.V.I ",
"h { /.-Xd.r.K.5X! 4 ' ~ , 9 p } F.x.H = -.;.w { I ] 3.~.S.0 J.& 1XV.5.=X$ Y =XdXxX>.:X,.Q.sXHXxXY M.U KXnXX -.~.V.g.=Xa.:X3.= Y !.{.  e.l.B ) H h @ e y o.b.! ! ` <.H.~.;.s.Y ",
"@ G V.!.q.d.OX5X( 3 4 6 5 / r./.&X/.=.= N Y e.3.w ,Xe 3. XtXq.{ }.B.s.#X= -.:X<XFX:X~.,.&X*XvX/.s.i.4.cX4.b PXg =XN.&X-.=XN = G %.$.% q.d.{ N V ;.N h + u ' Q 3 +.| 3.~.~.~.I ",
"d J p.y.4.I.}.J.y > > / 0.N.$X;X>X:X/.>.K { !.N V V x | H.3.q.s.oX7.s.=Xb b !.=XxXsXQ.g.fXxXsX/.| z s.4.P s.P -.;.~.<X-.5.x Y -.J D %.4.:.-.x A #.5.{ e 1 6 4 6 0.q.3.s.C.I.U ",
"s #.y.m.P.U.s.H # < q S.oX!.$X@X;XDXgX&X5.a.5.% oXx V = dXv z ;.<X-.s.rX-.% q.wXfX-X-X.XwXKX`..XI U.].<X5.s.% =X% N.!.s.N Y ;.s.4.%.p.G F G U U A i.7.;./ , 4 6 B F.!.q.;.d.U ",
"& G s.!.!.3.m < 1 t t k. XF.[.{.;X>X;X#Xs.~.g z C.z G s -.2.T -.2X2.C.rX| . 3.wXrX-Xd.-X-XKX.X~.. nX<X3.P V.% V.w Y G s.Y H N 3.4.:.7.b G G s.4.4.s.| d.0.t 3 , > <.S.r.s.H.H ",
"m  .q.<.) 9 9 a a t , ( D.G.~..X:X&X&X}.!..X% P P v P * * T P 5.].H.-X,XV . C 3.-XHXN nXnXHX[.N @ [.2XC.s.Y 3.w g V Y G ;.N H q.-.7.4.Y 5.Y d.5.C.N.-.d.<.1 5 ~ t e e ] q.F.G ",
"] <.] 9 < 9 M o.( u 9 p 0.J.S.}..XQ.*XQ..XF.g G dXw T b % z Y X N.[.rXrXV . & &  XUXx FXHXtXZ . & V dXs.rXY   I @ V 3.& ) ) H q.-.i.4.-.s.$.4.f.s.s.7.q.H # u k...9 O 8 m | v ",
"u ( t > t ( ' o.' ( a 1 ( k.0.+Xl.<.G.;.F.{ | H s.| G ; - g % z e.].rXGX3.& @ X { IX& oXrX2X# V @ 3.zX,XV.= | V & w x & ] ;.8 ;.}  .{ ] 9. . . X9.0.<...( t u @.o.( ~ u > M y ",
"4 4 4 Q 4 4 4 4 4 ! , ! 6 6 3 , 9 8 # 8 & # m 8 r 8 w w i w & @ w e.S.J.O.# 8 i x I w V I e.O x x ;.[.H.Y x x x w 0 w w e 0 & < , 6 , 6 ! 3 3 3 4 3 ! Q 3 Q Q Q Q Q Q Q 4 Q 4 ",
"3 6 6 6 6 4 4 6 6 3 3 3 3 ! 6 6 < 8 8 8 e . e m m I O & r r . n @ ] N.L.H.w e w Z 3.w . N.x Z & I [.H.5.% x @ & w x & N N 0 k 9 5 ! 3 3 3 3 6 ! Q 4 ! Q 4 ! Q 4 4 Q Q ! 4 Q 4 ",
"N I ;.0.0.0.t.j.9.] 9.0 < [ o.o.X. .0.} 0.e <.J.] J.Z C O n . w i C OXmXGXe x e.Z zX- w ].z I w e.dX[.P - I . . @ x x d.F._ { h k X.<.;.;. .<...[ ' ( 1 u [ [ ../ o.+.k.X.9.] ",
"S $.V.~.[.}..X.XN.s.I.g @ ) K.D.] B ] C B k r.).9. .Z O.. i i n I N ,XoXHXe.Z 3.C ,Xx @ <X; P w =XxX=X= I | ; X X w Y .X-Xg.>._ = s.^.^.Y.I.V.;.9.9.) # h 3.s.!.s.V.d.C.C.!.4.",
"S $.B.C.F.F.H.!.d.7.s.I r > k.K.] w x H % ;.-XwX.X| C I . . i | Z w wX~.mXq.w N.-.!.w % 1XP V -.dX;XC.% T | ; % ; - 2.H.}.~.q.g.% y.T.P.E.P.U.s.| ] m 8 { !.f.B.4.B.y.p.p.m.%.",
"%.4.i.s.s.F.~.[.!.7.5.~. .+ ~ +. .b b G X s.=X<Xs.[.e.@ X X ; n & I -Xd.-X~.I M.| }.z 2.M.-.T <X^.u.5.P T 6.% ; % - V.!.~..X>.g.= f.{.R.R.{.$X!.;.k 9 M S.=XV.i.p.@XT.p.*.*.D ",
"D %.4.4.7.N.!.!.I.7.5.~.0.t , u e.4.4.$.c s.!.cX* V.5.  . ; ; @ @ /.{ & s.KX-X& Y [.Y 4.!.$ |.$Xg.A s.7.P T % % % b }.=X&X/.>.>.& d.=X<X<X=X.XS.[ 1 7 +.K.).e.7.B.=XV.y.$.$.z ",
"D *.y.7.s.N.N.s.7.5.7.e.9.k.t t I 2.7.P T $.4.BXB.I.s.v X . % & w -X& Y N.-X=Xs.7.cX- }.=Xb BX7.=XA [.U - @ ; % ; 2.[.=X[.g.a.;.8 d.-XwXwX-XXXD.a , +.iXtXJ.5.7.N.[.4.$.7.B.S ",
"J $.f.$.5.5.s.5.:.7.s.;.{ -.C # p D. .t.@ 7.$.f.1X1X#.u.  w V X N I C e.g ,X].rX}.[.s.$XC.=Xg.u.<X-.!.@ & X = . % H.C.dXdXJ y.#.W./..X/.fX6XD.[ < 9 K.OXrX-.2.$.s.i.7.G V.-.s ",
"Y 5.s.Y :.5.!.~.C.C.d.a.7.:.G w < a j.j.J.{ U s @XcXi.$X% | I x 3.& w Y w e.3.b 7.dXY G <X=XU aX3.% w V.I { oX= { .XwX<X4.* u.I.(././.6XeX_./ < M j.eXH.V.7.i.c -.7.-.T i.B.U ",
"F -.g.5.7.s.].[.!.V.7.s.C.7.U | u , p j.XXN.G = :.BX#X~.@ rX| @ 3.V { =XX V I @ H.<XI b (.s.b =X@ s.-.MX& v FXx { [.FXzXd d #.s.W.~.Q.-XG.<.8 < l. XtX[.5.$.4.T M.B.u.i.$.i.b ",
"v $.s.s.s.N.!.!.~.B.-.s.].i.I s.9.9 > 9 D.G.d.K = }.xXs.% KXY . C | C <XC { H.X d.:.g Y -.#.A ].- <X3.V.X 3.KXI 3.oXFXH.  G F 5.g.`.).S.) q 9 } J.N.V..X7.$.$.B.i.-.i.C.4.7.U ",
"F Y -.4.7.N.!.!.I.i.Y i.[.7.U d.r.0.+ y <  XS.G.0 F KX~.Y KXI G % w = { [.= nXv -X1XI ~.1X[.Y NX3.7.| = & [.HXe.9.wXKXN g { F { J.XX).) 8 @ B d.q.N.s.C.-.B.s.i.p.G g.^.V.$.T ",
"x G T 5.5.V.V.V.5.Y F 4.V.4.Y d.H.S.r.O 8 k '.).<.q PX~.d.LXs.G = x % x [.  dXd.xXxX7.}.gX&XY <XT - H.@ & OXHXd.3.tXKX# F. .q.w.).z.} # 8 e d.=XB.d.7.s.4.V.s.-.I.T I.^.I.S z ",
"d S J 4.-.i.4.7.-.U J :.7.4.4.d.!.[.~.{ k q _ <.l.k LX/.=.dX|.j Y I x w 5.; [.5.zX}.}.,XwX-X}.q.G = -.@ C mX,X{ OXvXOX# S.<.J.OX0.( 8 8 ] s.[.dX$X4.J i.d.s.5.5.4.T B.I.B.-.b ",
"z G S U z T $.y.V.7.7.i.4.4.7.7.H.g.=X).G.l 9 8 } 8 JXfXh Y =X7.% v oX& w   H.3.rXH.rX}.-XQ.N.  e.3.x x e.H.8 C mXHX .{ l.G.w.D.1 < < w..X<X!.#X$X$.c $.s.d.s.s.:.i.V.!.s.V.U ",
"j U T S z b T g.g.B.s.4.-.4.4.-.(.&X.X`.XXG._ q 9 B sXlX= F ].}.X -.@ % x I H.@ F.!.N .XF.x a.N.d.w w ] H.9.. mXOXvXe r.X. .D.< 9 9 [ q..X~.=XaXY.*.#.f.-.5.>.5.g.^.{.{.B.s.S ",
"* S T U G S G #.u.y.-.J U 5.V.I.I.^.^./.-X6XG.w.8 l { d.I I b B.w N.v @ & V [.I KXwXx LXwXK rXd.x x w ;.N.N & MX .HX .w.l./ 9 # / / <.q.}.C.!.{.@XB.f.{.f.W.V.W.V.(.(.(.B.V.U ",
"G -.4.-.:.:.4.i.i.p.y.$.-.i.V.I.V.W.W.Q.*X*X).Q.8 r.0 h Y % Y b e.N.3.I C & | | oXMX;.HXoX{ S.N & ] # x I I | H.| zX .m & O y r.....C x 5.7.B.{.Y.I.P.U.u.a.a.s.g.g.s.g.g.(.$.",
"J :.:.$.-.4.7.B.B.I.B.y.4.i.f.f.f.I.W.^.&X/.g.d._ h ~.& & * b b e.| 5.s.N.w h x V I @ d.H 8 m G.h m ] [. .J.-X. d.-.X & e { <.r.I I h = I 5.f.].{.{.^.B.:.>.a.g.5.u.5.s.g.!.$.",
"z #.4.4.y.7.7.i.B.B.i.#.T 4.B.U.u.f.I./.&X^.g.W.-.X e.Y - @ - n ; g Y I ;.I G w I H { ] m q.XXC e ] # 8 C V & V g v h I ;. .] [.I | Y T i.V.B.I.I.].^.f.5.>.a.f.#.5.u.g.V.(.#.",
"S :.y.y.s.f.f.I.7.i.i.:.-.i.V.I.f.B.I.@X#XY.I.@X5.s.  Y w X n - w g w w = w x x [.nXC IXq.fX0.C B < r C # w w = h = F q.3.;.q.N.T T T 7.i.!.!.].g.(.W.u.u.#.#.=.:.f.V.W.I.!.#.",
"J %.%.%.y.i.i.M.4.f.I.M.p.B.B.B.U.^.{.#X#XP.i.U.{.I.b z w W @ I H.2.% V g w h V &  .r 8 h 8 B # m Z 8 x x I h = w I =X,X-.K s.q.4.S D 4.U s.[.oXW.W.V.>.f.=.=.>.I.W.I.I.I.(.$.",
"S #.:.y.I.I.u.:.i.B.B.i.y.B.U.Y.{.@X$XaX;Xf.4.B.U.$.i.A.7.% w A.,X}.z 5.3.H.e.V m . e m 8 k H C r  .] ,XMXV.g b d.xX1Xs.V.s.;.7.u.D U p.P 7.!.~.s.3.=.F 5.#.5.I.{.{.I.I.f.(.-.",
"G $.i.u.:.y.s.4.4.g.I.V.f.g.U.^.I.#X;X^.I.I.I.P.y.s.-.i.].P X U I.dXV.z b :.d.;.B / D.4XS. .] N V G g gXFXx d u.#X^.=X(.g.:.g.V.4.#.U -.4.-.7.N.d.5.5.N.M.5.5.B.V.{.I.^.a.^.Y ",
"Y :.g.g.y.i.f.u.f.B.B.f.f.V.(.^.I.(.^.(.f.f.f.i.$.I.M.4.M.$.d s A {.aXI.J J s.s.B B G.yXD.m 0 & d.o Y FX#X= J #X^.(.}.(.d.5.V.(.s.$.J $.4.:.-.5.7.2.5.i.7.-.2.d.~.}.^.I.V.^.:.",
"J -.f.B.y.y.i.4.U.I.f.i.g.(.{.^.I.I.I.(.I.g.s.s.T B.B.4.7.i.$.S * G s.i.c A C.Q.) 8 [ G.] e } N.>.$ u.s.A ^.;Xu.V.B.V.I.7.s.I.{.g.:.#.i.V.y.U b -.2.5.5.5.5.s.C.I.I.W.u.B.g.$.",
"J 4.(.^.I.B.I.f.^.I.f.u.f.U.^.^.(.I.I.@X@XI.B.I.y.4.7.7.7.7.i.i.s.y.:.y.U Y W.~.;.8 y } e q 9.!.=X* v u.^.#XB.=Xg.u.:.f.:.V.(.#X{.f.5.f.I.i.$.J -.4.5.$.Y T 5.M.I.I.W.g.I.I.#.",
"S $.I.{.I.B.V.f.B.B.s.i.i.B.I.I.I.f.V.{.#XU.V.U.I.4.4.i.4.$.2.4.V.{.I.Y.Y.y.N.=X X/ y M q C H.}.^.@XU.B.#X1X].@XI.y.T y.:.I.U.^.^.4.S A S S $.7.I.!.V.2.P P $.4.s.I.g.!.g.(.G ",
"#.4.I.].I.I.I.B.I.U.U.V.V.I.U.U.(.I.I.@X#X^.^.{.I.B.B.B.i.7.7.4.$.I.f.U.$XI.C.=X~.] 9 < 9  .~.[.#X$X@X1X$XU.#X@X$XB.4.i.p.U.Y.U.P.$.S A A G 4.Y.B.B.7.T b v G U 5.g.s.].s.(.G ",
"j s A S c c A c c c c j j c c z c s j A A c c A d s s d d d * * d c d s c s j = V k 8 8 e m h g z d d D A d c s S d * d s s c d d * * d * * s G b c z s ; % % = = d j v d c $ "
};
