/* XPM */
static char *cb0643e3a6774b92da8b6bca85229ef4zGKtuCJB4ZENzaXt[] = {
/* columns rows colors chars-per-pixel */
"87 87 198 2 ",
"   c #3C0000",
".  c #300000",
"X  c #440000",
"o  c #4C0000",
"O  c #4B0905",
"+  c #540100",
"@  c #5C0201",
"#  c #560905",
"$  c #5C0906",
"%  c #5D0608",
"&  c #550D0A",
"*  c #5D0B0A",
"=  c #59110E",
"-  c #591311",
";  c #620403",
":  c #6A0505",
">  c #630907",
",  c #690A07",
"<  c #650708",
"1  c #6A0608",
"2  c #640C0A",
"3  c #6B0C0C",
"4  c #720D0D",
"5  c #65110E",
"6  c #6B100E",
"7  c #630E10",
"8  c #6E0F10",
"9  c #750E11",
"0  c #661312",
"q  c #6C1312",
"w  c #6C1915",
"e  c #6D1A19",
"r  c #661816",
"t  c #731414",
"y  c #7A1515",
"u  c #731916",
"i  c #781917",
"p  c #761718",
"a  c #7B1618",
"s  c #751B1A",
"d  c #7B1C1C",
"f  c #72100F",
"g  c #74221E",
"h  c #7C211E",
"j  c #751E20",
"k  c #7D1F20",
"l  c #762221",
"z  c #7D2322",
"x  c #7D2925",
"c  c #7E2C29",
"v  c #7F2628",
"b  c #7F312F",
"n  c #821D1D",
"m  c #80171B",
"M  c #81201F",
"N  c #831F21",
"B  c #832423",
"V  c #8A2525",
"C  c #832826",
"Z  c #892927",
"A  c #852729",
"S  c #8C2728",
"D  c #852B2A",
"F  c #8B2C2B",
"G  c #922C2D",
"H  c #84312E",
"J  c #8C302E",
"K  c #91312F",
"L  c #8C2E30",
"P  c #832E31",
"I  c #932F31",
"U  c #992F32",
"Y  c #853331",
"T  c #8D3332",
"R  c #8D3936",
"E  c #8D3B3A",
"W  c #8D3738",
"Q  c #933333",
"!  c #9A3435",
"~  c #943837",
"^  c #9A3937",
"/  c #943739",
"(  c #9B3738",
")  c #953B3A",
"_  c #9C3B3B",
"`  c #A23D3D",
"'  c #A0373A",
"]  c #96413D",
"[  c #9C403E",
"{  c #A2413F",
"}  c #9F3F40",
"|  c #A53F40",
" . c #AB3F43",
".. c #9D4342",
"X. c #9D4B4A",
"o. c #984444",
"O. c #9F504C",
"+. c #A44343",
"@. c #AA4545",
"#. c #A54946",
"$. c #AA4947",
"%. c #A64748",
"&. c #AC4649",
"*. c #A54B4A",
"=. c #AC4B4B",
"-. c #B24D4D",
";. c #B4464B",
":. c #AC504E",
">. c #A6514D",
",. c #B2514F",
"<. c #AD4E50",
"1. c #B44F51",
"2. c #B94D51",
"3. c #AD5352",
"4. c #AC5955",
"5. c #AF5B5A",
"6. c #AD5758",
"7. c #B45353",
"8. c #BA5555",
"9. c #B55856",
"0. c #B95957",
"q. c #BC5758",
"w. c #B55B5A",
"e. c #BC5C5B",
"r. c #B45759",
"t. c #B5615E",
"y. c #BE605F",
"u. c #BF5F60",
"i. c #B46362",
"p. c #BD6262",
"a. c #BD6B6A",
"s. c #BD6964",
"d. c #C25D5D",
"f. c #C5585C",
"g. c #C2615F",
"h. c #C55E61",
"j. c #C95E61",
"k. c #C46363",
"l. c #CA6565",
"z. c #C56966",
"x. c #CA6967",
"c. c #C56768",
"v. c #CE6669",
"b. c #C56A69",
"n. c #CC6B6A",
"m. c #D26D6D",
"M. c #D36669",
"N. c #C3716E",
"B. c #CC716E",
"V. c #D2716F",
"C. c #D36E71",
"Z. c #CD7372",
"A. c #CB7977",
"S. c #D47373",
"D. c #D97575",
"F. c #D57976",
"G. c #D97977",
"H. c #D67778",
"J. c #DB7779",
"K. c #D57B7A",
"L. c #D97A79",
"P. c #DD7A79",
"I. c #DC7C7B",
"U. c #C76E70",
"Y. c #E27D7D",
"T. c #DD807E",
"R. c #E2817F",
"E. c #DB7F80",
"W. c #E37F80",
"Q. c #DD8382",
"!. c #DF8988",
"~. c #E18281",
"^. c #E48382",
"/. c #EA8585",
"(. c #E58986",
"). c #E98887",
"_. c #E58B8A",
"`. c #EB8B8A",
"'. c #E68788",
"]. c #F18E8E",
"[. c #EB908F",
"{. c #E4908D",
"}. c #ED9392",
"|. c #F29493",
" X c #F49896",
".X c #F59B9B",
"XX c #FC9E9C",
"oX c #FA9595",
"OX c #EB8F90",
"+X c #FFA09F",
"@X c #F5A19E",
"#X c #FEA5A4",
"$X c #FFABAA",
"%X c #FBA6A5",
"&X c #FFB0AF",
"*X c #FFB3B2",
"=X c #FFBCBC",
"-X c #FFC6C4",
/* pixels */
"f.v.j.v.l.e.x.~.n.n.x.x.e.-.d.m.S.P.Y.P.L.G.V.k.n.y.B.y.k.x.y.k.S.B.z.B.~.I.L.(.`.`.^.~.^.x.~.n./.0.S.7.e.-.x.P./.S.M.f.l.M.M.d.[ :.I.L.D.R.m.M.f.].x.k.L.I.k.I.^.n.S.H.c.x.k.",
"v.v.j.8.v.x.n.n.n.S.P.D.x.d.S./.D.D.P.P.Y.~.I.D.G.F.k.z.y.*.k.k.k.F.(.T.F.I.T.S.~.L.F.T.(.~.`.L.k.|.V.G.x.S.D.D.v.k.7.m.f.v.d.! =.x.n.x.V.l.e.q.M.k.x.P.k.w.E.p.H.7.p.(.=.k.9.",
"l.d.v.k.S.e.n.^.R.~.T.S.v.m.S.D.D.m.v.v.k.8.&.` A F n.S._ 7.9.9.:.%.7.y.k.n.S.B.n.n.T.(.S.L.n.x.`.(.0.9.x.k.e.7.e.&.&.&.m.+.` e.k.k.g.G.l.d.J.8.m.-.J.8.k.n.b.OXr.%.e.Q 7.9.e.",
"f.d.v.k.x.k.n.[.S.L.(.I.D.Y.P.J.P.D.P.~.P.k.-.&.3 @ o k.S.`.%.i e.x.z.k.B.S.S.I.~.S.S.S.k.^.F.(.n.=.x.^.k.3 0.x.; @ v.e.d v.! P.,.z.=.7.V.g.d.M.x.e.e.n.e.y.}.3.o c.F + d 0.9.",
"k.M.l.7.0.~.S.I.(.I.~.S.Y.`.S.v.x.x.m.D.v.7.+._ =.%.C B F XX+ @ 3 S.`.9.0.B.x.n.`.S.S.S.n.`.S.n.k.J =.^.n._ ~.; d 7.%.G d._ d.x.z.+.d.x.e.v.m.k.k.x.e.k.k.Q.=.o %.$Xd + s ^ Z ",
"M.d.d.7.z.^.F.`.S.S.(.k.&.7.l.`.~.Y.P.S.k.=._ ~ 7.R.I.`.%.+X+.+ + x.(.e.g.F.L.).S.L.(.^.S.L.V.n.+.@ d }.+ ^ , Q S.k.e.J 4 0.&.8.g.k.n.g.P.~.k.D.x.e.x.Q Z.*X> + b.e.+ + Z ; d ",
"v.7.x.` V.T.L.F.e.Q ^ ` x.`.S.S.Y.P.S.v.x.k.7.&.A Z S.^.t F +.e.i 0.T.B.e.k.V.I.L.~.~.S.B.S.`.(.; s I.u @ #.i x @ e.S.> i $.7.7.e.7.k.v.x.D.S.d.d.7.=.e.3.=.*.u n.e.B _ Q 3 t ",
"k.k.G.@ e.|.^.h t Z S././.Y.8.v././.P.D.I.I.x.-.: n.e.^ T i i + @ %. X`.7.g.^.S.~.I.S.F.(.x.e.i *.$X=.(.(._.@ o _ J ; J e.0.0.y.e.S.l.v.V.M.m.8.` e.7.p.#.X s H 3._ T + p.~ B ",
"k.k.=.+ =.e.[.+.9.n.e.7.=.v.J.W./.P././.n.d.D.Z =.0.d _ i e.t ; + 8.I.G.-.e.V.n.L.^.n.G.k.&.d.B K.B.Z.F.I.F.|.h n.+ [ 7.9.k.9.e.I.k.v.D.e.l.,.-.+.e.0.n.@ o o 2 2 2 , e.3.e.Z ",
"=.9.k.@ C z.T._.z.d d 7.d.P.m.Y.Y.~.D.P.`.S.7.x.7.[ 9.%.%.-Xt + =.m.^ Z &.k.x.`.I.D.G.m.^ Y._ S.T.F.Z.|.F.Z.=.(.: A S.+.0.e.x.x.I.d.m.e.l.-.d.7.{ e.r.6 + 5 o t.2 + o > F.q F ",
"k.y.h @ h 7.F.`.T 3 9.~.8.m.v.m.S.P.~.Y.n.S.^ +.~ @ 7.y.k.:.Q =.Q =.=.V.I.).P.k.v.).S.v.%.k.=.).(.Q.F.I.S.k.I.d d e.e.0.=.x.k.S.k.x.x.v.-.{ +.+.7.B...h + Y H @Xw X , 2 ] X d ",
"9.e.q 2 2 6 9.#XF.9.e.7.S 8.d.8.Y.D.~.D.=.,.! d d g.7.%.o B k.=.k.S.G.).x.S.I.x.g.^.n.7.d.B S.G.S.Q.T.I.F.k.B Z x.$.7.&.v.7.S.g.0.V.g.l.K K _ =.g.6 p.) 3.5 o N.] @ ..J + + @ ",
"#.x u o @ s ] .X Xz.i Z _ -.d.m./.S.d.d.k.+.,.8.g.~ + : ~ k.[ %.v./.D.~.P.k.=.e.m.8.m.` ` ^ S./.G.S.I.F.^.{ F d.=.+.7.=.d.d.x.d.I.g.$.V { { e.7.A z.3.$ H X 5 o p.W p.D , @ + ",
"> u C + o + ] F.e.z.B =.m.8.f.m.l.7.8.k.x.0.~.0.> : t @  Xn.=.S.L.S.x.Y.d.+.=.k.v.8.8.e.n x.k.P.R.F.V.9.R.F S.d S e.^ d.1.S.@.Y.8.d.e.! G ^ +.e.+.b.z q   * o 0 >.3.r.r.v > s ",
"t u @ 2 > + D s F. X0.7.d.7.' ` | +.k.v.e.S.S.M i B > :.|.~.B.e.D.x.m.D.S B +.^ 7.m.+.d.G k.d.d.x.Y.d.e.n.` n V d.7.( &./.-.l.J.d.{ V S $.R.Z t i k.s 2 o o g   Y z.W s.W +.F ",
"h ; H R @ X o s b.}.I.e._ G n ` | 8.8.d.D.P.V M ^ d +.H.....[.s.e.S.$.n ; n _ ! 7.k.=.V ` 7.h.k.e.n.+.e.x.B e.t S.-.` e.`.+.`.7.&.V +.n 8.m.S d h ~.q X + 0   $ ) ^.q , e. Xd ",
"+.%.~ D @ + o @ ] _._.Q.T @ y I U &.f.D.D.-.I ! ! ~ F.w + l N.o.p.u + , d ^ %.~ h.q.1.1 _ 1.=.%.0.F Z =.F.7.Z k.I.=.%.I.^ x.n.~ ^ V S a G Y.S &.F _ t + @ + $ D 3.`.d o k.S.x.",
"e.^ Z J @ + + X R i.{.$X#.@ t ! U 8.j.M.f.G U &._ z.@ +   * # * 5 + @ h B ^ =.%.1.%.+.+ I <.Q ^ _ + 6 b._.r.S.p.b.r.p.p.d n.9.W F V 3 V ; f.d.4 S S 3 @ + h ] @ p.H.; @ n.k.7.",
"8.B d T @ @ 2 + w 4.Q..XK._ 3 9 | l.l.@.S | l.` J.T o % % i.i.o X o > h F +.1.+.N 7.%.+ B L A D s X t }.Q.e.l > @ T > z.*.I...u @ y G ; V oXn -.d +.3 @ C #.] X *.d o 3.b.T , ",
"S d B ) 6 $ + X * b...J  XZ.: &.=.-.G V -.@.( D.<.+ o 2 6.g A.+ + @ t d A &.q.&.; C.+.; k 8 l 8 s z Q #X=.+ + @ + o o D s b.r.s : ! d &.` 7.( G B _ t F >.D 2 ) K.o x $X*.J q ",
"7.e.%./ s w + + # o c b._.H.=.L K ; d J _ %.%.I.< T Q.*XX i.c X + t A n B +.d.e.B k.D + s % % % ) z }.) + % < X + ) *.] X % =X> Z @ ^ 8.a | S 4 -.d F p.#.> + @Xw.X >.$X5 *.w ",
"e.H.w.*...D o   # X 2 ] Z.Q.n.T q + D J Q k.k.w.n.w.Q *.@ w.5.+ + d Z B G =.7.=.=.7.F + 2 + o E r.Q.Q.W b.b.i.!.a.W X Y @ + 3.>.+ t +.G d G ! @.8._ =.=...%.5 B.C W (.%Xz {.2 ",
"w.3.z q @ 2 + * o o 2 D w.^.}.D @ C 6 D n.+.s =.F #.K.D   A.%X< : B S n S ` @.` 1.x.L + + # Y a.!.2 Y 6.% $ s !.@ s.X o.X X % D , ^ 8.S n n 8.8.7.k.e.B C T.D > ~ Z.F.Q.s }.+ ",
"3 q C ..l 0 + X o @ o % ) w.#X_.+ u C >.D @ B > q $X_.s % s.%X*.; G ( n 9 B | q._ }.p o + 0 A.t.5 o X $ x o.X.O.a.5.R w.$ o + @ A _ &.3 @.@.7.d.k.=.e.~ o e.3.o 9.H.7._.z Q.+ ",
"+.L D v c 0 X 2 2 + o + D b.6. Xz x K.u o X s @ =._.p.Z.o K.6._.: G ` V 9 : @.8.+.'.q o % A.E # % X + Y X.a.i.& r b &Xe i.e 0 q D _ Q t 9.-.d.d.+.x.V : @ T >.s ` x.+.d.%.%.3 ",
"s < 2 7 s j w Y w o o + l C / }.A.>.u @ 6 h @ ] < r.r. X0 w.X..X1 a -.-.; n 8.=.q.Q.X o E A.r     2 l w.X.+ + X   = 0 Y Y !.+ < 3 ~ 3 e.! ^ M.1.8.&.A d @ =.7._ =.e.&.G d.d t ",
"% o + @ 2 s l D 0 % % o % + ) !.}.D o h @ Q .._.*.q #Xr.) 6.C .X^ 4 ! -.a V ` d =.H.@ < >.l X # + o.X.+   #   X X X X o e 4.+ % B Q ; 7.G =.S G 7.S V d o 0.~ Q 7.j.| 1 d.4 G ",
"+ o + % + % 7 % + % + o o X E U. X6 q J ; %.E.0.3.L Q K.C ..o *.e.B n | ` 4 9 : e.e.+ @ 5.X X + l X.%   o X &   X o o X X e o C s u _ ! K +.V e.-.&.=.d @ `.~ K 8.l.U 9 ! y ` ",
"o o + % + @ * o @ + + P 0 o l 3.z.Q ~ h B 0.L.=.|.w.@ b...D E c._ ` ! d.I ; t d h.} X t ) X + o P o # o o O . O   o X & X * o l J 6 0.Z t ; ! G ` 7.&.: t `.K Q 9.| I G ! 1 ! ",
"+ + + % @ + 2 @ @ * 0 X.j % 0 e *.7._ Z ~ d.v.n.n.e.@ ..c.j 6.@ D =.7.m.; t F a +.} > 3.q o % l 0 & o o   X -   O   & X - X + % q + { 3 4 B S =.d.v.` 4 %.S.^ +._ Z 3 _.B ^ 8 ",
"# 7 + * 7 + % * o % l P % + #   Q.k.^ ^ =.x.j.7.J.=.s Q @ U.o o +.7.x.^ ; ! G 4 +.^ 2 w.2 2 2 D e   # # O =   O   X   X o o 7 w > t ,.6 3 B 3 ~.d.d.B 3 7.Q F t Y + +.w.b.d B ",
"% w @ q s + @ < s @ C D 2 X % + x.x.-.` l.7.j.C.C.9 k.k 3.2 o @ p.0.I.+ B ! B S ( F p ..2 o < W l 7 @ X X X X - o o X o * o 7 % + + @ > @ ; [ S.e.e.B d k.d [ + s % *.~ 3.d , ",
"9 d d 3 3 q @ : d , w.T @ T ~ o c.P.d.h.7.e.e.d.=.` =...o w % o o Z.=.V d B G &.V S a ~ t + z / w 7 w o o #   o X & X & X o 2 2 # X + # + 2 u B q ^.3 z.^ t ~ + B D < q o / q ",
"t B n 3 t d ; ; d B 7.F F B t ; 9.~.x.` k.q.7.7.! -.z t d > + @ z e.x.+ I ( ` -.m V n B 3 + F ..8 v D o % + * r + + # + % % % w + + 0 # o # t.w.s Z.3 e.d ; d 3 ; ~ *.w...l o ",
"y V V 4 d Z 1 @ B F %.Q +.> @ h r.~.n.F 0.=.7._ =.7.B J B 2 @ + H.b.=.+ d | =._ y a S a 3 + _ *.k C s % o.X # 2 % + 2 o z u @ l $ $ e # o + }.w.D p.d B.: @ p d @ =.k.k.n.q + ",
"y G G t M K 3 + F Q [ =.Q + t +.p.L.p.Q Q _ %.F 0.T t 3.2 5 + C b.z.D 3 _ 8.-.=.m 3 G t d + +.+.+ ) s + *.0 v # % % % @ W k @ B s + * o o g @Xx / >.D [.@ > Q t d q.1.=.x.V A ",
"t ^ _ d M G 3 @ B ,.%.y.J @ A y.p.H.Q F t F B +.k._ t 3.5 + 5 p.~ p.e.3 1.( + 3 G ; S 3 B o _ ~ d =.q B 3.o 2 C % w o s Q s > B R o o o + t.%Xs W / x  X+ @ %.@ G 8.1.j.l.| -.",
"t ^ ` d n S 3 ; t V.=.e.+.; F z.w.z.> 3 2 d t e.~ / ~ / 2 5 4.R , F.+.*.I 3 | @ _ @ F 8 A o _ ~ d S.B F ) , q 2 u q o F Q p t A ..+ + o + K. XY C C d (.@ + ..+ I &.j.P.-.! 1.",
"t ! _ d n V 3 ; d x.:.9.=.@ =.y.B.Y + + % 3 ] p.s + ~ q % o.5.5 H.e.S.+.3 =.~ F F @ } k D + _ Q a &.1 _ 7.t q B _ @ @ F L d N F Y @ $ % 2 Q.[.] u x F I.s + s @ S | e.=.B B -.",
"y G ! d n V 3 : ^ :.9.y.%.+ I.e.[.o @ @ + @ I.>.F.+ Q % C p.X C T.e.A o 9._ _ 3.t @ =.F A @ ~ A B d.B ! ( ; p L e.+ 3 S I B G I 2 o $ w J Q.}...% l ..K._ @ o 3 d ~ =.3 3 F 7.",
"4 V ` ; , n M 3 t `.:.:.:.3 (.J b.0 o + o > *X3.q > % Q ) @ + ~ b.k.k @ _ x.T z > @ ..Q =.+ Q I ^ d y ; =.B t ~ +.: t d ( m ( ^ q @ T 6 B Z. Xw.@ q r.T _ > > z q s , % > F t ",
"; n ` o d 8.; ; i y.+.k.=.t k.t W A.o + u e.XX) 6 X T ..o q @ t #Xe.o d k.h F , > ~ T ..w.3 A 7.7.( a F n.B d ~ _ @ 1 Z ! a U | d 2 =.3 z w._.p.o , n.3 s q B z s s e o @ 2 + ",
"y @.G 1 ^ 1 B d Z K ^ n.=.F _ , s z w.z #.3.Q.t X F L.> d > @ ..w.r.T n.D q @ u t w.d _ b.d k n.! y 4 S k.S t [ =.@ @ V G n ` +.q + 3.@ q ..F.y.% @ F.q > d ..) l 0 c o e * w ",
"V ` _ ` @ d n =.~ t ~ :.=.^ d 3 w @ 5 l < w.d d : J.Q ; F + + F.=.Q ~ ~ q 3 o 6 ....3 D k.D A C.| -.a 7.k.: M J =.; 3 d B y ` +.k > =.2 + D *...D + =.=., t ~ w.x 5 D + w + 2 ",
"y 4 =.; d _ ` i ~ t _ C 7._ @ > @ 2 2 + t x ^ k Y.+.o F 8 ; <.e.F +.t @ + @ o o B.q + D *...Q v.^ S G e.7.t : ,.~ + i d n + G &.; 3 3.=.3 +._ _ +.@ s _.6 , s p.z 2 g $ $ + 2 ",
"S 3 ` + F 8.; @ Q B =.B e._ + @ o < v d z B ^ _ k.B 3 d B +.S.~ F k X , % D o z Z.2 + Y D e.Q m.e.8.I ].n.@ @ Q _ + > M ~ ; n _ t d Z =.o 3.y.Q.9.B t *Xd q 3 p.C 2 u w > 6 d ",
"! G G d 7.1 t + Q Z :._ r.~ @ + @ < o o ~ Z 3 +.@ =.B 4 _ J.F G Z + t t q   w A.o.v < s B 0.Q L.=.G _ /.G.%.+ d *.B , h S B B ` 3 B z S.d z...F e.) ~ #XD u < w.~ 6 t q @ @ 8 ",
"d y &.8.n _ t 3 G B +.=.+.J @ @ + @ < J ~ @ =.3 B =._ d S.7.A Q o ^ 3 , o w 4.X w ] h + Q +.I I.8.e.8.+X+X`.C > ) 9.F h ; V S -.~ A @ e.B n...6 r.T >.I.D > + 3.Q ; q 3 @ ; z ",
"G ! -.n G G y ! G y =.: =.=.> o 3 3 3 Q 3 t Z @ r.9.@ D Q.T D t q q @ s ] s.x X z + v y.3 d _ S.7.F.Z.H.I.I.p.2 Q q e.Q _ ; S +.3 t p x.r.9.p.+ J Q Z.2 ) < X ..Q d 3 @ > + q ",
"G ` { S G S V @.G d +.D 3 > q w 3 3 Z Q + Z , > z.3.@ Q y.F w q > q p.9...w 5 w v + F _.> n N m.x.I.x.b.n.F.Z.D w.t o Z 7.d _ A A ; d ~ t p.n._ F 3.) 6 ) 2 + C ^ d 3 + @ + 2 ",
"G d.$.G V ! -.l.^ M ~ k.t o s % @ + s q o d > z *.w.o Q.x q 3 > w.s.W D o 2 g g R o q ..@ d ! d.C.L.k.e.e.n.I...=.h + A D ~ ! V ^ @ 3 <._ ; B 3., 3.@ X ] l C > +.A t @ @ + % ",
"8.e.! ^ @.d.d.f.` C d w.Y % w % + X % @ d + s ~ e...F.+.+ 3 Q p.r.T % + @ l l >.) 2 o o @ d =.q.v.C.d.e.9.k.L...D C d F 3 ^ ( ( d d o +.e.+.@ + s D + o Z.x v + %.F s , , @ @ ",
"e.=.{ ,.{ { _ x.` J > @ s @ 0 o.@ > x t D + l ..n._ I.q d %.x.9.z 2 o > @ t.o Z.C *.o @ @ d +.k.l.v.d.l.8.k.S./ J D @ F F Z 7.! d t ; 7.z k.X @ , u v @ Q.p.D X +.Q d t 3 , @ ",
"0.e.9.J , B +.n.+.Q @   C 5 % E $ g R 2 o 2 v r.3.x.B ^ S.%.( _ ..6 o o ] w w Q.C *.+ + z 3 Q h.l.f.2.d.-.7.v.F Q D ~ B B B %._ ^ t : t @ 7.%.o B T w.) ^.}.~ 3 ^ I d d 3 q % ",
"e.=.h @ , ^ x.9.=.z @ @ o.c 0 # + s w o X s =.z.L.t L.W.( N x.7.D 2 @ 3.*.X s *X/ x %   T q T ^ j.2.&.8.| =.k.B D s F.W B Z T 7.Q + + t T o b.=.Q.=.p.n.^.=.Q =.~ Q d z q s q ",
"Z i @ i J i k.x.=., o w H g c o o 0 X + l x T.w._ =.e.=.%.D.l.+.t u Z.~ 3 ..B Z.~ s w @ h _ z t j.;.&.8. .=.k.B Z ; ..r.e.Q ..0...z @ @ Z d ..z.=.^ ..t ~ q e.7.~ ~ B B t B d ",
"+ @ M J { K 9.k.=.o + w s H w X + # + o h B.b.~ e.3.9.~.J.D.v.d 3 3.) s C , s $X6 D t + B b.+ d j.;.` &.` =.e.s : F X + s p.) 9.w.Q z @ 3 Q d Z 8 t n.u.N T =.k._ ^ t 9.< @ d ",
", 6 K :.%.F x.n._ X z + + 5 $ o   $ * z _.3.F w.~ =.=.k.S.h.V A }.D + q > o ~ -XC D @ @ x F.2 s 1.f.` ' ! | <., + *.+ + + @ J Z.S.+.s D > t B t Z d 9.0.Q _ =.v.k.t F +.+ + > ",
"i F [ B.-.V S.S.+.+ 2 W H   o + l + 4.Q.> =.$Xt s o r.F 9.S 1 k.+ + q > + Q I.F.~ T @ @ 6 N.s + ` q.! G F ~ =.@ , +.o + + Q t q }.=.r.Q + @ A F B k 8.x.7.%.=.D.D.a B +.+ , + ",
"Z 0.{ S.8.M k.D.V t q ..s + % o w ..K.+.~ /  X~ z F o w.Q d S.~ , t D T F t _ x.z z > o + 4.R o I ( d A d F r.@ T ) + q + > Z.3 @ z.*.+.A 3 + 9.F F 1.k.x.e.7.S.m.| t I A 3 @ ",
"_ ).` v.x.S -.D.G 3 ..F + v @ R ~ u o @ o z.}.+ Q + 6 z + k.p.q +.3.D @ s d %.e._ x 2 X < l Y X Q t ; B , u >.@ C D + % t > d n.@ B k.3.Q B + %.e.=.| =.m.P.v.l.C.&.d d _ 3 q ",
",.#X_ g.S.@.` m._ ; ^ Z d B u *.t 3 F s.K.T D t _.s Q 3 ..z.b.J s q + o d Q k.%.p.C @ o x o c $ ~ @ @ z @ < ) < o.2 % C Q , ~ 3 *.d ^ r.Z F 3 B x.x.e.e.D./.D.j.P.@.n ( t Q z ",
"g.#X! d.S.f.` 8.n S Q Q J T J < d F 7.`.T A u t .X_ o Q r.*.Q 6 d t < @ Q %.k.q T s + + ) o E R z + > w @ $ l g 4.+ b.o +.d _ , o n.X 7.r...: a =.x.D.J.D.C.m.j.m.q.t ! 3 ~ ^ ",
"l.oXG f.M.v.` ` ` _ 7.S.+...6 B ~ T T =.d > @ r., + z *.T z z z C s + > z.e.w.; > D , 2 ~ o Y Y + o % + + $ * H 2 # D 2 2 ..t T t F (.t 0.=.p d _ 7.k.v.j.f.l.q.8.x.t o Q + =.",
"k.S.` &.8.`.I ^ e.P.`.D.1 ! g.k.>.@ @ 5 + X q T + t %.h @ Q _ t  XZ.) K._._.~ s T T h @ l r.t v o o o o o o o * w w + 3.X *.b.B B 3 0.0.C e.[ t d e.` 1.j.f.8.2.7.I.@ + Q B t ",
"d.,.k.G 8.D.-.7.v.oXv.! &.Y.x._ w o X + o w ) + 2 F d t +.~ d 0.w.Z.>...}.Z...~ +.*.7.+ +.b.t 3 o o o o + o o & X *.o ..<.2 / =.F B A I.M ~ 7.d 6 B 7.G 8. .@.G Q #XB @ z x +.",
"q.^ Y.^ 7.v.v.m.`.7.7.S.~.e.^ d @ $ o 2 2 + u F i t 6 _ e._ +.I.F.*.3 J *.z.@ @ +.+ Q @ Z =.p + o o o + # o o # o 3.% v .X7 F n.=.+.t L.^ d 9.>.3 + e.n S -.! N z ^.F @ 3 F _ ",
"e.^ D.v.8.m.S.P.m.x.D.Y.m.G 1 ; + g s 6 H 9.7.%.; 3 ~ k.+.! d.-.) + 2 o s > X + ) + _ Q @ d A s o o + # # o o 0 % e *.7 s.W / k.7.-.+.-.I.K ~ B.B 3 Z V.n V n 1 t d x s @ F 3 ",
"x.` d.`.x.m.P.P.Y.m.Y.S.V V S ; >.u z.n.>.S.=.t + { 7.-.` S V 3 o s > + 6 @ @ d 3.=.*.F 3 Z ~ 6 + # * 5 * o % C % + .XW t +._ e.0.7.e.+.#X0.B ....o h +X> t o +.q o ..z.3 C d ",
"v.` -.P.P.x.~.Y.D./.8.=.7.S t e.%.h _.k.=.S.+.1 d e.7.` &.G ; + @ q X 3 s o t + t @ @ : t F 7.> + & w s 2 o % / o , I.p.d 3.L =.n.k.-.7.I.S._ s e.o D _.*.F.6 t @ + D b.+ @ d ",
"k.+.-.v.P.S.P.Y.v.S.v.7.8.+.-.n.~.Q B.9.k.! ; B =.=.7.-.@.! 4 @ B 6 C B.> q q d %.F _ =.d A =.t o 5 D R s o < ..X 8 u u.=.p.3 d 0.m.,.e.=.T.=.Q Q T ~ h X ; J ; B z D e.2 d z ",
"7.=.e.v.S.`.x.Y.~.v.S.e.m.-.m.P.0.%.+Xk.+.t G 7.e.-.f.-.@.G : 1 Q + #XD d @ X > @ t + 3 3 x._ d + s ..*.D @ 3 *.< z o k.n.H.@ 3 d k.n.8.$.(.~ e.] @ T.s 6 z.s s z u z ) > C + ",
"-._ 7.D.M.x.S.v.v.m.Y.S.8.x.k./.$.I.|.` 1 V +.8.j.q.7.&.` ! + ^ > 3.z.F z @ 3 d t ^ / Q N k.+.B + d =.w...@ J Q Q d + c.7.I.t ; ; _ 8.e.n.z.=.+.z.i C t + ) s.b., ~ @ @ t s q ",
"! _ d.m.d.8.d.d.v.J.v.7.v.-.Y.d.-.J.e.3 d =.&.-.l.@.j.8.+.4 | ! + Z.*.Q Q B : s d L Z _ a /.e.! + _ *.z.b.+ Q ~ Q t < +.7.n.~.X , B e.m.k.k.9.e.x.%.C @ > D ] B.F Q v + B q 3 ",
"S &.d.e.+._ =.8.m.v.8.x.j./.x.d.S.! d B ! &.7.e.e.7.d._ ^ n M.1 A `._ ^ z d Z 0.} +.=.k.B ].-.y @ Q z.9.|.t ! e.Z S ; 8.F +.#X{ o @ ,.x.7.e.d.e.z.k.~ > 6 @ o 6 3.T C o 6 #.t ",
"-.8.-._ I ! &.x.P.7.m.m./.P.8.d.d.S G _ ! 8.m.7.d.8.=.K d `.1 3 (.B.Q =._ d t ; @ < Q _ ^ |.d.F ; $.8.k.v.B Z ,.t %.t S.S Z d.`.i > d 7.k.e.e.7.d.0.+.F F 3 @ X 6 w.Q 2 o > 3.",
"x.-.G S G _ 7.D.S.S.x.P.Y.&.7.+.@.7.=.&.7.e.g.k.x.=.+.J D._ ; i #Xn.=.3.Q N 3 t Q Q 7.A x./.d.S 3 d.@.e.D.3 Y.=.t ! k.k.7.! B 7.I.%.3 9.`.d.e.d.m.e.` G &.Z i + + d I.q @ o T ",
"&.B t B ! &.d.D.v.~.v.S.-.e.=.=.d.8.,.k.g.7.d.x.7.k.Z L.e.t 3 B _.b.~ <.k.'.F B Z ~ =.d Y.P.7.3 S 8.8.7.M.B XX8.B 3 /.g.-.+.y M w.B.*.x.^.d.k.v.Y.v.&.V 8.^ f ; @ @ e.=.C @ , ",
"t ; t G ` 8.m.S.P.x.`.-.d.x.d.d.k.n.x.g.-.k.I.=.e.! =.x._ =.+ ^ _.H.=.+._ u.| +.V 7.h.e.W.D.1.: @.d.@.v.S -.&.-.` : S.S.+.=.B t ; ] B.n.d.8.q.j.m.-.8.! l.8._ S : o 9.(.s Q o ",
"@ ; V &.=.x.~.P.Y.Y.d.m.v.x.x.e.k.I.d.k.D.e.9.k.9._ @ n.e.e.t 7.`.0.0.k.e.=.k.Q d h.x.W.8.h.-.t @.-.-.-.8.` v.8.&.V m.x.e.e.! + 6 + =.k.7.-.` l.S.S f.@.@.7.k._ t ; B I.Q =.^ ",
"1 t V @.v.D.D.~.S.7.m./.x.f.M.k.x.x.k.k.k.k.k.e.7.^ ; =.k.x.V 7.Y.x.k.g.8.e.8._ B D.e.k.B V t G ` 1.q.! -.-.v.-.8.S J.2.! 8.! @ 3 t 4 1.-.7.! -.-.` -.x.^ -.`.=.K y B -.e.` _ ",
"y G ` f.P.~.Y.D.e.d.m.m.x.x.v.x.y.k.z.z.z.k.e.7.V F d x.d.+.4 7.`.v.e.e.8.7.-._ =.8.V -.=.B V 3 ! v.&.G &.@.` e.8.V ` 1.V J.! n : a n -.-.-.! ` 7.^ v.k.=._ ~.e.7.^ S +.7.7.-.",
"+.8.e.P./.S.m.8.=.v.m.d.v.D.S.S.y.k.n.x.z.k.9.:.^ _ F S.e.! y m./.v.x.S.m.d.=._ _ ! S l.v.-.&.n ! 8.d.: =.^ y d.-.@.8.N 8.` S.; ; y V ` -.@.I G ` _ D.e.{ &.S.k.x.8.+._ =.k.x.",
"P.S.k.P.m.=.8.7.=.x.v.d.v.Y.~.~.B.S.S.x.k.e.e.9.=.` G x.&.d 4 v./.S.k.d.e.8.e.e.y y 7.P.-.v.d 3 G 8.8.V n v.+ l.! 8.-.V ` G S.G 4 4 n G -.! G S V 7.m.e.B S.k.x.k.x.e.&.&.d.m.",
"Y.D.k.e.+._ k.v.8.7.d.x.x.S.~.^.I.~.T.S.z.k.k.y.9.7.7.^.e.B y x.d.m.m.x.x.x.x.x.B B k.Y.k.Y.S n V 8.q.@.n m.y -.v.` -.! ; ! a v.V 4 a S -.G G G ! v.l.e.Q ].0.S.k.v.v.d.7.7.d.",
"8.v.P.e._ 7.v.d.8.` &.d.e.e.m.I.I.(.`.^.F.n.k.k.8.&.` v.7.G t ^ d &.x.C.P.m.-.^ n S =.k.D.8.=.+.a -.f.( | G f.S /.-.l.! y n 4 &.` n m V &.G S ! 8.v.k.-.g.P.=.D.k.e.d.x.x.d.d.",
"=.8.).S.-.k.e.7.7.` ^ -.e.=.7.D.S.^.[.`.I.S.x.k.V.7._ e.d.-.! ! 3 n S _ 7.-.G d ^ k.x.x./.8.-.7.4 @.@.-.G N q.V d.l.@.j.! G ( S ` S n S ` G G _ d.v.x.` I.g.=.G.d.8.8.v.S.m.v."
};
