/* XPM */
static char *_7347_808ddc8a5dd77854c8ab8bdcb3f6587acca0a8bf6bed6d07329d9df6b2af81c6[] = {
/* columns rows colors chars-per-pixel */
"64 64 154 2 ",
"   c #001600",
".  c #0D1701",
"X  c #041D00",
"o  c #0C1D03",
"O  c #0E1609",
"+  c #0E1D09",
"@  c #121603",
"#  c #111E05",
"$  c #12150A",
"%  c #121E0A",
"&  c #1B1B0C",
"*  c #151D10",
"=  c #1B1E13",
"-  c #042400",
";  c #0B2303",
":  c #052A00",
">  c #0C2B03",
",  c #0E2309",
"<  c #0D2C09",
"1  c #122205",
"2  c #112B05",
"3  c #182C06",
"4  c #12240A",
"5  c #19240C",
"6  c #132C0B",
"7  c #1A2C0C",
"8  c #063201",
"9  c #0C3203",
"0  c #073900",
"q  c #0C3A03",
"w  c #073008",
"e  c #0E330A",
"r  c #0E3B0B",
"t  c #123305",
"y  c #123A06",
"u  c #13340B",
"i  c #19330E",
"p  c #143A0C",
"a  c #193C0E",
"s  c #162311",
"d  c #1A2413",
"f  c #152D11",
"g  c #1A2D12",
"h  c #1C2F19",
"j  c #0F3110",
"k  c #0F3810",
"l  c #153211",
"z  c #1B3413",
"x  c #153C12",
"c  c #1B3C13",
"v  c #1E3519",
"b  c #1E3C1A",
"n  c #202E14",
"m  c #202F18",
"M  c #243117",
"N  c #213C17",
"B  c #223419",
"V  c #28361F",
"C  c #223D1A",
"Z  c #263D20",
"A  c #2B3F23",
"S  c #0F4104",
"D  c #104004",
"F  c #15420B",
"G  c #1A430D",
"H  c #154C0B",
"J  c #1A4A0E",
"K  c #1A510E",
"L  c #0D4113",
"P  c #164413",
"I  c #1C4313",
"U  c #1C4B14",
"Y  c #174018",
"T  c #1D441A",
"R  c #174918",
"E  c #1E4B1B",
"W  c #1E5214",
"Q  c #1D5914",
"!  c #1F521A",
"~  c #1E5A1A",
"^  c #214416",
"/  c #214C16",
"(  c #23441B",
")  c #29461E",
"_  c #244C1B",
"`  c #284B1F",
"'  c #225216",
"]  c #215B16",
"[  c #24531B",
"{  c #29541E",
"}  c #245B1C",
"|  c #295E1E",
" . c #1F6215",
".. c #206016",
"X. c #25621C",
"o. c #29631F",
"O. c #276A1D",
"+. c #1F5420",
"@. c #1F5823",
"#. c #264421",
"$. c #294422",
"%. c #254C21",
"&. c #2B4D22",
"*. c #2D4928",
"=. c #304E26",
"-. c #35492E",
";. c #255222",
":. c #2B5323",
">. c #255A24",
",. c #2C5B23",
"<. c #2D562A",
"1. c #2C5A2A",
"2. c #315527",
"3. c #315C27",
"4. c #325529",
"5. c #335C2B",
"6. c #385B2E",
"7. c #3B4F33",
"8. c #375D33",
"9. c #276321",
"0. c #2D6324",
"q. c #2C6B23",
"w. c #2E632A",
"e. c #2D6828",
"r. c #316326",
"t. c #316A25",
"y. c #33642B",
"u. c #346A2B",
"i. c #396C2E",
"p. c #2E7028",
"a. c #33742B",
"s. c #3A742F",
"d. c #36792C",
"f. c #3B7B2F",
"g. c #356331",
"h. c #3C6333",
"j. c #3C6C35",
"k. c #3D663A",
"l. c #3B7334",
"z. c #377931",
"x. c #3D7B34",
"c. c #406134",
"v. c #406D34",
"b. c #416D39",
"n. c #486E3D",
"m. c #417A36",
"M. c #45753B",
"N. c #407D38",
"B. c #497B3E",
"V. c #3F8336",
"C. c #44843D",
"Z. c #4B803D",
"A. c #488C3F",
"S. c #4C8244",
/* pixels */
"% s d , X 6 b z <.i - i i ; X 4 = = % o ; 2 a / ' { / { G ) a N 2 t i c ^ %.&.4.I e : > > ; ; - ; # # 5 M Z m 6 X < > ; ; @ @ & ",
"$ o o o ; z ) ) ) t u > c < 6 o % $ % % ; t G / / ' / { ^ ^ a i 6 6 6 2 u i c T ( c a u 9 > > > 2 2 o X % B Z -.2 t - - ; o @ & ",
"4 ; X , 6 t a I e G : 2 X C < X O % + o ; > 9 F / ' J { I / e > i 6 ; - ; - ; > c ( _ ( I p e > > ; o o # 4 l b $.I 9 > 2 1 1 5 ",
"< ; - < t : - 9 I I &.: ^ c &.7 5 % , - - - q y ' { ' | / / > - ; 4 ; o X - ; - > u ( &.:.) T t : : ; 1 ; ; - - I / a : ; ; o @ ",
"- > : > 9 : - q _ :.p T > ) x N 4 s ; - - 9 G U ' r.| 3.' _ 0 - ; # # # o ; ; ; X : u T <.8.5.:.G y - - - ; : > : :.,.G t u 2 X ",
"t I p 9 p q 9 _ / p x - < X 7 < z l < - - : r U ' r.3.u.[ [ q 9 o # % % 1 + o ; X - : 9 E g.b.j.i.' q 9 8 - - - 8 ,.M.,._ _ N 7 ",
"a { I t I I t T ( ) 6 u X < ; 6 #.b l : - : : q / r.r.y.' [ J p ; % % % % # o o ; : - : e ;.j.j.m.t.] _ I > : : q [ ,.' U I u > ",
"- c p e ( ^ > t N C C ; - , , ; #.( c e 9 8 r G G | ,.y.W >.U I 1 5 # # # o 4 ; ; < : - : U >.0.C.a.r.0.{ I I E ,.>.W U ! G > 9 ",
"> > > < < 7 v C B 6 4 4 4 o o , u T :.&.%.%.%._ P [ 3.;.! U J q 3 1 o # 1 # 4 4 1 - - > 8 0 U e.C.x.x.y.b.8.h.<.U :.} U U P u r ",
"> > ; ; - ; 4 6 h g s 4 4 4 , ; c %.4.&.c t e 9 e c _ E { } U y 2 1 1 1 4 4 o X 4 ; < e r r [ e.A.V.C.w.h.<.4.) I [ _ U U P e : ",
"z t ; ; X o ; 4 4 g g + , , , X i U ` T e : - - ; > t I _ 1.' y 9 ; ; ; 6 5 4 4 , ; > : 9 r ' u.V.d.u.[ _ c c 6 < y t r T ( x x ",
"$.c 6 ; ; ; 4 4 o g g 4 ; ; ; ; e 9 a t ; ; , , ; - - e I :.{ G y > - - < i N Z z i < : : 8 P } q.O.] P t ; ; X - ; - : e x ^ *.",
"8.&.c > ; ; - - ; 2 i c e : > y G t > - ; ; ; , ; ; ; ; t ^ [ { / F q 9 t i N C $.) C c 9 9 p J  . .W r > ; # o 4 6 - X - : z $.",
"h.5.` G t > > ; ; > y G y 8 q U / t : o o + % % % % o X ; t _ 3.o.] [ _ I t t 6 6 z C ^ ^ I / J Q Q J p o 4 % 5 # 6 ; ; - X , v ",
"' [ { _ / I p u y y F J K K Q ] G t - ; ; % % & $ % 1 ; ; > ^ | r.t.t.r.' e : ; X - 6 u c I _ { Q } J x X % $ d . % , , , X + h ",
": q G _ { _ _ / _ { { { t.m.f.0.p t ; ; 1 o o % % % 4 1 ; ; a _ o.t.s.i.{ u > < ; ; ; - > t ^ _ 0.r.U T X % o % 4 5 o + f , + j ",
"< > - : i ^ ) I _ [ ' ' u.B.B.i.{ ` ^ 6 ; ; o , o h X X > p :.I 3.g.b.h.2.i > ; ; X ; ; ; - < c :.>.:.( x f , X o + , , X o ; < ",
"< ; ; ; 6 b ( I c F y q / r.i.r._ ( z 6 6 6 6 ; X ; o 6 > - T :.) &.<.4.=.( N i ; o - ; , ; 7 b _ _ _ T b c z z < , X X , 6 6 , ",
"o ; , ; ; 6 c C i > : : t G U / a u < > 6 z g o 4 6 X > < : a I e t e i ( ( N i 2 ; - ; X - 6 ( _ T x p l e l f z < o , 6 6 , ; ",
"o o 4 o ; 4 l B 6 > - > 9 9 9 t 2 > X - , 6 , o z v < X ; p p : : - - ; 2 i i 6 i 2 ; ; - - l ^ %.I p e : - ; , h h v z f , ; ; ",
"4 4 4 + , 4 g v i ; - > > - - 6 < > ; X - ; ; ; 6 N $.u > e 9 : : : - - ; < 2 7 i i 2 ; - > u b T x e e < < , 6 4 g B B v z , ; ",
"% % + ; o o 7 v C 2 ; X ; ; 6 c 6 6 2 < ; ; 6 l i 6 ) ) ^ p - : ; ; ; ; - ; 2 6 i i i t > 9 x T T p e e 6 < , 6 X X ; v $.Z i ; ",
"+ , 4 , X X < ) $.b > ; ; < u z 6 6 6 6 6 < 7 z C 6 c N ` ) : - X ; ; - o X ; ; 2 i i i u p T T T u > < < X X , o . X 4 N C i ; ",
"6 i z i > - x &.` I t > > > < ; ; ; , 6 f 6 6 z C C &.t 9 T 9 e ; X ; ; ; ; - ; ; 2 c c c I I T T 6 - ; ; ; o 4 4 4 4 4 4 ; ; ; ",
"t p a _ p { [ 3.3.{ / a 9 > < - ; , , , ; X ; < 6 p i p p p I ) z < ; , < , < 6 ; > t c ^ T p p l 6 , ; ; ; + , + + # ; 4 6 4 ; ",
"e : G q [ [ | ,.| { 3.3.&.c t X o o + ; ; o - - - > p I ^ c b ) #.v z f 6 ; X o ; ; 2 t t t 9 > < 6 < ; + o , + 4 4 ; o o ; 2 ; ",
"8 F 8 H | H t.K J q D / / ^ ^ z 4 s , o ; ; ; - - : c _ _ t : > 6 z #.b 6 ; ; ; 2 i b i 6 t e < < , ; + , % + + + % 4 o ; 1 6 2 ",
"8 y q } ' X.W K H 0 0 y > - < f v d % o ; ; > > : p ^ I p 9 - X X ; l c z 6 ; 2 ; i a u < t < - ; ; ; o % 4 4 % X % 1 # 1 1 2 2 ",
"9 : ,.} J v.S ] 0 q I _ t X X o d s * , , , - - - c ( p t p e - : - X - c ( i ; 2 7 i 6 u l 6 - ; o + + % 4 % % % 5 1 o o ; ; ; ",
"9 I _ [ ,.D W S 8 y &.2.z 4 s s O * s f z 6 < : : I / t > G I > : : - - ; u N C i 6 6 6 z c z h , ; + o % % * % s 4 # o ; 7 z i ",
"c 4.u / { - [ : / :.6.$.4 + % O * s s d g z z c p _ _ I G I T I < p I 9 ; ; N $.6 ; X ; , ; < z 6 4 , + % % % % % + # 1 n V C N ",
"#.< N u > :.: U G &.=.Z 4 s h $ * O + o , f ( :._ { :.3.:.&.&.6.:._ c t t u 2 X z 6 - ; ; - i $.6 4 ; o # ; % + o # 5 7 N N 7 # ",
"4 ; o ; ; > e e ( T i i v h 4 o O * + 4   < t :.h.:./ :.2.:._ &.x ^ ) N 6 X ; ; z ( z < 9 : : P p 2 ; ; ; ; ; 4 ; 5 h M g 5 # # ",
"% % , ; ; 6 t i a t < > 6 6 , + , s + 5 X ; - e :.:.:._ I p T &.b l < < 6 < ; ; < z b I I q S E G t > : : > > 2 2 6 g 5 5 # # # ",
"% + , , 6 < t i < > ; ; ; 6 6 6 O 4 o g ; ; - - _ &._ p - - < a i i u < ; ; ; ; X > ^ <.E U ! >.{ J y 9 : : : : 7 l f 4 o o # 5 ",
"+ 4 % 4 ; ; ; - > > > < ; ; , 4 + + 1 6 < - - - _ ( a > - - - - : 6 c z 7 < ; ; X > ( ,.U } e.u.B.j.3.} %.T T #.b b z < ; o ; 1 ",
"+ + % ; o ; o - ; > < ; ; ; X X 4 4 f 6 < - > t N c t - - 6 ; X - X - 6 C #.z 6 t t _ ;.R @.l.x.S.M.j.y.g.1.<.<.T Y z j > ; - : ",
"+ % , + , ; ; ; o ; 6 7 6 6 6 4 ; - 6 < 6 > u b > 2 2 < - ; ; ; ; ; X ; 7 z z i c I _ ' K 9.x.C.l.r.~ E R L k k k l k j < < - - ",
"% , 4 + , , , ; ; ; < 7 l z z z > ; i 6 ^ u b b < 6 6 6 ; X o , ; < 6 , X X ; e t I E W X.q.z.C.l.,.U r 8 : - - < < < j j < < , ",
"4 4 4 , ; o o ; ; - ; < 7 z z z b i ^ c $.i u ; ) v i z 6 o o , , ; ; ; 6 < ; X ; I P W e.a.a.V.0._ r 8 - - - : X - , j l j j j ",
"f 6 4 6 ; ; o ; ; ; < i 6 &.u i > - - > < 2 6 < f f f 6 , + + ; , ; ,   -., o ; > 9 q W 0.p.p.q.! I 9 : - ; > ; , , o o < l z i ",
"g 6 < 6 4 ; , ; ; - 6 6 N ( c t 9 : : > > 2 6 ; 6 s 4 4 , o + ; ; - 4 ; 7.g ; ; : > q U } 9.X.} :.I t ; - ; ; o + , ; o ; 7 i 6 ",
"b i 2 < ; - X - ; > 7 t &.I ^ > t 9 > ; < 6 , ; , 4 4 , 4 4 , , , , f , -.6 ; ; > < a I ! ] ~ ~ _ a ; - ; 1 1 # + # # o ; 2 6 6 ",
"c u e 2 6 6 < 6 i b l ^ 4.^ _ 9 p < > - ; , 4 4 4 , 4 s f g g 7 b f f X v o 1 , 2 < a P ! ! ! ! ^ a ; ; ; 1 1 # % 4 4 # o 1 6 6 ",
"t 9 9 u c ^ C ^ ^ &.c 5.3.:.,.U p e ; ; ; 4 , 4 4 % 4 f f z l 7 v f < X 4 . o 4 o ; 6 x E _ E U &.) c 2 1 1 o # @ 4 4 o o ; < 6 ",
"9 9 9 p I c z z a ^ t :./ [ ' :.c i < - o ; , 4 4 + + , 6 7 6 2 < , , ; , o 4 o ; ; < c _ ;.E P I x c 6 ; ; # # # % 1 o o ; < e ",
"q 0 9 p c p > : < : e 0 q F F [ _ N u ; ; + % + + + o , 4 < > - - ; f h , 4 4 o 4 , 6 v #.#.P e : : - ; ; 4 4 4 1 1 ; X - < e < ",
"9 > 9 I _ T i < < X t - 9 9 q { &.( l , o ; % o % # o ; 2 < ; - > ; f g % s % $ % + , z T T e - - - - ; 4 6 4 o 4 ; X - > < e 9 ",
"> y t t e z f - , w - , , - < ) 8 k k : w < 4 o @ # 1 1 > 2 > > : ; ; 6 d % = = * d s , c ;.P : : ; , ; 1 1 o X i u : : : e i t ",
"y > 2 a b l < , , , , , , , 6 ) k L k w , f 6 # 5 3 1 ; > t y y y t t t 4 O $ $ O = f 6 b ;.W 8 - X o o # 1 1 ; > 9 8 8 e x t < ",
"y > > a b z , , O , + X ; ; 6 ) E P 9 < < 6 4 1 n 7 2 2 x ^ _ T 9 > ; ; o o % s O % , < I :.,.I < 6 4 ; # # o ; - e x T _ / c 9 ",
"a a a u z Z v 4 O , + X ; ; 2 ^ %.p > > > ; 1 # 1 1 2 u %.1.1.;._ ( N i 6 ; ; ; ; ; - : c 1.y.<.b B g 4 # ; 1 1 > P ;.1.3.,._ G ",
"/ / I l z C B 5 + 4 o o ; ; > T ` c 2 2 ; ; ; 1 o o ; e T >.<.+.3.2.&.^ a 2 > : - - : 8 ^ 3.:.( l f 5 4 4 4 i N T ;.5.y.y.,.:.U ",
"U p > e 6 4 1 5 % d 4 o ; > e ^ ` ^ y 2 2 2 1 ; ; - - > x %.@.E ) :.2.2._ J D q 8 8 q I :.:.T t , , 4 # # 3 u N &.1.g.y.,.[ _ U ",
"p : : > ; X . & @ 7 4 # , e x %._ _ G t 2 t 2 1 2 2 2 e l Y Y x 2.c.n.n.v.r.Q H K J W ' _ c > - ; , 4 ; # o 1 > _ 1.y.w.| [ / J ",
": r k ; X 1 5 # @ 5 4 - < e x &./ { _ y t i t > 1 t i i i e > - 2 ^ 6.v.M.m.p.X.O.9.9.[ G 9 ; ; X + , % o o ; > c ;.w.0.| [ ' / ",
"T x e : o # # 5 # 1 1 ; ; e R <.+.;.>.! P c t < 2 3 i i 7 2 1 ; > t I | u.x.f.a. .] ] W I u 1 ; , , 1 1 # o ; ; e E 1.>.J J G y ",
"x l j , o X # 1 # # ; X - > z E +.@.>.! R F 0 : t 2 t 3 2 1 ; ; - X : W u.q.q.d.q.9.} ' G 2 1 o ; ; o 1 1 1 ; ; < U ;.E U F I G ",
"j j f 4 ; o o o 1 1 ; ; - : k Y +.@.>.>.E R q 9 y 2 2 3 3 # # 1 > - : U 9.} X.q.X.X.} / N i 3 1 , o o # 1 1 # - > p Y P r 9 p t ",
"d f 6 6 6 ; ; ; ; ; ; > < < e e k R +.;.;.! U G y > > 2 2 # ; 1 > 9 F J } 0.X.} ! W I a a i 7 n < , 1 1 1 1 ; o - > e e : : > > ",
"s 4 , 4 f f < ; > ; < < t u > ; > e P E _ :.} / F 9 9 t t ; ; 2 - y I U U [ ;.W R P p e 2 1 1 1 7 7 7 4 # o # 2 , , j w - ; ; , ",
"4 # o ; s j j e e e e 6 6 2 ; ; ; ; e t T / _ / } / U G I c a t p F U ,.,.U P T w : : ; o 1 1 1 < f z 7 1 o 1 2 f j j , ; ; ; 4 ",
"% # # o , j b Y x x x t 2 1 ; o # ; 1 > t I _ / ;.| { ' _ ,.:.I { / _ 3.8.;.R T : ; - ; ; # 1 1 ; 6 l g 7 # 4 + j , - - , o % % ",
"# & % 4 , j Y %.;.%.I t > ; 1 1 1 1 o ; 2 N _ [ U } ! U ! ,.,.U J / E E 1.k.8.#.j l 4 1 ; 1 # ; X ; 7 z h d % X f , , , , + % 5 "
};
