/* XPM */
static char *_5198_25c92fe47926ae40b7bdacaaf38848b114198f2a84dc5fbabfffb58d348560ee[] = {
/* columns rows colors chars-per-pixel */
"64 64 256 2 ",
"   c #1A170A",
".  c #19150E",
"X  c #29190B",
"o  c #3A1B0A",
"O  c #231C13",
"+  c #2C1C15",
"@  c #281C1A",
"#  c #331D14",
"$  c #341D1A",
"%  c #3D1C1B",
"&  c #3B1913",
"*  c #2B0D0A",
"=  c #16220C",
"-  c #1C2717",
";  c #1C3418",
":  c #0B3014",
">  c #27270B",
",  c #33220D",
"<  c #392809",
"1  c #37330D",
"2  c #242414",
"3  c #2C2414",
"4  c #252C14",
"5  c #2C2B15",
"6  c #25241B",
"7  c #2C241B",
"8  c #252C1B",
"9  c #2C2B1C",
"0  c #332414",
"q  c #3B2315",
"w  c #332B15",
"e  c #3C2B14",
"r  c #33241C",
"t  c #3B241C",
"y  c #332B1C",
"u  c #3C2B1C",
"i  c #24331C",
"p  c #2B331B",
"a  c #283515",
"s  c #333314",
"d  c #34331C",
"f  c #3B341C",
"g  c #3C3B1C",
"h  c #383716",
"j  c #29320B",
"k  c #371E23",
"l  c #1C3524",
"z  c #1B2921",
"x  c #2C2522",
"c  c #2C2C23",
"v  c #262B27",
"b  c #332522",
"n  c #3B2522",
"m  c #342C23",
"M  c #3B2C23",
"N  c #352D29",
"B  c #3B2C29",
"V  c #3C2628",
"C  c #243423",
"Z  c #2D3324",
"A  c #2D342B",
"S  c #283A27",
"D  c #343324",
"F  c #3B3224",
"G  c #333A24",
"H  c #3B3A24",
"J  c #34342B",
"K  c #3C332A",
"L  c #343A2B",
"P  c #3C3B2B",
"I  c #283833",
"U  c #3B3B33",
"Y  c #3B3733",
"T  c #3C2E33",
"R  c #580B05",
"E  c #4D1B0C",
"W  c #481706",
"Q  c #5C1B0C",
"!  c #571809",
"~  c #4A1C12",
"^  c #451D1A",
"/  c #541B13",
"(  c #5C1C14",
")  c #531D1B",
"_  c #5A1714",
"`  c #450D08",
"'  c #690903",
"]  c #730B0B",
"[  c #7B0C0B",
"{  c #790705",
"}  c #6B140B",
"|  c #641A0B",
" . c #6B1D0D",
".. c #661606",
"X. c #75130C",
"o. c #7C130C",
"O. c #7B1A0C",
"+. c #761604",
"@. c #790B12",
"#. c #641C14",
"$. c #6C1B14",
"%. c #6C1D1A",
"&. c #671615",
"*. c #731413",
"=. c #7B1313",
"-. c #741C13",
";. c #7C1C14",
":. c #73141B",
">. c #741C1A",
",. c #7A1C1C",
"<. c #7D151B",
"1. c #6B0C11",
"2. c #48250A",
"3. c #5D230D",
"4. c #55270A",
"5. c #442414",
"6. c #4C2414",
"7. c #442B14",
"8. c #4B2C14",
"9. c #44241B",
"0. c #4A241C",
"q. c #432B1C",
"w. c #4B2C1C",
"e. c #532413",
"r. c #5A2415",
"t. c #53241C",
"y. c #5C2319",
"u. c #552B1C",
"i. c #5C2B1B",
"p. c #582C14",
"a. c #43331B",
"s. c #4B321B",
"d. c #463719",
"f. c #54321B",
"g. c #57351A",
"h. c #47320B",
"j. c #65230B",
"k. c #6B2315",
"l. c #64241B",
"z. c #672819",
"x. c #762519",
"c. c #722E18",
"v. c #431E24",
"b. c #571824",
"n. c #771826",
"m. c #691C25",
"M. c #442523",
"N. c #4B2323",
"B. c #432C23",
"V. c #4A2B23",
"C. c #442C2A",
"Z. c #4B2C2B",
"A. c #43232A",
"S. c #532D23",
"D. c #572826",
"F. c #433224",
"G. c #4B3224",
"H. c #43342B",
"J. c #4A342B",
"K. c #433B2B",
"L. c #4B3C2B",
"P. c #483924",
"I. c #533324",
"U. c #52342B",
"Y. c #593826",
"T. c #472B32",
"R. c #433B32",
"E. c #483533",
"W. c #553832",
"Q. c #552C30",
"!. c #692A26",
"~. c #762823",
"^. c #653728",
"/. c #6D342C",
"(. c #2C421C",
"). c #394228",
"_. c #3C4634",
"`. c #27442F",
"'. c #1C4222",
"]. c #464228",
"[. c #524229",
"{. c #464436",
"}. c #554733",
"|. c #694334",
" X c #40491C",
".X c #840C03",
"XX c #8B0B02",
"oX c #850C0C",
"OX c #8C0C0B",
"+X c #870308",
"@X c #9C0403",
"#X c #930B05",
"$X c #9C0C04",
"%X c #94020A",
"&X c #9C030C",
"*X c #940B0C",
"=X c #9C0B0C",
"-X c #930303",
";X c #83120C",
":X c #8B130D",
">X c #841608",
",X c #94110C",
"<X c #991309",
"1X c #850D13",
"2X c #8B0C13",
"3X c #890714",
"4X c #930D13",
"5X c #9B0C14",
"6X c #980817",
"7X c #831514",
"8X c #8C1313",
"9X c #84141A",
"0X c #8B131A",
"qX c #881B16",
"wX c #931414",
"eX c #9C1212",
"rX c #93131C",
"tX c #961619",
"yX c #A40103",
"uX c #AB0302",
"iX c #A40B02",
"pX c #A2040B",
"aX c #A40C0C",
"sX c #AA0809",
"dX c #B40504",
"fX c #BA0304",
"gX c #B4020C",
"hX c #BC030C",
"jX c #B60C08",
"kX c #A6110C",
"lX c #B41009",
"zX c #A40313",
"xX c #AD0313",
"cX c #A20B14",
"vX c #A30C1A",
"bX c #AC0918",
"nX c #B30413",
"mX c #B80816",
"MX c #A51316",
"NX c #B21215",
"BX c #872319",
"VX c #92221B",
"CX c #971822",
"ZX c #8B1427",
"AX c #AF1024",
"SX c #872626",
"DX c #8A322B",
"FX c #BD200F",
"GX c #CA0002",
"HX c #C2020C",
"JX c #C70507",
"KX c #D70206",
"LX c #C60514",
"PX c #D70516",
"IX c #C1130C",
"UX c #E40007",
/* pixels */
"F.u w y 9.%.zXHXGXGXJXdXfXyX3X1.R R @.zXhXKXUXUXKXJXuXiXdXdXfXhXkX>XqX;XVX:XcXgXJXHX$X<XjXGXGXpX) v N N 9 7 m H.y M K 7 B Y @ J ",
"q M D M q _ 2XmXJXGXfXuXyX*X7Xm.!.z.<.8XpXgXJXGXKXJXJXfXsXyX@X-X.X>X;.BX~.qX[ #XfXfXiXiXfXfXsXoX^ c c D N y M H.M F m r N N c x ",
"C.M D Z J G.l.8XsXdXsXiX:X-.D.D.I.s.g.p...+.>XiXIXPXPXJXpX:X$./ 3.z.Q l.6.p.e.c.:XsXhXfXfX$X} 2.M v c N M m b M y F 7 K T x Y O ",
"K J A S J K.u.| .X$X$X,X .e.q.a.h.h.h.h.2.j.+.#XlXLXmXpXoX%.I.R.q.G.q q , w h ^.;.kXHXHXsX[ < > D N c N m m y y r 0 7 K N J Y . ",
"- J U Y x $ u f.| +..XX.4.w u e s.4.h.3...+..X#XMXeX7X&.) 9.V E.c v A x Z O , e.-.5XmXnX4X| , 2 c c 7 x m m F F F + m b 7 K m O ",
"z I U V % t d 7.i.k.X...W < 0.t.i.j.j.O.+.>XtXwXqX$.y.V.M 7 @ x v v I z L 2 e i...:XxXxX1X_ q 9 m m m 7 7 y M y R.7 F O O J x c ",
"I J B k v.Q.F., I.z.$.} ! / l.l.$.[ 1X4X-X*X9X>.y.0.q.M N x v z I I v v N u B.Y.2. .5XzX<.( ) M.r m m r 7 r m m F F y 3 9 m m N ",
"c J V v.^ 0.q.q p.r.*.o.X.X.*.=.,.7XZXCX1X@.&.W 9.f y 7 x N v v I I N Y m M , < < j.4X5X<.#.) N.* @ 7 7 r m K K.X K 7 m R.m m 9 ",
"N M # u e L.d.s.6.~.] tX&X5X8XBXn.~.!.~ 0.5.I.V.u u c Z c 7 b @ V b x T P p 5 1 < Q $XpX] ! ~ & r r r r M K K m m K 9 r O F 9 7 ",
"7 m r w 9 g a.s.W ^.*.8XbXxX,X] R ) V.0 5 9 P F 0 3 3 y y m u t k $ r H.P f 1 h.2.+.pXuXo.Q o X u X + M H.r m R.7 m m m D K.K D ",
"6 8 G 5 a 5 e 7.X Y.z.1.cXnXeX' 6.F.H.H.M K.G G 9 9 e t q.u u q q q 9.w.N./ R } :XMXHXhX>Xj.>   0 # 0 r r r M H.7 7 m y F y F w ",
"- 8 G 4 a > e e e d.G.R wXpX$X' E q.5.B.# F w 9 9 w u 0.9.9.q e < 2.e.l.%.*.@.*XaXNXPXIX,X..< > 0 M t # + m K m K m D @ 7   3 y ",
"I l Z 3 f 3 u e P Z D o ~.7X#X*X[ ,.#.!.0.W.J.W.# & q 5.9.q.q.s.< ! *.0XrX6XrXCXvXNXmXNX=XO.2.< P.q 0 M M r m R.K m D 7 y O w f ",
"Y v c 7 u e u y D - 8 F ^.k.{ kX-X+X] } ! e.6.9.% 9.q.M.w.0.u.i.4.+.>X4X6X3X1X7XCXtX:X>X,XwX .2.u.q 0 t u m m B 9 m F y F w w w ",
"T.A.b M u M 9 c N O @ H.L.f.' <XNXsX=X;X;.( 6.e H P ).H.V.N.D.x.<X$XXX;X:.( ) / !.z.8.p.O.,X*X=.E B.B.0 # M m r x F D F y D 9 X ",
"A.V b T.M.A.7 x B @ 7 F d f.' <XaXiXeXOXqX} l.e.5.q.w.u.#.&.%.qX$X@XoX$.S.I.J.G.u.Y.]. X3.[ 5XMX,.l.u.Y.F.3 r K r K 9 y 2 K.M r ",
"N N J b m.b.v.k 3 H G h g.z.2XvXMXwX+.' XX,XqXqX>X.XVX{ -XeX>X+.:.SX~.t.C.K m T.Z.% G p f ^.:.rXMXXX' W w.[.L.5.X t f - O Y E.T.",
"C C 8 @ v.b.v.C.f ].d.2.j.o.%XbXpX,X' ' { *X,X<XsXyXNXyXhXuX.X..l.^.U.H.D c c b E.C.Y Z G B.t.*.&XsX:X..! u.Y.Y.u.P.f > - N T V ",
"q e 2 8 Z K M.I.d.g.j...OX5XxXLXgXxX{ R ' } ' { MXyXnXfXLXuX{ ..W o i '.S S U K N Y N M t & e 6..XkXMX*XoXX.k.!.Y.d.s = 4 J T x ",
"5.a.w g p K.) k.|  .o.OXeX5X6XvXbXAXBXl.c.c.j.-.tX%XaXyXmXdX<X+.Q o a '.l S K b x N @ M 9.0 f 2.+.$XMXaX5X5X9XX.c.d.1 j 4 9 N N ",
"2.s.e d.g g.oXzXpX$X#X,X:X-.( E R _ 6.6.y.z.i.i.z.c.x.{ cXnXmX&X7X/ 7.g ; S P M A.Z.r D D 3 t ` +.XXXX#X5XzX6X*XBXk.h.1 j > > < ",
"2.u.2.6.e.x.pXHXLXuX#XO. .i.F.d y J.P.J.^.D.I.Y.d.g.g.! 8XcXmXpX%X] / a.s G L.J.V.C.r y D 0 & ` { .X+.] [ 1X4XvXeX7Xj.4.< > , < ",
"p.e.#.' 9X*XgXhXHX@X..4.7.F.K.J y K K M V.M.u H a ).].s.c.] tX%XmXbX7Xy.q.w 0 F.B.0 w 7 0 q & R oXoX..4.8.i.>.0X5X5XoX .3.8.7.7.",
"#.k.x.*.CX4X*X&XjX-X..2.1 p D - O m M M H.F.H ].i h H }.^.! >.[ &XzX3X=.z.6.q P.H.w H 3 # 9.` *.OX[ Q s.].R.S.&.SXtX8XO.k.j.r./ ",
"ZXn.&.) e.e.E ..=XkXwXR 7.P 7 T . k T.$ M b H.u M u q.G.|.u.|.~.k.] 6XzXCX1.0.d a a a s 1 E &.=.X.%./ Y.t u M }.5.e.r.j.$.,.9X<.",
":.~.!.S.P.g 1 p.:X&X5X] ^ D x T x N V b r C.C.C.H.q.V.q.G.M.D.Y.d.i.2XzXzXrXl.d.(.(.(.h 2.| 2X2X,.#._ 0.$ x D _.G F.I.D.!.,.n.@.",
"^ U.Z.G.K.K.K.^.=.+XvX1X~ m n N I `.N T $ E.Z.J.H.r F w   f & S.).[.i.0XzXAX5X;.h.h < 2.X.*XxXvX9X#.Q.% 7 v v Y F H.J.I.U.D.!._ ",
"0 H.C.r F D H.|.l.@.6X0Xe.B.Z.c l '.c C.n E.M.n K Z Z c = p # G.G ).P.!.3XbXbX5X+.! ! ' #XgXHXNX0XR ^.+ c A x V n M.M u H.H.C.V ",
"X e n $ 9 9 m I.^.&.oXrX>.D.I.w l ; n & m m M r C ).8 L : : C D t B.{.[./.1.5XnXnXxXpXsXlXIXJXlX,XR ^.0 Z L k N.D.N.r 8 C S A c ",
"> r M M b B M 0 Y.r.{ 8X0X;.f.1 G y 9.X D 8 P K c {.y J '.: A c 9.q ).).{.E 1XxXPXPXfXjXlXIXJXJXeX} i.0 D L n T.Q.Z.m 8 i l C 8 ",
"p 5 D F t Z.T.# Y.^.' oXNX-X4.1 f t 9.^ Z S P K.M B.N.^ v 9 M.^ M.M Z p H 8.=.%XhXfXuXiXiXlXJXJXkX.X| w.S S C L J M y 7 7 D c 6 ",
").= i 6 * v.W.* R.[...+XmX@X3.h > q & V.5 D y q.u + N.* 7 m % 9.Z.H.6 p 4 Y.$.+XmXgX#X.X+..X@XuX@XXX{ /.P.L l C - 6 + # n B M b ",
"U i - Z k ^ v.E.9 u :.+XmX$X4.j y 0 y w r W.N.V.M H.M M 3 m 7 3 W.C.P.s g e #.1XvX%X] r.7.a.l.[ *X=X-X{ ! t p 4 Z D r + r M J 6 ",
"7 D L 8 $ ^ C.M p C.:.vXgX-Xh. X> m ).L r Z.N.W.K.P 9 L M M w f u e g j d.6.,.1X3X@.) u i 5 n ( =.,X*X+X1.( 9.y 7 D R.M r b m 9 ",
"X u L C $ n M y 2 5.@.AXmX&XW 1 e r ).S ).U H.B Y C - L M B.t B.d a '.; w.#.rX6X=._ w a 2 3 t ) k.k.$.;.2X@.( B.5 D P D b $ r 7 ",
"& q d G m 7 3 d 4 & ' vXAXvXR 2.V.y S l _._.E.m A C = A b C.$ M s a ; a e.@.%X3X%.q.a i 2 0 t 9.I.p.g.~.CX6X1.( w.D p 5 7 r r + ",
"q.q f H F.y 5 i p h ) ' 5X5X:Xk.0.u ).D P b E.T.N A v N m T.D 9 ; j e y.<.1X3X:.S.f a i 7 b M r d s s.^.SX0X6X9Xy.a.w 3 7 y $ $ ",
"u a.M u u F 9 - ; i G.R @.+X4X0Xl.B.d Z K t Z.C.N Y v N r E.D 9 w a.%.ZX3X1X&.t.f d D m r M N 6 - 4 e I.^.SXtXtX} i.s.H y 7 $ $ ",
"9 d u F.B.M 9 8 = i H 8.%.] 3X3Xx.p.X s H F Z.t M J 8 J y H.u M.r.x.6XbX+X*.o 5 h D C.C.r m N c - - w u g./.BXwX+X=.p.f F y r k ",
"Z 2 r L.J.+ O G 8 p 2 H.N.&.@.CX1Xx.o ].p w q.M.F.y 4 P M.0./ ~.X.4XzXbX{ k.w a p F U.J.n m B c 2 3 5 w g [.c.o.eX+XR 5.q.F y $ ",
"_.A Y R.R.Y @ + + + M t u S._ ' &XkXx.h.d.).s.8.o > f L.z.*.oXvXvX&X2X=.( w.F.p 9 > * m + M N E.V b 3 6 f [.[.c.o.8X7X| 6.L.J.u ",
"_.J Y K J N @ r n t M # # w.) @.hXHX>X3.g.[.s.7.1 h.d.f. .o.$XpX5X1X>.i.7.f h 3 ].D 7 H.r n b B C.T.F r , 1 h.g...7XrX2X#.t.q.w ",
"B b T.n x 7 7 N r 0 H.B.G.^.l.3XLXKXpX.Xc.^.g.d.(.[.Y.3.+.>X>X+...! e h h f H.u P p c K r b 7 7 T T.Z.V.q o e d.1 3.8X&X2X&.e.a.",
"$ k C.A.n t 0 F 5 w P.I.!.~.:.3XHXPXLXxX*X;.z.Y.[.^.c.>X#X,X+.! 2.> j s s d K.P Z 8 6 m # r 6 6 J x % N.S.s.h s g 4.oXzXxXOXj.g.",
"n ^ Q.N.) t.9.w.P.a.s.e. .7XOXaXhXPXPXJXhXzX7X~.~.x.bXLXLXsX+.4.1 j e d.q.u G p ).c b t 0 + 5 - S - * v.S.G.p 4 [.r.;XzXHXuX' 2.",
"E.C.S.0.) !.( y.i.3.k.+.:XwX:X<XMXNXnXgXmXAX0X~.x.7XnXPXPXGXXXj.1 s V.Y.S.u y 8 L 9 M % 0 r G 8 S 8 $ ^ 9.r ; a w.#.oXxXLXhX{ ' ",
"F H P.5./ %.*.qX[ .X=XaXMXMX+.O.j.c.p.i.^.^.^.^.z.>.5XnXLXJXiX>X ./ ( !.D.N.F.P m 7 n 0 n r F 4 S Z m r 9 p i 9 ~ } %XgXmXlX$XXX",
"~ E u.e.} ;.@.7X0XXX=XyXiX#X..4.o 1 g g ).G F [.0.z.;.OXpXjXkX,XBX} :.<.:.&.D.W.K.m H.t M 0 w O S Z Z m L _.P t y.@.&XuXyXiXiXiX",
"6X4X:X>X+XoX:.b./.#.+.XXsX=X( o J., f > G S a 5 F.Y./.c.+.,XNXkX>X;.wX5XzX%X*.z.[.K.M M m m 7 m z l A 6 b H.0.~ &.7X.X#X@XlXlXuX",
"xX&X:X.XXX@.!.T.H.J.c.:X-X+X) F F.0 G.0 D G C p F.o d.|.x.;XeXeXDXx.;X&XbXvX7X#.6.7.F.G.B.r r D Z Z K M v.!.&.1...$.BX+.<X-XlXfX",
"8Xo.j.j...l.Q.T {.G.| .XeXqX) + w 3 G.u F D G H N.o 7.^.;.8XtXx.4.g.DXDX~.$.*.,.| ( I.I.t.6.e w 7.< 7.E @.3X{ ] t.8.g.Q 7X-XsXfX",
"%.k.p.^.p.V.r 7 J F.;.:X>X} ^ 0 6 4 M.M.u M F F.G.6.i.k..XtXDXp.e a.I.}.|.|.!.%.,.%.&.l.z.z.h.2.3.! #. .1X6X3Xx.s.g , z.] 6X%XzX",
"t.V.a.[.f H 9 6 c 0.=.2X-.r.& X - 9 t M.B.C.V.V.H.6.n.9X3XZX/.h.D S S Z J.^.}.|./.>.oXoX;.c.j...;X.XO. .$.z.l.^.s g 8.~.3X6X3XZX",
"q.w.w ].2 L c J M ~ { oXc.I.+   8 Z + Z.C.Z.D.0.f o @.CXCXx.s.s - S `.A M C.R.}.Y.x.8X4X:XqXBX,XoX{ *.Q / 8.5.q.a.5.l.1.CX3X>.#.",
"% 9.0 K.  c 6 K & &.CXrXe.3 O 8 c K 7 J.V.S.V.9.9 5.3XvXDXi., 5 l v V A.E.W.H.0 G.i.k.9X=XNXaX*X>.i.Y.w.8.I.6.p.i.Q X.' x.c.z.o ",
"% C.n R.  6   # _ :.0X,.G.p 8 7 b Y 6 Y 9.0.q.0 0 ^.0X3X!.L., = - N Z.v.n M F.F.F.e 2.| wXnXyX{ ( M K.y & t./ R ' ,.+.-.2.p.2.< ",
"U.n m T m O O 9.:.9X9X&.M = Z 9 $ n v Z ^ 0.G ).t.%.9X&.5., 0 0 y r n C.Z.N.9.B.5 ).w Y.Q qX@X+X/ 0 q.S.y._ @.3X7X*.2.1 < < < 2.",
"B m v I v 6 3 6.=.ZX*.!.r i C N k n Z C 9.9.a h !.,.k.r.q , 0 q t t w M V.9.9.M y a ).g q.~.3X4X..W ! ..*.9XvXtX7X( d.s s f > < ",
"4 8 l l v 6 w 6.;XtX_ S.7 Z D M A.C.F D u u s 5.,.=./ 5., 0 0 q 0 3 5 5 0 # 0 b 9 S p i ].& DX7XOX#X.X.X&XxX=XoXW 7., a.F.r H 6 ",
"- a S v A m 8.| :XoX( 0 m O K m B C.B F.H a.6.Q 9X=.e.< w q t q e h h f y y M H.K = _.= f q.0.x.aXjXsXiXhXIXpX' p.< U.0.^ n . - ",
"s H K.T N Z.z.o.$X>X6.X m @ M x c m n C.g s.*.oX8Xo.e.7.e y t 0 d d f D D D K K m {.9 u q.W !.| XXiXlXfXfXhXaX{ 3.g.~ y.m.` Y l ",
"h.p.Q.D.M.D.;X$X$XBX2.H @ b r M x 7 0 q q.r.8X%X4X;.r.6.7.u u w w d y y 9 Z J K E.C.L.B.~ !.! ,.XX$X$X$X$X<X#X>X| W ( R 1.!.b _.",
"#.:.ZXn.b.%.pXfXiXBX5.G @ b M F v 8 9 0 6.*.zXxX5X;Xj.e.5.q u M G.H.J Z L Y H.A.M.W.t S.( &.tXzXvX4X=.k.j.j.j.O.+.x...+...R ( E ",
",.3XZXZXm.:.gXGXuX>Xu.9 m @ H.K Z Z i 0 / =.xXnX&X>X .E o , y F ^ 9.7 - v v V & & % q.6.( 9XzXnXzX+X&.g.g.g.j.O.{ { .X+.O.-.-.O."
};
