/* XPM */
static char *_9946_98b8d42dc91e353c4393518f8c76171ce8ea7c7a49c8ae7baac97b49ce35bbce[] = {
/* columns rows colors chars-per-pixel */
"64 64 245 2 ",
"   c #2D0000",
".  c #360001",
"X  c #3D0101",
"o  c #370009",
"O  c #3D000B",
"+  c #3F0805",
"@  c #440101",
"#  c #4B0201",
"$  c #440901",
"%  c #4C0A00",
"&  c #44010A",
"*  c #4B020A",
"=  c #44090B",
"-  c #4D090A",
";  c #530301",
":  c #5A0501",
">  c #540B01",
",  c #5B0B02",
"<  c #52040B",
"1  c #59060C",
"2  c #540A0B",
"3  c #5B0C0C",
"4  c #471000",
"5  c #4B1000",
"6  c #551200",
"7  c #5C1301",
"8  c #5D1A01",
"9  c #5D140A",
"0  c #591806",
"q  c #430211",
"w  c #4B0112",
"e  c #4B0A13",
"r  c #530012",
"t  c #540B12",
"y  c #5C0B13",
"u  c #5A091A",
"i  c #5C1115",
"p  c #5D1811",
"a  c #630C02",
"s  c #620F09",
"d  c #660902",
"f  c #631401",
"g  c #6A1402",
"h  c #641B01",
"j  c #6A1C02",
"k  c #63140B",
"l  c #6B150B",
"z  c #641B0A",
"x  c #6B1C0B",
"c  c #711E03",
"v  c #711B0A",
"b  c #701405",
"n  c #610E16",
"m  c #631512",
"M  c #671C12",
"N  c #6C1B12",
"B  c #631518",
"V  c #6C1C1A",
"C  c #681917",
"Z  c #741E14",
"A  c #652301",
"S  c #6B2302",
"D  c #6D2A01",
"F  c #6C230B",
"G  c #6D2A0B",
"H  c #642707",
"J  c #722503",
"K  c #732C02",
"L  c #792D04",
"P  c #72240B",
"I  c #742B0B",
"U  c #7A2D0C",
"Y  c #792609",
"T  c #6C3000",
"R  c #6B3008",
"E  c #753201",
"W  c #7B3402",
"Q  c #753801",
"!  c #7C3B01",
"~  c #75320C",
"^  c #7B330B",
"/  c #7D3B0C",
"(  c #6C2313",
")  c #6E241C",
"_  c #682817",
"`  c #732413",
"'  c #792512",
"]  c #742A14",
"[  c #7B2A14",
"{  c #73241B",
"}  c #742A1A",
"|  c #7B2D1B",
" . c #782419",
".. c #7B3412",
"X. c #7E3B14",
"o. c #7C321C",
"O. c #753615",
"+. c #792A24",
"@. c #7D3625",
"#. c #7C4201",
"$. c #794805",
"%. c #7D4415",
"&. c #823C03",
"*. c #81340B",
"=. c #833C0C",
"-. c #8A3D0E",
";. c #863A01",
":. c #802E19",
">. c #823414",
",. c #833C13",
"<. c #8A3D15",
"1. c #83341C",
"2. c #833B1A",
"3. c #8A3C1C",
"4. c #8A3718",
"5. c #933F1A",
"6. c #843523",
"7. c #8A3D23",
"8. c #863A27",
"9. c #844301",
"0. c #884404",
"q. c #844903",
"w. c #8C4C03",
"e. c #84420C",
"r. c #8A450B",
"t. c #86480B",
"y. c #8D4B0C",
"u. c #914C0B",
"i. c #924109",
"p. c #8D5502",
"a. c #8C5505",
"s. c #935204",
"d. c #9A5B03",
"f. c #94540C",
"g. c #965C0C",
"h. c #9C5B0C",
"j. c #975A07",
"k. c #854212",
"l. c #8A4313",
"z. c #8E4B13",
"x. c #86451A",
"c. c #8C421C",
"v. c #87491D",
"b. c #934D13",
"n. c #934D1B",
"m. c #984619",
"M. c #8D5117",
"N. c #945214",
"B. c #995515",
"V. c #9C5C15",
"C. c #96521B",
"Z. c #9A551C",
"A. c #9C5B1B",
"S. c #955A13",
"D. c #A15D1C",
"F. c #A05C14",
"G. c #846100",
"H. c #96670A",
"J. c #9E6213",
"K. c #9E641A",
"L. c #9C6715",
"P. c #A3630C",
"I. c #A36905",
"U. c #A3740D",
"Y. c #A36212",
"T. c #A3621C",
"R. c #AB6B1C",
"E. c #A86915",
"W. c #A97518",
"Q. c #B3751A",
"!. c #B07616",
"~. c #8A4423",
"^. c #884825",
"/. c #954D22",
"(. c #944826",
"). c #9A5324",
"_. c #9E5B23",
"`. c #965527",
"'. c #8C4335",
"]. c #975733",
"[. c #8F4F2E",
"{. c #A35D22",
"}. c #A25D2A",
"|. c #A65726",
" X c #A55734",
".X c #9F6726",
"XX c #9B613B",
"oX c #A46224",
"OX c #AA6522",
"+X c #AE6B23",
"@X c #A4632C",
"#X c #A9652B",
"$X c #AC6B2B",
"%X c #A76F22",
"&X c #B36E2C",
"*X c #B16E23",
"=X c #AE7523",
"-X c #AF7A2C",
";X c #B37325",
":X c #B87924",
">X c #B3732C",
",X c #B9762C",
"<X c #B37B2A",
"1X c #B97A2C",
"2X c #B57A24",
"3X c #B26E33",
"4X c #B5693A",
"5X c #B47333",
"6X c #BB7D34",
"7X c #BA7639",
"8X c #AE6C32",
"9X c #B86C42",
"0X c #B9881E",
"qX c #B7852A",
"wX c #BD972D",
"eX c #BF8730",
"rX c #C7991A",
"tX c #CCA11F",
"yX c #C4872C",
"uX c #C6962A",
"iX c #CB8D34",
"pX c #C49332",
"aX c #CA9838",
"sX c #D4973A",
"dX c #D19434",
"fX c #CCA526",
"gX c #CDA635",
"hX c #D8AB3A",
"jX c #DEB537",
"kX c #DCB92B",
"lX c #E2BB3A",
"zX c #DEC03E",
"xX c #EDC73B",
"cX c #D18E4C",
"vX c #D79D42",
"bX c #D38D52",
"nX c #DAAD42",
"mX c #E2B843",
"MX c #E4B24D",
"NX c #FDD754",
"BX c #F6D04F",
"VX c #FFF35C",
"CX c #FFE351",
"ZX c #FFED61",
"AX c #FFF160",
/* pixels */
"X X @ X X p ) 0 M M 8 ( 8 @ @ X $ X X & & * 2 8 h K W L j *.z a Y ^ ,.<.=.L K I F ] N ; # ; : # ; ; d g l l ; ; # F 6 # % @ # @ ",
"= X X @ @ _ +.M N ( z ( ( 5 % @ @ @ X @ - 2 m P h &.S 9.L j :.[ j U l.,.K 7 8 F ` } N : ; , : : : : s d a d # ; ; x 7 > > # # X ",
"@ X @ > k ) N : > : ; 7 z 7 7 # @ @ @ # # * 7 F <.Z.&.{.l.f j [ J I ^ G 6 % # 7 9 9 p 7 z ] [ I v x  .l , 3 ; ; # k 3 > 2 # @ & ",
"X @ @ 3 m k > # ; : ; : f x ] F > % ; # # # 7 P L &.u.OXb.K # F o.F 7 > # @ @ @ @ # ; 0 F 7.).).J P } f # # @ # ; 7 z 9 ; @ @ # ",
"% ; ; ; ; ; ; ; : d ; ; : a [ | F f > ; # # f I r.Z.D.&XD.=., J I 7 @ X @ % @ X @ & # 6 H %.).oX/ / ,.A % @ @ @ h F 6. .7 # # ; ",
"# 7 7 : : : ; d : : # # # # Z 1.6.J ; # @ # > S |.bXOX,X&Xr.&.L 7 # @ @ @ @ & O O O @ 5 8 Q V.<XL.S.S.$.D 8 $ > ^ X.`.3.x 7 ; # ",
"# k N s k s : s : a ; ; ; ; { 8.3.j : : ; ; ; 7 E 7XB.OXOXb.0./ z 7 # # @ @ & q O & @ $ 6 T F.pX0XU.U.L.a.$.A H t.y.$XD.&.W h # ",
"# V C ; 1 k 3 m 3 1 # ; # @ k ` Y f f x ' P f 7 S }.3X>X&XOXS K 3.{ ; # # & q q w & @ # $ A P.dXjXrXfXgXpXW.H.H.g.g.6X;XF.D.W > ",
"m 9 1 # @ # * < i ; * # @ # 3 # : c 4.>.' x f > ~ E `.5X5XK.K K 2.x , : # # * * r & @ @ g ;.h.dXkXkXfXgXMXgXqXeX2Xh.V.R.R.,XD.j ",
"# ; ; # # # * @ i 2 # # @ # # # g Y >.' h : > % A S x.z.b.Z.9.&.Y j , , # # # # @ @ : 7 *.-.h.iXNXNXlXgXnXvX<XL.V.Q #.T.D.B.y.W ",
"# # # # @ @ @ @ i t @ @ # # @ # P :.[ j ; @ # @ @ 6 H A E N.r.&.K f 7 , f x f # ; # ; a 4.m.-.E.hXhXwX2X-X@XM.! ! E / k./ k.<.D ",
"; , , ; # @ @ # X # @ X # @ @ , ' ' P , @ @ @ @ @ @ % % D e.! S S j K K E =.^ h F : # ; c *.*.;.E.I.E.K.M.R H G H H ~ H 7 F F 7 ",
": s C s ; # @ # @ % ; > 7 > > h P x , ; @ @ & & X X X # 8 S W E A ! N.S.u.f.S.0.K A 7 ; a a d <.F.s.u.,.D % # > % @ @ > % @ @ 6 ",
": g Z l s ; # @ # > f h G J J J f : # @ @ & & O O = X @ @ % =.#Xu.g.%XqXqXpX2Xj.! E S 7 a a d 4.D.f.&.j # # # X @ X X X @ X @ @ ",
"d g b b l l a ; # ; f c L 4.-.J 7 ; @ @ @ @ q O O q X @ X # c.3X<XqXwXnXnXnXuXU.a.#.E h x l a  .|.u.r.Y : 3 3 @ @ 2 * X X % % X ",
"v l d d v ' ` z f h [ 3.(.4X4X<.f , # @ @ & O O O = X # % > ,.C.=XpXMXBXjXuXwX0Xd.f.k.K h : < +.4.;.,.4.f # # # @ @ @ @ # X X - ",
": ; # # > f F P : x ; [  X X4Xi.F 7 * # @ & & q q X % X % % x.5X;XpXsXMXdXuXdXQ.d.j.r.j # ; u n 7.*.Y f : ; ; ; @ ; ; # X @ # * ",
"@ @ # # # 6 F 6.z z : x >.*.i.L h : # # # & & & @ X @ X # > X._.f.L.Y.E.!.Q.uXQ.H.h.0.S f # # y j S f , , m 1 @ # # @ @ # ; ; @ ",
"O & # @ @ # 7 { , ; ; ; f a J J , ; # # * & @ # % # # X # > ( o.X.t.Q Q w.V.=XR.h.W W E ; @ ; ; S W ~ f ; ; : ; ; ; ; > 7 z 3 # ",
"w & X X @ # ; > ; @ ; @ : # a j : ; # @ @ @ @ # 0 0 7 % > 3 i y 7 D 6 6 A E t.M.f.f.! D K , ; [ S L / S # @ @ # ; m ` ( ( F z h ",
"q & * # @ # # ; ; @ : ; , # # : 1 < * @ @ @ # 6 h S A 8 1 y u r X % X X 5 6 R / #XN.A.C.K S L S ! W / ^.~.{ 9 2 # 9 ( ] G F G I ",
"@ t B 0 # X @ ; # ; : x v P J x n u 1 ; ; > A D W / L F , 1 < * & = X @ @ % H ~ k.@X#XB.D.b.&.&.Q E T O._ > @ @ @ @ % 8 I O.I D ",
"9 ) +.( > @ # 7 g ` : | | 7.6.` 3 y 9 k h S / z.B.b.W K , : # # & O X O X X % % ~ k.#X>X&X,X*Xu.9.t./ 8 @ X @ & # X @ 6 G X.^ D ",
"K ..2./ K h S J (.].7 1.P 6.P # ; ; , f x I <.C.{.B.L K 7 7 ; 1 @ X O = O X # . 6 D &.S.;X;XY.s.D Q A @ X % * X @ @ X > A G J D ",
"! A.$XE {.S W C.4X9X X2.h ` # # # # # ; ; > f S <.=.U J f : ; # @ X X X X @ @ @ @ E / y.T.s.P.h.t./ H @ . & e O & @ X X # S ] J ",
"q.j.+Xw.T.N.OXoX3X4X).S > F : > @ @ # # # ; ; , f h f f 7 : ; # @ @ @ X @ @ @ @ X v.t.A.V.R.R.f.Q A 6 % X & q X O @ % # # ; h ] ",
"w.d.R.E.h.D.T.&.W z.=.h , ` 3 ; # @ @ # * @ @ # ; : a z k a ; # @ @ % # @ @ @ @ % ^ Q t.$X#.S.D R % X % - O X O & @ @ # @ @ , ] ",
"D ! h.F.V.B.u.K 6 D K S S F > # - & & & & & * < ; y V Z N 3 ; @ @ @ @ # # @ # % z x.6 _.K.Z.N.E G # X @ & X O = & X X @ # ; f ` ",
"D ! Z.b.}.*.L E K E D D F , # * @ O X & q * * ; @ ; x ` l , # @ # @ # # # # ; > F ~.k.e..Xe..Xh A @ @ @ X X & & $ @ @ > f N N l ",
"K =.).2.c., , S =.! K L I @ # ; $ & = - * @ @ @ # : f F F f , ; # # # ; < ; # ; > ..G /.D E E A 7 # @ @ @ & & X O % 8 N N Z l d ",
"> j 6.6.7 # 7 c >./ K ^ o.@ @ @ - $ = % > % 7 h W W W &.,.>.I z , < < n n 1 ; # @ X 8 D ~ A %.^.F # @ @ @ @ @ X @ @ > F Z l d d ",
"> h 8.'.@ # , ; 3.~.>.J ` @ # @ X X X # 6 A k.Z.3XD.u.N._.`.2.G C s u V V s ; # > @ # @ # R E S 2.6 X @ @ X @ X % X X , V s : 1 ",
"6 } '.'.Z ; : f ' v ` :.{ # @ @ O X @ @ # X.9X7XcX&XF.9.z.%.X.G  .3 > F ` , @ # : > ; , # ; L A oX! > # # @ @ # > @ # y i < # # ",
"$ 0 @.@.{ a : a l a l N z > # # @ & @ @ 6 ~ C.B.&Xu.9.! C.X.D 8 z | o.F P 1.F # # # ; x f S -.;.p.E h 6 ; # # ; # ; 3 y * @ # 2 ",
"@ @ 5 0 h 9 > ; ; ; ; > 2 ; # # @ @ @ % 8 A D E 9.L W / O.6 % > 9 k ( ] o.[ h ; # # k ` ..*.;.F.P.j.e.I k > ; # # > 3 # @ # # # ",
"@ X X X # @ @ @ # # # @ @ # @ @ % 9 8 G / D S ! &.E K A 6 X X # ; X @ ( } > @ ; # > } o.c.r.9.:XP.Y.C.2.} | o.o., > ; # # # # @ ",
"+ X X X + X X X @ $ @ @ @ # @ @ @ 8 G X.&.D D 0.9.W 7 # @ # & & @ @ @ # > > # @ @ 9 o.X.C.N.s.vXsXsX#X4.` { P F 7 7 s n ; # # # ",
"X X X $ + X . + X X X @ @ * * @ X > A ! ! K ! h.9.&.8 # X w w & @ # # @ @ # # @ @ k | 2.Z.B.F.sXsX,Xy.S h F ] F F f 3 m V k > ; ",
"# @ @ @ + X . . . . X + @ * ; 2 8 8 E 0.0.w.F.:Xa.y.E h @ @ & w @ @ X # # X @ # @ ( G ,.b.f.E.yXdX+X*.7 # ; # # h > # 3 +.+.P 7 ",
"( 7 @ X @ X X X + X X & @ @ ; s P h K &.9.s.*X:X;XV.E S % # X @ @ X @ # & @ @ @ @ 9 h ^ B.f.Q.:X*Xi.j ; # # # @ X # ; < B @.6.Y ",
"I | # 7 @ X X X = X @ # @ y @ : > S K W F.+XR.1X:X&Xt.K % # X @ @ @ @ @ * & @ @ @ > 8 W oX+XR.R.$XK 7 7 # @ # @ @ # @ @ * m | J ",
"h >.P F # X X # X @ X 1 ; a : : # j J W D.,X1X1X%XN.! 8 D 7 6 > X @ * t t w * @ # 6 A W C.D.K.D.Z.S f k # @ # @ @ # & * # , P f ",
"j L U S 7 7 @ # X 3 # k s s g # , Y *.*.Z.5X$XN.y.Q D 8 G 7 > # # # - t t * # # # 7 E k.y.b.N.l.U : > y # X @ @ @ @ & & @ # j S ",
"W L W K I P # # # k a l x v c : c :.Y U <./.k.K S D A k.X.~ > % 6 2 < * * # # @ @ 7 ,./.l.l.e.S h # # 2 & @ X X X & & w @ # S W ",
"S.y.B.e.,.F ; f ; : x f F c.>.I J g g c Y I j 7 # % % O.~.^.h 7 3 > # * ; # # @ 7 A <.c./ L J : 7 # @ * & $ @ X X O O & @ # E e.",
";XL.A.M.).<.Y Y f : ] f U /.=.^ c d f j f , 7 % @ . X % 8.o.z # # # # ; 2 1 > > I K ^ =.U x z : , * @ @ & & + . X X X O X % W 9.",
"W.W.S.q.oX/.<.f j g I S =.%.#.K c g v b ; ; ; @ % @ @ @ _ ( k @ @ # # # ; 7 x P L J S K >.` , ; @ # & X X . . . + + X X X 6 ! #.",
"g.qX%X0.b.L U # f x x I ~.~ x.S a d Z k # # ; X X < @ @ @ , # # # @ @ @ @ ; ( 8.7 , > S >.` ; # @ - @ X X X X X X $ X X # A t.! ",
"#.qX7X).L U a # 7 3 > @ 9 ) 9 ; : C ; @ * @ X q = & @ @ > x f ; # * @ @ * @ # ( I 7 7 h ^ f > ; @ @ X @ X X @ = @ % % X 7 A ,.A ",
"Q .XZ.=.j j : ; # # @ X & t * : k : 1 B * @ t . & @ @ # a ] Y a > # & @ * @ @ ; P S S h ,.U j > @ X X @ @ @ @ @ # > % T D q.t.E ",
"W ! W K ; : ; # X X @ & @ # # k > > 7 k @ X t & = # # # 7 ` Y g , @ X @ # @ # # 7 f h # L 1.2.N t - @ # # @ @ X % D $..Xa.a.q.#.",
"! K K L a > ; # @ O @ @ @ # ;  .Y I # @ > # X @ @ @ # # f [ 4.>.,.8 6 > # # # X # > f > I >.2.` B y ; # # # # @ 8 %.<XpXwXH.H.$.",
"&.K L I f : 2 & = . O @ @ @ ; ' <.C.W S A $ X @ @ @ % 7 x I 2.3.z.W K D 8 7 7 # @ f ^ ..~...J 7 ; < ; ; < < i _ %.%XfXzXBXzXwX$.",
";.J Y a ; # # & q . X X @ # : 4.u.u.A.@X/ T A @ @ # > 7 j x Y ^ ! #.t.x.~ D A h h S >.,.c.h , ; # # * * * * t _ [.wXzXVXVXVXzX$.",
"g J J ; # @ & X O o O X @ ; a 5.OX&.T f.$X5X`.% $ @ 5 h S F Y U E z._._.C./ W / n.z.k.K G 7 > # # # @ @ & O & 6 $.wXzXVXCXCXfX$.",
": Y :.; ; @ & O o o = X @ ; g m.f.j.Q q.>X<XK.M.! E K K J f ; ; > <.].@X8X$X>XcX7X&X_.E L 7 ; @ @ @ @ & & & @ # R G.tXxXCXzXwX$.",
"J J , # * # & & = + . 4 @ # g |.,X:X<X9.Q a.T.7X{.`.).l.K h > , ; # 7 ,.A.+XiXvXsXeX9.n.h 7 @ @ @ X X X O O & @ 0 $.!.rXrXuX>Xt.",
"j ] x @ @ ; # X . . X X X @ f -.f.R.;Xf.9.0.a.y.N.#X}.=.L U j # # @ > ,.N.E.iXiXyXs.! A ~ 6 # @ + . . X O O O X 5 H d.I.I.P.C.~ ",
"z f > ; # # X @ X X $   % > U <.y.#X8XK.q.E A 6 ! A.z.=.~ L J @ * @ ; ^ ;.w.!.I.Q.! ! 6 ] > # @ X . . + X O & @ % 8 9.h.;.&.3.' ",
"] z f ( { : @ @ X X $ + R X.c.,.A =.%.z.t.! ! A W q.K l.l.S J # # @ > >.r.P.yXE.j.E Q 8 > 2 X = + + X X & = & @ @ > &.t.J c 6.{ ",
"@.'.@.@.8.6.F > @ $ 4 %.[.].A 5 @ 7 6 D ,.k.C.0.t.=.K n.).K L 7 : ; 7 L ;.;.s.W E 7 6 7 X t   u $ & X @ @ @ @ & # 8 X.W f J 8.+.",
"_ _ p H | 4.Y J ~ R R XXXX^.$ . @ # @ 7 S E ,.! 0.y.W =.,.W ~ h 7 f S =.b.Z.A.0.A # @ @ @ t X * & * # @ @ @ @ # B +.o.h > h { V ",
"+ . . % f g j J l.x.^.[.^.T + X X X @ # 7 G L e.*.r.&.K S W E h h U K &.C.b.=.S z # @ @ r & & @ * r < > # # # # i +.z @ @ @ @ @ ",
"  4 % X ; j g 7 h K %.%.%.4 + X # X ; # # 8 A =.&.&.&.S S W ~ E : W J &.{.D.,.I > < * w q X * w w r n s : ; # * * i # X % % X # "
};
