/* XPM */
static char *_6685_b9e7a44cb6e0e6d3ed8caea4eeb9fc835a46af79ae52d265d8aac7fec3f36385[] = {
/* columns rows colors chars-per-pixel */
"64 64 256 2 ",
"   c #2C1400",
".  c #241B02",
"X  c #2C1D02",
"o  c #251D09",
"O  c #2C1E0A",
"+  c #251702",
"@  c #331600",
"#  c #341C02",
"$  c #3B1D01",
"%  c #341E0A",
"&  c #3B1B07",
"*  c #361E15",
"=  c #2C1F13",
"-  c #1F250C",
";  c #252104",
":  c #2C2304",
">  c #2D2A04",
",  c #26240B",
"<  c #2C240C",
"1  c #2D2A0C",
"2  c #252A0F",
"3  c #332304",
"4  c #3B2404",
"5  c #342A05",
"6  c #3B2A05",
"7  c #33240B",
"8  c #3B250C",
"9  c #332A0D",
"0  c #3B2A0D",
"q  c #37310D",
"w  c #252411",
"e  c #2D2513",
"r  c #2D2A13",
"t  c #2C2A1A",
"y  c #2C2718",
"u  c #332513",
"i  c #3B2513",
"p  c #332B13",
"a  c #3B2C13",
"s  c #35261A",
"d  c #3B251A",
"f  c #332C1B",
"g  c #3B2C1A",
"h  c #2E3117",
"j  c #343114",
"k  c #3C3215",
"l  c #35321C",
"z  c #3C331A",
"x  c #3A3919",
"c  c #352A21",
"v  c #3D3321",
"b  c #3A3724",
"n  c #2F2B20",
"m  c #1A1F0B",
"M  c #431C01",
"N  c #4A1E00",
"B  c #431200",
"V  c #531E00",
"C  c #422303",
"Z  c #4A2303",
"A  c #442A05",
"S  c #4C2A05",
"D  c #43260C",
"F  c #49250A",
"G  c #432B0C",
"H  c #4B2C0B",
"J  c #532D0B",
"K  c #572908",
"L  c #45320C",
"P  c #4B310C",
"I  c #463408",
"U  c #55350E",
"Y  c #422D13",
"T  c #4B2D12",
"R  c #422C1A",
"E  c #432615",
"W  c #443215",
"Q  c #4B3414",
"!  c #43341A",
"~  c #4B361B",
"^  c #453A1C",
"/  c #4C3B1D",
"(  c #4A3A15",
")  c #533414",
"_  c #533A14",
"`  c #5A3A16",
"'  c #53351B",
"]  c #5B3619",
"[  c #543C1C",
"{  c #5B3C1C",
"}  c #5B3612",
"|  c #643C1B",
" . c #6B3E1C",
".. c #673B13",
"X. c #6E3A14",
"o. c #423422",
"O. c #443B23",
"+. c #4B3C21",
"@. c #493A28",
"#. c #533E23",
"$. c #5B3E22",
"%. c #573F2A",
"&. c #502E24",
"*. c #633D22",
"=. c #613D2D",
"-. c #5C421D",
";. c #57431E",
":. c #4A421F",
">. c #65431C",
",. c #6B441D",
"<. c #694419",
"1. c #77461E",
"2. c #4C432B",
"3. c #4A4326",
"4. c #544223",
"5. c #5C4424",
"6. c #54442A",
"7. c #5B452A",
"8. c #554A2E",
"9. c #5C4A2D",
"0. c #5A4A27",
"q. c #4D4431",
"w. c #584934",
"e. c #5F543E",
"r. c #634424",
"t. c #6A4422",
"y. c #634925",
"u. c #63452B",
"i. c #6D462B",
"p. c #634A2C",
"a. c #6B4C2C",
"s. c #6D4B26",
"d. c #744A25",
"f. c #744C2C",
"g. c #784A25",
"h. c #6C512C",
"j. c #6B582E",
"k. c #75512C",
"l. c #7B522D",
"z. c #755728",
"x. c #634C32",
"c. c #6A4E34",
"v. c #754E34",
"b. c #645134",
"n. c #6C5234",
"m. c #6C553C",
"M. c #68563B",
"N. c #745433",
"B. c #7B5533",
"V. c #7D5934",
"C. c #73553B",
"Z. c #745B3C",
"A. c #7C5B3A",
"S. c #7B563A",
"D. c #7D613A",
"F. c #6E5D42",
"G. c #7C5C41",
"H. c #755B43",
"J. c #776346",
"K. c #6C6046",
"L. c #5F5440",
"P. c #844E28",
"I. c #84542C",
"U. c #8B562E",
"Y. c #87552B",
"T. c #98592B",
"R. c #835533",
"E. c #845A34",
"W. c #8B5C34",
"Q. c #845D3B",
"!. c #8B5E3B",
"~. c #875636",
"^. c #965B35",
"/. c #8D6035",
"(. c #83613D",
"). c #8B633C",
"_. c #866537",
"`. c #93633C",
"'. c #9C643C",
"]. c #996538",
"[. c #A46A3D",
"{. c #A6673A",
"}. c #A2602E",
"|. c #835E41",
" X c #8B5B43",
".X c #856445",
"XX c #8A6343",
"oX c #896949",
"OX c #9A6642",
"+X c #936943",
"@X c #9B6A43",
"#X c #946D4C",
"$X c #986949",
"%X c #8A714A",
"&X c #9A724A",
"*X c #997454",
"=X c #956F52",
"-X c #A36C42",
";X c #AB6D40",
":X c #A46C48",
">X c #AB7144",
",X c #A4734C",
"<X c #AC734C",
"1X c #AB7A4A",
"2X c #B37344",
"3X c #B3734A",
"4X c #B47A4D",
"5X c #BB7B4B",
"6X c #B97647",
"7X c #A47552",
"8X c #A27B5A",
"9X c #AD7956",
"0X c #B37B54",
"qX c #BB7D54",
"wX c #B67857",
"eX c #AF6E4C",
"rX c #B37C61",
"tX c #9B6C52",
"yX c #C27A4D",
"uX c #C57D53",
"iX c #BB824E",
"pX c #BC8155",
"aX c #B5815A",
"sX c #BC845C",
"dX c #B68153",
"fX c #AE8353",
"gX c #A98565",
"hX c #B88865",
"jX c #C28252",
"kX c #C3845A",
"lX c #CA8859",
"zX c #D4895A",
"xX c #CE8B57",
"cX c #E48A5B",
"vX c #E7925E",
"bX c #C38D63",
"nX c #CC8B63",
"mX c #C68764",
"MX c #D48C62",
"NX c #D78B65",
"BX c #CD9166",
"VX c #D59364",
"CX c #DB9363",
"ZX c #DB946A",
"AX c #D7966A",
"SX c #DA9671",
"DX c #E39465",
"FX c #EA9564",
"GX c #EB9A65",
"HX c #EC9C6A",
"JX c #E49868",
"KX c #F19A64",
"LX c #F09661",
"PX c #E99C74",
"IX c #E28F63",
"UX c #F3A271",
/* pixels */
"y f g u % F F M Z M $ 7 Y a e O < > Y p.Q.!.^.^.^.{.eXeX3X[.].>X<X<X'.!.A.6 7 < 2 r y t f s s s t n s = i E D M M N F F F F & # ",
"f f u X i c.=XgX8XoXa.6   X < p a W 4.Z.|.R.I.U.U.^.{.eXqX4X1X4XhXwXOXd.r.8 a a , y t l u u d o.f g u i ) C.$XtXrX9X7X$X Xv.] $ ",
"f 7 % #..XgXgX8X8XgX*XJ.#.! k f p z 6.x.u.{ | t.P.U.'.eX<X@XW.U.P.g.g.J Q G 7 9 < r f r w o O u   Q f.XX7XbXnXpX4XqXqXpXsX0X!.g.",
"6.Y 7 ~ Z.oXXXl.Q.gXgX*Xb./ a . r f g a i 4 F ) *.i.!.OXE.X.K N N S t.H ` 4.! ! a p < < p p f a ) f.).,XaXBXxXyXuXyX5X5X4X;X].P.",
"+.! G 6 C A U ` s.V.A.$.6 a ! z s t e y < < 0 L F ` Z.D...C M @ $ A >.4 ( 9.4.7.6.@.! 9 : ; ; 3 t.E./.T.[.iXjX6X[.6X6X[.[.].^.P.",
"W ~ W G 4 4 $ C C G G # # ! 6.w.t t s f f j 9 1 0 Y 9.p.C   $ M   L -.6 Q { 5.7.J.J.F.6.k 9 q :.U <.d.U.[.fX4X;X5X4X4X:X!.I.1...",
"6.:.0 3 3 6 G # 4 8 0 0 a a a f t t n n t j r > 1 1 3.6.0 # 0 % 6 0.j.0.p.$.a.u.$.' T 6 5 6 ^ 0.Q Q ) r.V.XX!.R...,.f.v.G.G.H.Z.",
"9 ! ! 7 X 7 7 X a a 7 7 < < 7 e c c f e w r r r 2 ; ^ 8.z k ! 7 4.J.J.p.u.H u.$.N.{ F 4 G [ ;.4.0 7 G 7.b.u.G @ $ @ & % i g g e ",
"j p p p r r y 2 p r p p g z o.@.s * y f l p 2 , j , j q.2.1 d 2.M.3.L [ v.S.S.S.tX+Xv.J T r.y.[ +.u +.6.6.% # i E i O g v = s n ",
"r p p t r 2 t t t l f f f g @.w.m.%.E % : < 9 k > 1 1 j 3.e.L.M.O.0 8 ' c.|. X=Xv.=.| ] >.u.0.5.4.w.F.4.6.~ %.~ ~ o.g @.@.s c c ",
"p r t r t t t t t t t f u % g #.i.=.) G D 6 3 3 k q > < r l f < p 7 7 0 Y H ] r.*.| | i.N.r.r.u.~ b.J.0.7.$.p.$.$.u.#.&.Y 7 u 7 ",
"f f r t t t t t t t f u 8 8 E ) *.g.B.R.B.t.J 4 4 3 3 j a < o e u 9 8 0 0 4 F ) $.u.G.|.N.' ' p.y.y.Z.Z.A.{ r.r.i.C.$.E % # W 4 ",
"p u f r y t t t f e 7 i T *.i.~.fXsXsXsXwX9X+XR.S C $ 6 u 1 p x f 7 9 a a 0 q ( $.c.A.n.[ G Y ' 5.Q -.>.r.M 4 F $.u.F $ @ 4 H 6 ",
"8 9 u p f r y y f u % F *.!.,XhXVXCXZXVXAXAXBXuX^.f.) # X > 2 , p p 1 9 9 5 > ; ( :.:.k 3 8 8 % 6 4 6 3 6   $ 4 5.u.' D G G Q 4 ",
"0 8 0 u p e e f p 8 D { B.@XqXAXxXCXDXDXJXPXZXnXmX,XR.5.~ k j r , 2 1 j j x j q q q > : 7 0 a a 7 9 k X 9 a @.%.b.F.b.w.8.8.w.~ ",
"i 8 0 9 u p r u u Y *.B.OX<XuXzXCXGXGXGXHXHXJXMXnXwX&X#Xb.> . r 2 y r r j > > ; : > 5 4 8 Y ' 9.: ; z 1 f e b q.b w.q.q.6.@.w.2.",
"p e e r l t t r i Y *.~.-X2XyXzXvXGXGXHXHXvXzXzXVXwXOXXXZ.4.5 . w y w , u 5 # 5 C S K Z M N Z F 4 3 > 9 r r t t m h w t v f p g ",
"z p e = w w t f p a $.R.[.;XyXjXCXCXCXCXCXCXMXMXqXOXR.N.h.( > . w w o . 8 G J ..W.&X0X0XwXwX9X*XoXm.4.a 9 1 j t - l w , e + O a ",
"7 % % 7 e f f r g W ;.k.!.].;X5XjXjXjXjXuXuXqXpX@XU.t.t.5.( 9 7 + O 8 G >.k.).fXbXbXsX0X9XhXbXhXgX%Xn.[ Y 0 % O ; k 7 0 Y & D G ",
"E D 8 * i u f f p a Q -.s.l./.].].{.{.[.[.-X'.`.E.,.} ` 4.( 7 7   G r.V.&X9XpXVXBXBXkXqXwX0X<X@X$X%X.XN.*.T $ & $ F F { s.,.| J ",
" Xv.=.T % 7 u d < 1 7 0 I -.>.z.g.P.U.U.W.W.E.z.>.H 4 W / g 7 # Z g.'.0XxXiX4X[.iXlXjXsXpX<X'.~.z.B.V.t.K N V K ~.+X7XsXhX0X9X].",
"rXeX Xi.' E u p p r 1 9 5 q ( -.<. .<. .,.k.s.>.P 5 3 G ! g % & ,.].iXkXxXxX{.T.2X2X4XiX0X,X+X!.,.>.} Z B Z  .^.wXbXAXSXlX2XiX1X",
"wXwXtX Xi.#.a u p j j 9 9 q k ( { | ` } ;.;.;.( 0 5 a ! ! d d T ^.[.jXyXxX[.}.T.{.[.1XaXaX&X!.B.s.-.J Z K P.wXSXAXAXAXZXjX[.xXiX",
"rX9X$XB.=.T a 9 r r r r 1 1 9 7 $.r.r.;.;.;.:.5 5 9 z O.z u g %.].5XyX5X[.{.T.P.T.U.g.,.| { ` 5.5.L A S g.OXhXNXNXuX5XiXiXiXxXfX",
"OXhXXX] ) D X z p f f r f a a ! 7.x.n.9.;.:.:.x > 1 1 p d O s H.@X{.3X4X>X[.^.g.K K S F F 6 D 8 > 5 4 6 |.tXrXhXhXwX<X@X].].1XfX",
"R.tXV.H 6 6 7 < p p f p f d g g 0 D Y +.8.8.x > 1 q 9 p z p g c.I.P.^.-X@X@X~.,.S M $ @ # 7 7 9 j p k #..X.X+X$XOX XP.X...<.<.-.",
"_ ,.-.4 3 k ! u p p u u u i d i 7 7 X X 3 k ^ 3.9 j p 1 p d z %.] ,.~.+X=X*XoXa.F 0 X X O e f r p 1 > 2.9.' C J ] ,.} $ # A I I ",
"_ _ -.( : 5 a ; p f p u s i i i X 7 a 9 X ; 3 0 0 0 7 : u p O.w.) r.A..XoX*XoXb.! g a f f z f e j 1 j 9.4.~ # C H r.*.A # 6 ;.;.",
"_ U 7.9.0 3 a 1 p p p p u 7 u 7 a p a 9 0 7 8 4 W 6 0 ! W a x 8.~ 7.m.n.9.x.9.R Y z g z z f f r < k ~ 9.4.y.[ [ H 5.n.n.5.~ ~ 6.",
"$.;.n.n.W 7 a k r p p p u u u 9 < 9 7 7 # 4 T #.r.~ #.9.^ 1 9 k a ~ 4.~ 7 u u O p f p r r 1 f p X W 4.5.Q y.y.[ Q G #.C.H.x.7.b.",
"c.C.A.u.0 X 7 O 9 p r p 9 p 9 r a +.F.J.H.C.C.|.u.[ $.4.W 9 9 ; 0 9 a 9 X O 9 < < p f p u < u a Y ] N.p.-.y.N.5._ G T c.H.u.=.L.",
"G $.7.0 # a k 7 p 9 9 p p 9 p 9 p > 7 ~ 7.5.$.{ ) D G 8 3 k ^ 9 9 7 9 7 X : 0 7 7 W +.+.z f 9 u Y ~ Z.N.h.s..XN.>.` =.m.7.E % E ",
"5 > 5 9 7 > 7 > 7 8 a 9 8 8 8 0 7 a Y 0 0 D 0 8 0 a 7 X W c.n.5.4.^ k 0 # $ $ C ` N.C.%.&.v d e p 3.:.> 6 s.)._.).).XX.XC.4.W 7 ",
"j j 1 1 9 p 9 a p u 7 8 8 a ! ~ 6.#.~ i 7 7 u 9 , q j > 7 Q u.p.6.3.~ ~ F C Z J | i.$.F i g c v 2 j q 5 H B.+X/.+X).!.B.u.[ a 9 ",
"1 2 r 9 p j f p < p 9 u a o.6.8.b.8.+.a % 7 u p , r j 1 ; 8 / 7.6.8.b.Z.Z.N.B.V.B.N.{ G i u u c f a 7 # F *.i. .,.*.| T D Y a a ",
"< 9 u e r f f f p f f e > 9 9 q +./ ! a 8 a u f h 2 2 2 p p ! +.! ^ 4.9.N.k.V.Q.XXk.' G i < o = d i E E =.v.~.R.~.Q.i.) E i u o ",
"= % s f f y y w w y r 1 9 9 1 9 5 6 8 4 7 8 u r j 2 - h j l p a ! 6 # $ S } <.z._.f.` ~ ~ z f v * * E &.=.v.S.G.|.J.m.4.R v f w ",
"* u s f f y w = e r p 9 9 3 5 6 A A A D 6 8 8 > r 2 2 h y e p u # # 4 U ,.l.W.W.z.,.H C 6 X . < d c c d * E a L 6 W ! k z O.o.b ",
"i d d u s r e e z p 9 3 3 4 A H z.E.E.l.i.*.Q 0 : r h 2 < 9 i i $ K d.OX0XdX0XpXdX1X).k.5.Q 6 p * n c e u 1 9 > > > 1 j j r c l ",
"u u 7 e < e u p ; : 4 G >.E.7XhXsXhXBXbX9X$Xf.` 8 9 > ; 7 Y a & R.'.aXBXVXVXCXCXVXVXpX].k.` 4 3 s n t e < q > ; 5 > ; > > ; , e ",
"0 7 ~ k . > ! O 6 8 ) E.aXkXkXVXCXAXCXMXnXpX:X!.V.5.G 4 4 Y u. X:XqXlXNXDXHXHXvXvXCXxXfX@XE.>.A 1 t h q > > : > 5 6 6 6 A A 8 6 ",
"L . ; 5 > 7 0 3 G { ~.0XBXVXcXHXHXHXDXCXMXnXwX,XQ.h.[ G T i.|.$XuXMXJXFXFXKXKXKXvXvXzXiX>X].g._ k h > ; 5 I I 6 z.z._.&X*X$Xv.K ",
"j.( 6 5 5 0 3 6 ) V.7XmXZXNXcXLXKXKXvXFXNXMXkX<XW.k.` S ] S.$XOXeXuXzXzXcXvXLXKXKXvXxX5X>X@XU.r.3 a L 3 A ,.`.&XfXpX4X3XrXuXwXOX",
"%X%Xj.I 3 7 6 6 y.(.7XqXMXIXcXcXvXKXKXHXJXzXwXOX~.d.) A ` v.S.R.{.3XuXzXcXvXKXKXHXvXxX5X>X+XI.t.Q 4 # P V.fXkXjXjXzXJXNXPXuXuXyX",
"%X*XD._ 6 3 6 6 5.Q.&X0XMXIXFXKXGXHXHXJXNXqX-X~._.-.G G [ u.u.t.~.{.0XjXjXjXxXxXCXxXqX1X@X(.k.5.D $ H E.aXsXqX6XuXJXUXUXPXPXrXrX",
"+X).A.n.5.0 7 7 Y n.#X7XwX6XyXuXCXCXMXuX3X-XW.l.s.L 6 k ~ ~ ) [ *.l.`.@X;X[.[.{.[.].'.W.l.a.{ Q X D n.*XaX1XqXZXJXVXzXxXuXSXrXuX",
"I.l.XX|.%.8 0 7 7 4.C.).!.^.T.T.2X>X[.^.U.g.t.` W q > 1 k ^ k L ) r.B.Q./././.Y.g.g.z.r.[ W 0 u z 6 [ XXgXsX4X6X2X{.[.2X1X&XtX X",
"K *..XN.# # k 9 7 Y [ i.).!.U.U.Y.E.R.R.g.*.) 0 0 j j 1 p x k 0 0 ) $.r.t.t.<...<.,.>.;.W 9 1 r > a 0..X*X].g...X.X.<.<.U C # M ",
"D E ' ~ Y a 9 . 0 0 +.5.$.{ r.r.s.i.u.] Q E 0 9 1 r j j l 3.b 9 a a 4.p.;.;.>.` ;.;.W 9 7 r t f a 8 #.Z.n.' F F @   G #.W X . O ",
"u a a a a 7 9 a 9 a / 6.4.#.5.' 5.~ Y 8 8 u u f < e 1 r p x x j k a +.6./ ;.9.;.0.4.~ 9 . e e e a Y #.x.y.#.( G Y 3 0 ! 9 , p l ",
"% a 7 7 a 7 X k 9 a +.0.7.8.p.7.~ W W k +.3.k p p 9 p 9 > 7 0 0 7 a ! 4.;.;.0.0.0.4.~ 9 e r f f 9 Y / #.[ 5.{ ( [ G 0 9 7 p a > ",
"g ! z ~ 8.k . 9 7 a 4.6.7.7.x.x.( ( ^ 4.6.2.^ 9 z 9 a k 7 3 6 8 7 a +.4./ ( Q 0 0 W k 9 f f f e 7 #.p.#.;.9.p.5.p.[ Q G Y +.#.a ",
"~ 6.@.w.F.6.: u 9 a ~ +.0 0 ~ ~ ^ k q 5 5 1 p a 9 3 7 Y 8 4 D G a ~ +.( 0 6 X + X : 3 ; < r y w a m.J.x.9.y.y.h.h.[ A # 4 5.p./ ",
"z R a ^ 8.O.< 7 9 9 ! a X X 4 8 9 5 > : ; ; 1 9 p 7 8 0 4 4 8 4 0 ~ a X X 3 X 3 : 3 O X O e f f a b.Z.0.[ Q P r.a.-.H 4 G [ [ 4 ",
"7 % O 7 u 9 < O 9 < a 9 3 # i 0 : > a p p 1 1 < a 9 a u 9 Y W 6 a ! a X # 3 6 0 7 0 9 < < f f p 9 ~ / G G # # -.Z.N.N.z.h.N.r.C ",
"% u u u : 9 u > 9 7 7 a 7 8 a 7 u a 1 < < r r l w 2 r > p 3.8.+.~ 9.' 7 9 0 3 7 > 0 p u e f s e u W 7 3 G # 4 h..X_.D.(.A.D.A.-.",
"u 7 7 7 < < ; < ! 6.2.a : 7 a 7 i u d s u t r e 2 l x r 2 j b 2.+.b.H.F.m.F.M.b.@.k ; O u f f e u 7 7 q G 3 A -.-.-.{ ` _ P F C ",
"% u < < < O < ; p 2.K.J.J.M.4.i d u u u f g c f q.2.b r ; ; 1 x g ~ #.%.9.6.^ p a 9 < < u f s f a 7 > 0 3 # G { ` -.r.y.r.) F # ",
"u u u u u 9 < p a z ^ +.O.~ ! E R i % * s s u e t 2 < l x 1 > 7 Y 0 8 0 0 7 u a u a p f u e u f p 1 1 0 0 W :.0.n.C.Z.Z.C.9.W 8 ",
"u u u p u f p p , < 9 u 7 % 7 0 E i i i R g g g ^ f 9 5 0 5 0 G 8 D a 0 3 . a 3.2.2.@.v f u u e p r r a k / 6.6.9.9.9.7.#.&.Y 8 ",
"u < u e r e p p . < a z ! a +.9.9.9.7.7.~ a & 7 X 8 D C M Z Z M @ # 0 R a 7 f o.L.e.q.O.z f f u e r p 1 p z k a u 7 < % 9 u d d ",
"u u e u < u 1 r 1 e 7 < # a #.m.Z.N.n.p.' C 4 A ) B.$XtXtXwX:X!.] Y & % 8 a a u 2.@.c l f s u u , 2 r r p p a < u 7 u u s f c f ",
"p p u u f r p f < f g a u a g ! ( I I _ { y.N.%X8XhXhXwXwXuXBXmX=XF.~ X % a z p f r e w u = % y 2 2 2 p p r 9 u p f s u t s y = ",
"u u u u u p 1 r 1 p a 9 7 a 8 7 G 5 4 I -.N.*XhX9XwXwX3XeXyXuXmXhX*Xm.Y 7 9 u < e u p u u u u f r r t r e , O e f p y y c n n n "
};
