/* XPM */
static char *_2658_e6ab3a7a5e063be40b89e45d1cb524e5c908ec5e6d08b01caf096b885405c8bc[] = {
/* columns rows colors chars-per-pixel */
"64 64 246 2 ",
"   c #0A0500",
".  c #0B0D03",
"X  c #150400",
"o  c #1B0100",
"O  c #160C00",
"+  c #0C1601",
"@  c #1B1401",
"#  c #1D1B04",
"$  c #1D1C0C",
"%  c #161807",
"&  c #121E14",
"*  c #240200",
"=  c #2E0200",
"-  c #230C01",
";  c #360100",
":  c #3C0200",
">  c #3D0C02",
",  c #330D04",
"<  c #231402",
"1  c #2A1402",
"2  c #241A04",
"3  c #2B1C06",
"4  c #2C160A",
"5  c #241C0B",
"6  c #2C1C0C",
"7  c #27160C",
"8  c #351302",
"9  c #33170A",
"0  c #3D130A",
"q  c #331B0C",
"w  c #3C1C0B",
"e  c #3C1805",
"r  c #2B1C13",
"t  c #241E10",
"y  c #341D13",
"u  c #3D1E13",
"i  c #3D1D1C",
"p  c #381513",
"a  c #18230C",
"s  c #1D2313",
"d  c #1C2B13",
"f  c #1B2C1C",
"g  c #162415",
"h  c #1D301D",
"j  c #0A2917",
"k  c #25230C",
"l  c #2C220E",
"z  c #292407",
"x  c #33240E",
"c  c #3A270C",
"v  c #2A320D",
"b  c #222414",
"n  c #2C2513",
"m  c #262B15",
"M  c #2C2B14",
"N  c #26241C",
"B  c #2D251C",
"V  c #242B1B",
"C  c #2B2C1C",
"Z  c #342413",
"A  c #3A2214",
"S  c #332A15",
"D  c #3A2B15",
"F  c #33251B",
"G  c #3B251C",
"H  c #342C1A",
"J  c #3B2C1B",
"K  c #2D3216",
"L  c #2B331C",
"P  c #233318",
"I  c #343315",
"U  c #3A3416",
"Y  c #34331B",
"T  c #3B331D",
"R  c #36391D",
"E  c #3D391D",
"W  c #381E20",
"Q  c #1C2D21",
"!  c #1E3224",
"~  c #193427",
"^  c #262622",
"/  c #242B23",
"(  c #2C2C23",
")  c #2A2A26",
"_  c #3A2523",
"`  c #332B22",
"'  c #3B2C22",
"]  c #382A28",
"[  c #243322",
"{  c #2C3424",
"}  c #2A3C23",
"|  c #2C342A",
" . c #283928",
".. c #353323",
"X. c #3C3321",
"o. c #343923",
"O. c #3C3921",
"+. c #3B332A",
"@. c #3D3C2A",
"#. c #333728",
"$. c #393031",
"%. c #440100",
"&. c #4C0100",
"*. c #430A02",
"=. c #4A0A04",
"-. c #4C0C0C",
";. c #4C0509",
":. c #540101",
">. c #5C0101",
",. c #520A03",
"<. c #5C0A05",
"1. c #5C050A",
"2. c #530E0C",
"3. c #5D0D0A",
"4. c #570708",
"5. c #431504",
"6. c #42140B",
"7. c #4E120D",
"8. c #4A1B0C",
"9. c #461B0C",
"0. c #561106",
"q. c #53120C",
"w. c #5B120C",
"e. c #501C0F",
"r. c #4B1312",
"t. c #441C12",
"y. c #4C1D14",
"u. c #441D1B",
"i. c #4C1E1B",
"p. c #5D1411",
"a. c #571816",
"s. c #640101",
"d. c #6C0102",
"f. c #630A04",
"g. c #6B0904",
"h. c #640509",
"j. c #6C040A",
"k. c #640B0B",
"l. c #6C0A0B",
"z. c #730202",
"x. c #7C0101",
"c. c #730A04",
"v. c #7B0905",
"b. c #730409",
"n. c #7C0509",
"m. c #73090B",
"M. c #7A0A0A",
"N. c #65130D",
"B. c #6A130C",
"V. c #66160A",
"C. c #79130F",
"Z. c #760C10",
"A. c #7D0B13",
"S. c #750611",
"D. c #641412",
"F. c #6D1514",
"G. c #6B1A13",
"H. c #631B1A",
"J. c #681C19",
"K. c #741514",
"L. c #7D1513",
"P. c #721B15",
"I. c #7C1A15",
"U. c #73151B",
"Y. c #751B1B",
"T. c #791C1B",
"R. c #690E13",
"E. c #4B220D",
"W. c #43230E",
"Q. c #55220F",
"!. c #442314",
"~. c #4B2414",
"^. c #432B15",
"/. c #4B2913",
"(. c #43241B",
"). c #4C251C",
"_. c #442C1B",
"`. c #4A2D1B",
"'. c #522415",
"]. c #592213",
"[. c #522A15",
"{. c #5B2419",
"}. c #552C1B",
"|. c #5B2D1B",
" X c #55201C",
".X c #42341D",
"XX c #4B331C",
"oX c #453A1F",
"OX c #423316",
"+X c #57311C",
"@X c #66251C",
"#X c #73211A",
"$X c #75201A",
"%X c #7C1A22",
"&X c #432522",
"*X c #442B22",
"=X c #4C2C22",
"-X c #452E2A",
";X c #522D22",
":X c #5A2824",
">X c #443123",
",X c #4B3423",
"<X c #453B22",
"1X c #4B3A22",
"2X c #41392A",
"3X c #4D3B2A",
"4X c #48342B",
"5X c #593927",
"6X c #513529",
"7X c #553624",
"8X c #6C2422",
"9X c #612923",
"0X c #732221",
"qX c #37471C",
"wX c #2F4127",
"eX c #354226",
"rX c #474329",
"tX c #474632",
"yX c #830202",
"uX c #8B0202",
"iX c #840904",
"pX c #8C0B05",
"aX c #84040A",
"sX c #8C040A",
"dX c #840A0A",
"fX c #8B0A0B",
"gX c #930103",
"hX c #9B0103",
"jX c #930907",
"kX c #93030A",
"lX c #9B030A",
"zX c #92090B",
"xX c #9A090A",
"cX c #9D0907",
"vX c #8A1108",
"bX c #83120E",
"nX c #860B13",
"mX c #8B0B12",
"MX c #880815",
"NX c #930A11",
"BX c #831414",
"VX c #831619",
"CX c #861715",
"ZX c #A20002",
"AX c #AB0102",
"SX c #A1060C",
/* pixels */
"] ] ( ` &Xi G ` ..O.3XtXX.O.3X1XrXoXOXD D J *X>XG *X>XA y G >X>Xt ` 2X' J ' 3X1XD J G Z H O.' n >XJ O.Y D _.E I 2 Z &X' ( Q ^ ) ",
"^ ( / ^ G &XF n k n T 3XO.E D q c D .XoX<X.XD n l J J H H X.' H $ C Y T J .X*XD 3 Z D H H X.n # r Z Y H Z .XE M S Z y r & & Q ) ",
"Q ! ! h n ' n @ $ z D <XqXR x < < z S E oXI k @ @ k M m L L d + s V L Y X.R Z 2 < 3 x S H H n @ 3 Z o.K c .XU @ z l Z n g j ~ ~ ",
"! [ h m G ).u 1 ^.W.~.|.XXXX/.5.W.E.[.|.+X+X~.!.q A G T J S l @ S J G _.*X`./.e e 9.!.!.~._.A w 6.W.XX`.E.[./.8 w W.).(.^ Q ~ | ",
"` r r (.8XU.F.F.$XK.BXI.B.G.I.C.BXBXBXBXVXVXVXT.Y.$X0XJ.H.a.a.r.-.r.2.q.D.J.Y.$XY.U.K.K.K.U.U.Z.f.s.N.P.L.BXI.K.%X%X%Xp.p r W ] ",
"-Xy 9  X%XVXnXmXfXsXxXzXiXv.iXuXkXsXsXsXsXsXaXyXaXM.b.d.>.>.>.:.:.:.:.>.s.d.b.n.aXaXmXmXMXMXnXaXaXz.z.nXsXgXNXmXA.MXA.U.a.u.W W ",
"] F y a.U.nXaXsXgXgXZXZXuXyXpXuXfXfXfXaXfXaXx.z.s.s.>.:.:.&.&.%.&.:.:.>.s.s.z.z.x.yXuXsXsXsXuXyXlXyXyXuXuXgXgXsXaXaXMX%X:X&Xi W ",
"$ k q 9.Z.mXzXgXZXhXZXZXuXpXjXpXyXv.x.x.x.x.z.d.d.s.s.f.F.k.<.:.:.&.:.s.m.b.z.x.x.yXyXyXuXsXkXNXyXyXv.x.uXhXxXuXmXMXA.R.r.F F ] ",
"} m a e G.bXuXuXcXhXhXhXpXvXiXyXdXz.v.z.z.s.d.z.z.v.v.g.d.h.h.<.%.%.:.w.f.>.d.M.v.z.z.z.d.x.x.dXx.v.c.z.yXuXuXiXn.z.K.D.1 . a  .",
"wXo.v !.$XvXpXjXhXhXAXhXiXiXiXiXv.z.d.d.d.z.v.pXiXv.v.d.d.d.s.:.:.%.&.N.f.>.s.v.v.v.x.z.z.z.x.x.x.v.c.z.yXuXyXiXM.c.K.@Xx # d } ",
"o.R D {.CXzXgXZXZXAXAXZXuXyXyXyXz.d.d.d.z.iXiXvXpXx.x.z.z.s.>.:.k.:.:.d.m.d.z.x.yXuXpXuXyXyXx.x.x.iXv.x.uXgXuXyXiXz.M.$X~.l P o.",
"n J ^.].BXpXgXZXAXAXZXZXgXsXx.d.d.z.z.x.iXpXjXyXiXx.z.x.b.s.s.>.h.>.>.s.d.x.x.x.yXyXpXgXuXuXyXyXz.z.z.x.gXlXgXyXx.d.z.T.}.D R O.",
"S J ^.].CXpXpXhXZXZXhXgXaXz.d.s.z.yXzXsXjXjXjXuXuXyXx.x.z.s.s.j.>.j.s.>.d.M.dXx.x.yXuXiXpXuXyXyXz.d.d.z.uXzXsXx.x.d.g.P.|.XX2XrX",
"T T ^.].VXvXuXxXgXhXSXkXd.s.s.z.yXkXlXlXhXhXhXhXuXuXyXx.d.>.>.j.>.j.j.>.s.n.fXx.x.yXyXiXyXyXx.iXaXn.s.s.z.uXyXv.z.s.d.G.}.OXoX1X",
"J ^.c 8.I.pXuXgXuXjXlXyX>.:.h.A.NXkXgXgXhXgXgXgXuXuXiXz.s.>.1.h.1.j.b.d.d.z.yXsXyXyXuXyXyXyXyXiXnXn.j.s.z.x.dXiXz.d.g.C.].^.^.OX",
"J x 1 5.K.fXpXjXjXgXyXz.s.>.S.MXNXgXuXgXhXhXuXuXuXiXx.s.>.s.h.s.j.d.b.b.d.d.x.NXuXuXuXyXyXiXx.yXz.n.b.z.x.x.v.v.v.z.v.$X|.^./.^.",
"Z < @ c K.mXlXlXxXsXyXd.d.z.fXkXsXgXgXgXgXgXsXsXx.z.d.s.d.z.x.x.z.v.z.z.x.z.z.kXkXsXsXuXuXuXuXyXyXaXMXaXyXz.d.v.z.d.g.#X8 X c 5X",
"J n k D P.MXlXlXuXx.x.z.x.iXgXgXuXgXgXgXgXgXuXaXM.d.s.s.z.z.x.x.z.x.x.z.yXx.x.sXsXsXuXuXuXyXyXuXyXyXyXsXyXz.d.g.c.v.m.#Xw < /.5X",
">XY Y `.Y.MXkXlXx.z.z.x.yXjXgXgXgXuXgXgXgXsXuXaXx.d.s.d.z.yXyXyXyXx.x.iXiXx.x.x.sXsXyXuXyXyXyXyXuXyXyXaXyXz.s.s.z.M.g.G./.z ^.;X",
"J S H `.Y.MXsXsXd.d.z.uXjXiXuXhXgXgXgXgXgXgXuXyXx.d.s.z.dXyXuXpXuXyXyXyXfXyXx.x.aXyXyXyXx.yXyXyXsXaXyXyXuXx.d.s.s.v.d.3.`.D ^._.",
"H S S ~.Y.nXaXiXd.d.x.gXgXuXgXxXgXgXhXgXgXgXsXuXsXz.z.dXsXyXuXuXjXyXyXsXdXdXx.d.z.x.x.x.x.yXyXyXfXaXx.yXsXyXd.s.s.v.g.D.7XoX_._.",
"J Z Z ~.Y.nXn.d.s.d.uXlXhXgXuXjXgXhXgXhXhXgXgXsXyXyXyXsXuXuXgXgXjXuXuXyXx.aXx.s.d.z.x.x.x.x.x.yXaXx.x.yXaXx.d.s.s.b.g.D.7XE ,X_.",
"J Z 6 8.Y.nXz.:.>.g.zXlXhXgXuXuXgXgXhXgXjXzXkXfXx.yXuXsXpXgXhXxXgXuXuXsXx.v.v.s.>.d.z.v.x.x.x.yXyXx.x.yXyXx.z.c.d.d.h.#XXXI ,X_.",
"J l 1 5.U.CXd.&.>.c.zXZXZXhXgXyXgXgXgXgXgXgXkXzXx.uXfXuXuXgXgXhXgXyXuXyXz.x.m.s.>.s.d.z.z.x.x.x.x.x.yXaXyXx.c.L.d.s.d.0X_.M 3X>X",
"2XZ 4 e F.Z.>.:.<.c.uXZXZXhXuXgXuXgXgXyXuXzXuXx.z.yXuXuXgXgXgXuXuXyXyXx.x.z.d.g.s.>.s.d.v.x.x.x.x.x.x.x.yXx.z.g.d.s.s.%.9 O k >X",
">X.XJ ~.P.d.>.s.g.c.gXhXhXgXuXyXgXgXuXuXyXiXyXd.x.yXsXuXuXuXuXuXuXyXyXx.x.z.b.g.s.s.>.d.c.z.x.z.x.z.x.x.yXx.d.g.d.d.s.%.q @ r ' ",
"J J T `.D.s.>.s.g.v.gXZXgXgXyXyXgXuXuXyXyXx.z.d.x.sXkXsXuXyXyXyXyXyXx.x.z.z.d.z.g.s.>.s.z.z.z.v.z.x.x.x.yXx.g.c.z.d.j.&.A 5 n ' ",
"G S M ^.@Xd.>.d.v.iXgXhXgXuXuXuXuXuXyXyXx.d.d.z.x.fXmXsXyXyXx.x.x.x.z.z.z.z.d.j.m.s.s.s.d.g.c.z.z.z.x.x.x.x.z.g.z.d.s.%.J m ` X.",
">XT K U {.f.s.x.yXyXgXhXgXuXuXpXuXyXx.aXz.s.d.b.z.n.aXaXx.x.v.x.z.z.z.z.d.z.d.b.m.d.s.>.s.d.d.g.z.z.z.x.x.x.d.d.b.j.>.%.*XC ` ` ",
"_..X} E e.:.d.sXsXkXhXgXuXyXyXuXuXuXyXv.d.s.s.l.d.z.x.z.z.z.z.d.d.d.d.d.z.d.z.d.b.z.d.s.>.d.g.g.z.z.z.z.x.x.d.g.z.d.>.%.J C H B ",
"y Z P L 8.&.d.kXzXlXgXgXuXyXyXyXuXsXdXz.s.>.s.m.d.d.z.z.d.z.g.s.d.d.d.d.d.z.z.d.d.b.d.s.>.s.d.g.z.z.z.x.x.x.d.g.b.d.s.%.' C ( B ",
"y 6 a v ~.>.d.sXlXlXlXgXyXiXyXuXyXyXv.z.>.>.g.m.d.z.d.d.z.j.g.d.d.d.d.d.d.d.d.d.d.b.M.d.>.s.s.g.g.z.z.z.x.x.b.d.b.d.>.%.H L ..` ",
"-XH . M 6.:.s.sXlXhXhXuXyXiXuXuXx.z.d.s.d.v.v.z.x.x.x.z.z.b.m.d.d.b.d.j.s.s.s.s.g.d.d.d.g.s.s.g.s.d.d.z.yXyXb.d.b.d.h.: 5 + m ..",
"-X] $ H i.&.s.aXkXlXlXgXiXiXgXyXiXb.d.d.z.x.yXx.x.x.x.z.z.b.d.d.b.b.d.s.s.s.>.s.d.d.s.g.d.d.>.s.>.s.d.z.yXx.d.d.b.s.>.; 6 % k M ",
"] ` N ' :X&.s.n.uXlXhXgXyXiXuXyXn.d.d.z.aXaXyXx.yXyXx.z.z.z.d.d.d.j.d.s.s.s.s.s.d.z.d.d.d.s.>.>.s.s.d.d.x.x.d.s.b.s.:.: J P M Z ",
"B B C G 9X&.s.z.yXuXhXuXyXiXyXx.x.d.d.z.dXiXyXyXyXx.x.x.x.z.z.d.d.d.d.s.s.s.d.d.z.z.z.z.M.d.>.:.s.s.g.z.z.b.d.f.Z.s.:.%.2Xo.X.J ",
"C C C (.H.&.>.d.n.uXgXuXyXv.iXx.v.d.d.z.dXx.yXyXyXyXx.x.x.x.z.d.d.j.s.d.d.d.z.z.x.x.x.x.z.g.s.:.s.d.g.g.z.g.f.3.h.>.:.: _.Y J J ",
"{ ..n !.H.:.:.s.m.aXgXgXyXv.v.v.x.z.z.x.yXx.x.yXx.x.x.x.x.x.z.z.j.h.d.h.d.d.z.x.x.yXyXx.x.z.s.>.>.s.d.s.s.s.<.,.h.>.:.%.J S G _.",
"[ L 7 t.D.s.:.>.g.x.kXgXyXz.c.z.d.z.x.v.x.x.x.yXyXx.x.yXx.x.x.z.s.h.s.s.d.z.x.x.yXuXsXyXx.M.d.>.>.s.s.>.>.>.,.=.:.:.>.=.>XH _._.",
"d m O r.R.d.:.:.>.z.uXsXyXz.g.s.>.d.x.aXiXiXyXuXx.yXyXx.x.x.z.d.s.>.s.s.d.z.x.yXuXsXlXsXyXz.g.d.:.s.>.:.:.:.=.*.&.&.:.&.,XT >X=X",
"wXm - > h.j.>.:.>.z.sXyXx.m.d.>.d.z.v.x.x.x.x.x.x.yXiXiXaXx.x.d.s.>.s.s.d.x.yXyXlXlXlXuXx.z.d.g.s.s.>.&.&.,.*.; &.&.1.4.q 2 A 6X",
"wXR D {.T.L.d.>.>.d.x.yXz.d.s.>.d.z.v.z.z.v.x.v.x.x.iXv.aXx.z.z.>.>.s.d.d.x.yXuXxXlXkXuXyXx.z.g.d.s.:.:.&.%.> : &.:.1.4.9 < 3 _.",
"L K ^.}.K.b.s.>.>.s.z.v.l.f.>.>.z.m.M.d.z.z.v.v.v.v.v.x.x.x.z.b.>.s.s.d.d.z.yXkXlXgXsXuXyXz.z.z.j.>.:.:.:.%.; : &.:.h.p.u k x (.",
"Y E XX|.F.z.d.g.>.s.d.m.B.>.>.>.l.j.d.s.>.s.s.d.d.M.v.M.z.d.z.d.s.s.d.d.z.x.iXsXsXgXuXuXyXv.z.g.m.s.:.:.&.%.; %.&.>.j.H._.S S J ",
"E .XXX|.F.z.z.M.s.>.s.d.<.:.>.s.s.>.>.:.:.:.>.>.s.z.c.z.b.d.d.d.d.s.s.d.z.v.yXyXuXuXuXyXyXx.v.d.j.s.:.&.&.&.*.: :.j.S.J./.M l n ",
"c D OX[.B.z.z.x.d.s.>.>.&.&.>.d.s.>.>.>.>.>.>.s.>.d.m.b.d.d.d.s.b.d.d.d.z.v.iXx.yXuXyXyXyXiXz.d.h.s.:.&.&.;.*.: h.j.S.D.(.I Y S ",
"XXD c W.F.n.x.x.v.z.s.:.%.:.d.b.j.>.>.f.l.f.d.s.:.s.g.j.d.j.j.d.b.z.d.d.z.z.x.x.yXyXyXyXx.x.z.d.s.:.:.:.:.&.%.&.s.j.j.k.D U R R ",
"1Xc 1 > <.z.yXyXnXdXz.:.&.<.S.A.s.>.>.f.k.<.>.>.>.j.m.j.s.d.j.d.b.z.z.d.d.z.z.x.yXx.x.x.x.x.z.s.>.:.:.p.4.%.%.3.j.d.d.1.w M S M ",
"rXz 1 5.g.x.iXyXfXsXyXd.>.h.j.h.s.s.s.h.l.k.>.:.>.g.m.d.d.d.h.d.s.s.s.g.z.b.z.z.z.z.z.z.d.d.d.d.:.:.4.:.&.:.:.s.d.d.g.w.> - 1 Z ",
"oXc c Q.B.v.dXiXsXyXx.d.>.&.1.j.h.>.>.:.>.1.>.:.>.s.b.d.d.z.z.d.s.s.s.d.d.d.z.b.z.z.z.d.d.d.z.g.4.:.:.&.>.>.d.g.d.j.h.w.9.8 q J ",
"R I U E.w.c.z.z.z.d.z.d.:.%.&.4.3.:.&.&.%.&.:.>.s.d.z.x.x.aXyXx.s.>.>.s.s.s.d.d.b.z.z.d.d.z.z.m.<.:.%.&.>.s.z.M.z.s.h.q.y.w J O.",
"E oXoX[.f.g.z.d.d.z.x.M.w.&.%.%.>.,.&.&.&.&.:.>.j.b.x.x.x.aXx.z.>.:.>.<.>.s.s.f.g.d.d.b.d.d.d.d.>.&.&.&.>.j.g.z.g.d.>.w.e.^.J R ",
"3X7X5X@Xl.x.iXx.z.yXyXx.g.f.>.:.>.>.>.>.>.<.<.h.d.j.d.z.d.z.d.s.>.>.>.<.>.s.s.s.h.h.j.l.j.s.>.:.:.&.:.>.s.d.d.d.d.s.>.w.'._.Y K ",
"6X=X;X{.l.z.yXx.x.yXyXz.s.g.g.s.>.>.s.>.>.>.>.s.s.s.d.b.d.d.d.g.>.>.>.s.>.>.s.d.s.s.f.k.<.:.&.&.:.>.h.d.g.d.z.z.z.d.s.w.'._.S K ",
">XZ Z y.3.s.z.d.z.z.z.z.d.f.d.d.s.>.>.:.:.:.>.>.d.b.z.n.v.z.d.m.s.s.g.s.s.>.>.d.h.4.:.,.&.%.*.&.>.f.d.g.d.z.z.x.z.b.h.0.y..XR Y ",
"..t 5 (.p.h.f.g.d.z.v.bXg.s.s.d.l.d.:.:.:.:.>.s.s.d.b.M.b.d.s.d.s.s.d.s.s.>.>.h.<.<.&.%.: : *.0.>.>.>.s.d.d.z.z.x.b.h.3.'.XXO.O.",
"` b   1 -.N.>.V.d.d.z.z.g.g.z.z.A.Z.s.>.>.:.:.:.>.m.j.g.d.>.k.:.>.k.<.:.:.:.:.4.&.%.%.%.&.&.-.p.G.g.s.g.b.z.z.b.b.h.h.2.6.9 n ..",
"/ | B _ 7.&.&.>.f.g.z.z.g.d.z.z.d.b.h.s.h.>.:.>.&.:.&.:.=.%.7.7.: *.=.%.&.&.%.%.%.%.%.&.=.&.&.4.f.>.s.>.s.s.s.j.j.s.1.-.6.4 5 n ",
"^ ` ' *Xa.:.&.>.>.g.d.z.f.d.b.z.d.d.m.h.k.<.<.w.&.&.: : = o o o o - * * = ; : =.&.;.,.w.N.<.1.<.:.:.:.>.:.:.1.1.1.;.;.r.y.Z n n ",
"^ N ( F :Xq.q.q.0.3.f.f.3.2.s.s.k.Z.k.3.w.q.2.a.e.r.0 t.u 1 6 7   5 n >X3X=X0 0 *.=.=.2.4.:.:.&.,.0.,.w.q.=.;.;.2.-.r.i.&XG C C ",
"| Q Q s 6Xp 0 8 /./.'.'._.!.6.> y.'.~.t.!.w 8 0 ).:Xy.=X=X(.y @ #.o.C B H r q w ;X:X9X@X@XQ.0.=.Q.Q.].}.}.t.0 , &Xu.&X&XF t t V ",
"/ Q Q ^ ' 9 < 3 E T _._.R C 6 O Z J D S J l < - _.;X(.&X_.y 7   b C ( ....6 X X ^._.XX[./.e 8 1 [./.XXXX,XZ 7 @ &XF _ _ r % % s ",
"^ ^ & N G u 6 A T H S H L P b 7 n T Y I C n k n J J G 2X@.( { { @.$.( r ` F Z ' T .XoXR U I v z c ^.OX1XO.M b b ( N N ( ^ s g ! ",
"$.) . $ p ).y T R H H L } } { C C R Y m m m ..tX2XX.B @.#.a f | ( ` B _ X.` H Y U R v v v qXqXqXc OXrXrXeX{ { | { V N | #.[ Q P "
};
