/* XPM */
static char *_5d6ef37fe5844e2b0b0cbc1fc4c4968HSb4o9MVpPqXZbYO[] = {
/* columns rows colors chars-per-pixel */
"87 87 190 2 ",
"   c #000500",
".  c #030B00",
"X  c #0A0E00",
"o  c #120D00",
"O  c #0C1200",
"+  c #0F1900",
"@  c #121601",
"#  c #1A1603",
"$  c #151A03",
"%  c #191D05",
"&  c #19170A",
"*  c #151E09",
"=  c #1B1E0A",
"-  c #1C1D11",
";  c #221E0B",
":  c #201E11",
">  c #172005",
",  c #1C2106",
"<  c #1D230B",
"1  c #1F280E",
"2  c #22250D",
"3  c #23290E",
"4  c #282A0E",
"5  c #232611",
"6  c #292613",
"7  c #252B13",
"8  c #2A2C15",
"9  c #252719",
"0  c #29271A",
"q  c #262F18",
"w  c #2C2D19",
"e  c #322F1B",
"r  c #273016",
"t  c #2B3116",
"y  c #27311A",
"u  c #2D331B",
"i  c #2F381E",
"p  c #31351D",
"a  c #343A1E",
"s  c #383D1F",
"d  c #312F22",
"f  c #2F3620",
"g  c #2F3920",
"h  c #333621",
"j  c #3A3623",
"k  c #353A23",
"l  c #3A3D25",
"z  c #33352A",
"x  c #363D29",
"c  c #3B3E29",
"v  c #3E3F31",
"b  c #403E2B",
"n  c #413F30",
"m  c #374025",
"M  c #3C4126",
"N  c #37402B",
"B  c #3D432B",
"V  c #3F482D",
"C  c #3E4531",
"Z  c #3F4931",
"A  c #404326",
"S  c #414827",
"D  c #42452D",
"F  c #48462F",
"G  c #44492E",
"H  c #484B2E",
"J  c #47512F",
"K  c #444631",
"L  c #484633",
"P  c #454A32",
"I  c #4A4D34",
"U  c #454E39",
"Y  c #4D4F39",
"T  c #4C4E39",
"R  c #504E35",
"E  c #514E3B",
"W  c #475033",
"Q  c #4C5136",
"!  c #4F5937",
"~  c #47503A",
"^  c #4B5039",
"/  c #49513A",
"(  c #4D5139",
")  c #4C513A",
"_  c #4D513A",
"`  c #4E503B",
"'  c #4D523B",
"]  c #4F553B",
"[  c #4E533C",
"{  c #4F533C",
"}  c #4F543D",
"|  c #4D523A",
" . c #4F583C",
".. c #505436",
"X. c #52553A",
"o. c #515439",
"O. c #50523C",
"+. c #50553E",
"@. c #51563F",
"#. c #52563E",
"$. c #52553C",
"%. c #55593D",
"&. c #595C3E",
"*. c #56613F",
"=. c #5A613F",
"-. c #4E5641",
";. c #525540",
":. c #525740",
">. c #525741",
",. c #555742",
"<. c #545641",
"1. c #535841",
"2. c #535842",
"3. c #555940",
"4. c #545942",
"5. c #555A43",
"6. c #575D43",
"7. c #575B44",
"8. c #565E46",
"9. c #575C45",
"0. c #555A42",
"q. c #5B5E43",
"w. c #585B46",
"e. c #585D46",
"r. c #595E47",
"t. c #5A5E47",
"y. c #5A5D43",
"u. c #5A5F48",
"i. c #5B5D48",
"p. c #5D5F4A",
"a. c #5C5E49",
"s. c #605E47",
"d. c #615D4A",
"f. c #576042",
"g. c #5D6245",
"h. c #5E6846",
"j. c #5B6049",
"k. c #5C614A",
"l. c #5D624B",
"z. c #5F614B",
"x. c #5E634C",
"c. c #5F634C",
"v. c #5F614C",
"b. c #5F644D",
"n. c #5E624A",
"m. c #5D6651",
"M. c #5F6853",
"N. c #616546",
"B. c #626847",
"V. c #61664F",
"C. c #61644F",
"Z. c #62654B",
"A. c #656A4C",
"S. c #696E4E",
"D. c #6A704E",
"F. c #626550",
"G. c #646751",
"H. c #696753",
"J. c #636851",
"K. c #656951",
"L. c #666A51",
"P. c #656952",
"I. c #666B54",
"U. c #676C55",
"Y. c #666A51",
"T. c #696C51",
"R. c #686D56",
"E. c #6A6D53",
"W. c #6C6F59",
"Q. c #677250",
"!. c #6F7257",
"~. c #6C7254",
"^. c #6D725B",
"/. c #6E7359",
"(. c #6F795B",
"). c #707656",
"_. c #707358",
"`. c #71755B",
"'. c #757A5D",
"]. c #787E5F",
"[. c #737761",
"{. c #767A61",
"}. c #7A7E62",
"|. c #7D7F69",
" X c #7B8163",
".X c #7F826A",
"XX c #808566",
"oX c #81856A",
"OX c #84886F",
"+X c #8F917B",
/* pixels */
"_.`.!.o.3 $ % , , t 3 8 T.I t % @ , @ < I.U.7.[ ( u 1 @ , , 3 z.( c.<.u.h % @ = 2 @ p <.< O O 7 % $ 1 , $ p 3.r.z.M 3 @ O % 5 1 L z.l w D 6 @ 5 $ p 6 p.D c 6 7 3 , O % 3 M E.",
"_.q.I G A I Q G p p 2 2 o.A A M [ @.p c q L.^.r.k k P U @.K 7 M V.p.c D k D T :.B u k I 2 5 u c P U P l y k / :.3 8 B 3.r.( k < 3 Y k 2 p l D U L L 8 O.I P l u c [ :./ w q ( ",
"L.P a M @.L.L.3.G k 3 8 l k ( 3.J.V.u.D i N x.D k P k.z.V.7.k k L L w c K u.L.G.:.B h k < p K P c.I.c./ M k k M i l T r.c.u.( K 6 P x u M [ L.L.c.( p l M N M k [ c.J.z.D p c ",
"@.M k G [ 6.r.] T M p P l k ( @.[ k.8.B r.6 l p P U @.@.2.[ K B 5 l h T P 2.w.:.:.B u k w h I P @.V.r.T P k 8 l c P [ 2.u.7.U K k i 8 N P P 7.:.7.U D i l u M M [ @.@.@.( P c ",
"P k k K K Z P P K B k 8.k x K K P 3.k P P l K B K M B / / D B c k K k K x C T / P N k K K g K K K / P D P c k T i B D K [ ( B M x i u K K B ( K P N U i M k D D D U [ P D M k ",
"[ k i N x i k k x N q [ q N x k c p p l k k ^.u B h u M N h N p B B q x f x x x k x f B P q N x N k u k M x c / u M p 6 p x x P i B V B k k K x k i B q x x N x p k N h k k u ",
"-.x k C N u u u N U q ~ q ~ N x u 3 D l ( q [.< ( D u p u k T x k g 7 P V x u y k Z g i B 1 Z m x q u B B k h p 5 K D p k k p P 5 x g k x g g 1 k k Z 7 1 u k B k w 8 q K U 8 ",
"Z k C 2.~ x x C -.m.k 8.x M.~ Z p K c 3.x.p :.x k.r.K M k P x.N i x x x.2.B x N ~ x.B y B g x./ N 8 M k.7.K p , k 8.@.x l l P U.i y 5 W I.5.B u Z / k.k > y B l.P M B M r.u.u ",
"/ x x   * / C u . < N P x * . i l / 1 X 8 P / B > @ 5 P K $ X i u a W > O 7 P B % $ t u V K $ O l l D   $ p 8 p K @ . B P x @ O B m r i X O i P x . % ~ i 5 x O % l B i X 1 k ",
"g y k   * N u * . < N N N 7   O B N <   O p 8.P 1   @ k l $   u B i B > . + a G . . u i B V O   k q 8   . u p D c % . 8 5 % X $ K B g k .   1 x u . . x P B u   @ k k $   1 l ",
"x.K [ f u 1 > i u B -.[ 2.K q x $ = k u M ( [.P P 8 k > > k u [ G G 8. .y y 1 > k 1 %./ Q x.k u $ $ u y u 2.P K k.c = 7 , 3 5 M x.[ N [ x u 1 . 5 i B 8.[ B P B u 5 % 8 u [ @.",
"x.N c 1 5 % 5 N < i U / K y % l < > 8 % l M G.M u = B 5 $ u % x l B G i @ k t % q X G k 8 P 3 > u 7 6 , O D D c U u @ u k u $ 3 K K k N $ @ w i < > q C B x M , , 5 7 k < u l ",
"^.V.U . @ M D % @ M I.E.c.B $ = x k 5 X P ( ^.c.P   8 c u % . K r.g.%.k X t p u % O o.o.G %.8 @ M k 6 @ . / J.V.:.p O y k y $ w @.r.@.T @ O w c u O 6 2.@.2.U   @ k k = . K x.",
"L.{.V.% @ 8 p X $ U `.V.V.r.8 @ 3 y > $ 7.u.I.V.V.O % w 3 % @ G P Q L.r.3 % , t % , Q %.o.r.l % @ 1 1 % % P 8.[ P k @ 1 5 = O k :.r.O.3.5 % < $ 5 O h k.M D 7., 1 u < % , k.J.",
"o.A.!.Q I G q.$.l q.!.g.g.0.M D c.z.P M [ 3.E.L.I.P 8.8.K P K B G A A.Z.Q Q A.'.M I Q Q $.q.$.M 7.r.( l N c U [ k [ P 3.r.:.k K T r.r.V.c I ^.|.r.M L p.I U P.P P :.3.7.k B P ",
"M ( ( c $.Z.W.P @.0.Z.Z.$.p 8 Z.L.c.r.r.D U L.r.(.u.I.V.k 8 B T P A Z.Q q._.oX_.!.}.A.z.T.!.'.Z.`.^.V.%.z.M P k.P J.( P 7.^.u.V.@.Y L P.P.oX+X.X|.{.`.`.<.c U U M U K k , l B ",
"3 8 u 3 c l c p j j j e ; 2 o j p 6 k k l M p l l u 7 8 7 6 u l u u u p k l l l l l k l M l l G a p 3 @ , a k 3 6 p u 8 u 3 , p 6 6 8 u p p p u w u p u u p u 8 j w 6 6 @ 2 # ",
"B [ I.I.{.C.C.P.H.H.C.d.E d.E d.C.L.r.^.E.<.V.V.V.^.L.P l ( V.L.E.L.z.g.z.L.`.{.V.V.V.Z.z.Z.E.!.`.T.g.%.%.r.V.L.L.E.u.r.^.E.r.z.z.V.c.u.r.u.G.R.^.E.V.z.z.G.V.u.H.d.w.T Y T T ",
"c w.C.I C.U.L o w.#.j j ; j D e D P ( r.@.K U 3.`.3.h = $ 8 ( E.V.r.@.I I @.A.`.L.V.L.V.@.z.^.T.T.%.Q o.( D D ( ^.`.z.r.E.G.( P k l l k p k U r.( P l k M U ( U L D l 2 l 6 6 ",
"K [ P.[.`.[ D O.D h ; e # 6 j # 8 , 3.l k :.k c.r.u @ 3 l M l M %.@.( I P ( Z.!.T.3.V.V.I Q Z.g.}.Z.%.Z.T.r.Q I o.Z.r.@.:.P h k k l l l k l P @.P D c l D ( @.[ j L l w D 6 2 ",
"3 <.U.w.I O.,.w.K w w d.D j L 6 w 3 ( < = T k 3.K p , 8 ( V.P , l A P P G P @.r.!.@.z.E.( U g.z.T.g.o.o.q.q.o.I M @.3.@.3.P k D M M D D D c k p D P P D B B M c 2 L p c j 6 # ",
"M D K p.w.Y I H.,.6 6 d.L j b c z.V.[ k p U z.u.D u 5 p P T M u k A Q @.@.o.@.0.z.( 3.z.( U q.g.3.q.%.G A Q g.Z.M A l D ( c 8 h K K P ( [ U l w D U ( U D M l k 5 E l I l 6 6 ",
"X U p.<.P P.L.L.H.8 8 w.I I Y C.^.E.P G I U Z.3.D k D L.T.U l G p l G I I P U Q r.g.r.@...q.V.Z.%.&.X.S M I g.T.o.D k B ( k 3 k D D D U o.( A k M P I P G G D M l O.l D j 5 c ",
"6 O.O.<.w.[.<.j D X 2 <.w.L.w._.E.U U @.z.A.%.r.M P ( o.( Q I Q D P U U U U ( @.3.E.z.D U z.V.q.g.&.Q W U o.q.z.3.U c P ( h u ( o.Q U U Q U D M Q Q U I U ( Q P ( Y l p p % Y ",
"P 3.@.U q.T.3.A G @.8 $.@.(.q.G @.r.Q q.z.q.Z.Q A G P o.%.U A I r.P D l M Q P U ( 3.z.@.U q.Z.o.q.'.q.A G U 3.q.G U M <.<.k M ( !.o.Q q.q.%.Q l Z.q.I o.T.Z.%.q.o.M P P $ @ b ",
"P ( @.r.Z.0.$.V...r.A V.V.`.V.( Z.V.( 3.g.q.g.Q l G I Q o.Q Q q.z.o.( D D Q P Q @.%.q.3.q.L.L.o.%.`.Z.o.%.%.%.Q U r.D P ( D U @.3.Q o.%.Q I U Q I Q I I q.A.Z.q.q.U ( ( 5 $ j ",
"....$.q.z...( Z.D Q U V.(.(.^.k.A.Z.o.q.Z.g.g.o.G Q I G Q o.o.%.r.%.q.U A D l G z.%.@.@.@.V.E.V.q.T.o.A G U o.P U L.T l T @.@.@.@.o.Q I P A A I G o.%.I Q A.`.g.Z.q.@.%.l 6 j ",
"I ..I E z.Z.@.I M A ( 3.(.(.'.V.%.o...q.Z.Z.z.q.@.@.G M Q %.Q I r.r.Z...M l u l G A G P D U r.g.%.&.M t p A o.I P L.@.l U ( P U I I a l %.g.Q I 3.g.Z.o.G g.`.Z.g.g.( @.U p l ",
"b D F X.E.W.q.Q ( P %.Q ~.~.(.V.o.Q ..X.%.&.&.N.o.&.I M H Q W I V.V.E.3.G l t p 3 3 u l M G I A G H a a M Q g.o.U g.[ k k p u A l l t s S. XT.h.B.Z.T.Z.I Q g.q.g.q.G Q ..l c ",
"G P X.T.'.Z.%.Z.%.Q g.P h.(.'.U.h.o.X.I G I Q B.h.T.A...G A G %.L.z.A.3.U D t 8 l u 8 a D q.z.Q D A a l A %.`.A.%.( U u , 3 6 A I Q W I g.!.T.Z.B.Z.T.T.%.G Q %.h.q.G o.3.D P ",
"R q.Z.T.T.q.%.Z.] %.V.G %.'. X/.B.Q X.I H Q W Z.T.!.Z.o.G M H h.Z.$.%.Q U P t 3 ( I D M P z.E.g.Q H M G G %.`.Z.$.A P u = u M U z.A.A.o.A Q g.&.Z.A.N.%.I M A %.q.] G %.@.A U ",
"P Z.Z.$.w.P.V.q.q.T.'.] Q '.(.~.&.G o...%.q.Q h.Z.%.A M G G ( V.z.Q U P Q ( p 3 k U z.%.P ( %.I Q Q %.z.%.0.Z.I U k U l 6 U r.q.q.q.g.H p H A.A.g.A...k p t l %.P l a Q I l P ",
"; d.i.Y O.,.p.D h.X.V.g.] B.Q.Q.6.Q M %.V.`.g.o.( %.D X.( l Q U A.q.@.r.Z.q.G k l P ..%.z.L.Z.@.A A q.T.^.P.P G p G o.o.Q I I H ..X...H ..&.%.G A H A k P l 5 I p D Y K h h K ",
"0 c n ,.U ;.c [ 3.3.!.h.G Q *.g.] ( q.z.!.E.E.Z.L.o.3.G k l u I z.r.q.z.Z.3.I M l P ( ( ( 3.3.( U L r.U.W.U.3.p.l G I P H I I G o.o.R H ..N.B.N.o.H @.3.:.K h K c K T U C x z ",
"d : h p.Y P.P R.Q @.!.B.H W J V Q @.A.V.{.!.'.^.OXE.E.I p p 8 I I U @.r.r.@.( ( U Q U G I @.@.U @.P $.p.p.r.3.W.X...G l l H ..Q q.o.R R X.s.N.Z.N.G z.`.c.T c c D M c h w 9 - ",
"= o 0 L c p.:.7.@.@.(.!.h.B.Q a P U @.r.E.`.^.L.E.^.( P u % l A M D Q %.@.o.%.z.Z.$.G M U %.@.P <.P O.@.Y U I L.A.q.G t t A ..X.q.R F I %.q.&.&.N.H r.`.L.P w h L P P c 0 = - ",
"& & 9 0 k k ;.h Y P z.h.%.6.G u l I A g.@.'.T.!.Q 3.D G l u U ( I Q @.q.3.%.g.L.Z.3.U D G U ( I @.I @.Y L D P Z.T.Z...l a A Q o.&.F l D o.q.g.&.g.X.3.z.U.D = k B G U T c 9 - ",
": - - - k & P x T c [ ( c B G P p @.U E.U '.E..X@.G @.G D @.P r.Q U o.q.z.z.V.E.@.r.r.( D M I q.I P Y D l D G r.T.T.g...Q X.%.X.Z...b c I q.N.g.g.g.%.3.L.K < L ( D D K K h 9 ",
"9 - = O 5 $ h U c.K O.3.U [ u.E.l 3.@.L.U E.V.^.U l G l M @.D ( ( I U 3.V.V.g.q.I $.r.@.P A I q.D D P w 5 l G @.A.A.q.o.%.N.g.%.s.q...H R q.N.q.Z.q.q.0.7.P p U A.3.( [ [ K v ",
"v c x $ = f h p.7.u l T [ r.z.E.M Q I o.U r.( P l M 8 l U ( L.3.z.3.@.r.A.z.U M P P P I I P P P P I L 3 = l G ..Z.0.P A I q.g.$.L $.0.$.&.Z.A.g.Z.Q g.g.U K D U o.@.g.V.r.U K ",
"c [ U u K T 5 < B K @.[ K O.z.[ k k l P P A M M l l k l P D I g.U ( z.3.A.( 3.V.L.z.D k U o.Q %.I , 5 = = c U r.G I D l A Q %.q.d.E I I R N.A.N.N.X.g._.Z.P L U &.&.o.( [ O.U ",
"x U K u K @.k j j P :.P M Y <.I 3 3 8 a l M D I G D A I ( P D U E.z.r.( z.U @.z.Z.L.( p l @.%.I L = 3 8 6 D 0.z.l l G ..o.o.o.%.D c L I $.q.A.q.q.&.Z.A.( M U r.A.A.A.A.3.U P ",
"P 2.:.D :.z.K D D 3.@.D D U D j 8 u l G Q @.q.Z.g.3.@.r.z.%.Q Q P ( z.z.z.D ( L.q.g.3.D l U @.P l $ % l j D Z.0.t 4 A g.q.X.o.I j e L D ,.o.Z.q.g.g.A.N.U G ( 3.S.h.h.Z.( h u ",
"Q 6.z.3.V.L.U D @.r.U M I D w 5 M U q.V.L.L.E.E.V.3.@.q.q.3.3.@.3 l @.z.r.D P A.3.U 3.z.U D U Q k % = I D L T...t 2 M q.%.q.g.I L e l 8 L c q.%.g.g.N.q.( ( Q M ~.N.g.g.%.G l ",
"B G %.%.g.A.o.Q o.%.I D F p 3 p M U 3.z.V.A.A.V.L.r.Z.A.z.z.V.g.P G M G U G M ( 3.U r.L.o.G ( @.l 8 w <.( I L.U 8 8 D %.q._.`.o.Y w 8 @ e 4 I I X.&.g.%.I I I s B.A.N.g.q.3.( ",
"Q G ] Q &.Z.&.q.&.g.g.%.A 8 8 F k M G U @.z.V.A.V.z._.'.V.Z.L.g.3.r.I U G P l G r.z.A.g.( U @.( l k c O...O.r.P 2 t H X.q.`.'.%.Y w 6 % 8 4 G H ..g.A.%.M A @.%.=.D.).N...I P ",
"A.%.h.g.=.B.g.h.N.N.Z.X.A A I R c M D P %.V.E.L.%.%.E.!.( U r.@.D V.L.L.@.3.P U V.E.T.z.q.U D D j c I L Y w.I U 2 k I ..%.N.Z.q.Y j p 6 6 8 G X.&.N.S.&.M A q.A.A.~.'.~.g.Q U ",
"Q.f.A.S.B.S.Z.N.%.Q I A A N.E...A D P Q r.L.L.g.z.g.'.^.U U A.V.P L.V.E.V.(.3.Q W.E.L.(.^.G 8 l p L <.D ..V.I $.p P o.o.Q I X.Z.Y c j u = 3 A q.g.g.h.%.A G %.q.g.%.&.A.A.%.o.",
"J B.S.Q.g.I Z. XI M k %.Q g.Z.!.g.o.%.}.!.X.L.A.g.S.Z.Q ( W '.S.A %.~.(.!.V.6.Q V.g.(.8.I.B D i M U A @.@.M I M @.`.'.o.M P Q M D O.P D Y k 8 A P r.V.o.G U @.@.q.Q Q &.q.Q Q ",
"] q.q.q.o.Q A.!.8 t A L.!.!.A.L.].g...T.T.N.'.!.Q.!.g.G G o.!...W g.~.~.~.~.U.k.P h.J./ K P P k @.U ( ( Q U P ( L.E.z.U D Q ( P l U ( [ [ l 6 w B U ( U @.z.r.U P I o.Z.A.g.q.",
"q.%.Q o.U 3.E.3.p k o.Z.`.T.E.T.}.`.A.B...H N.A.`.].g.I M &.A.Q o.S.!.Q.Q.`.(.Z.B Q P g.M M p K q.U r.Q I @.D @._.V.3.( U P U Q l P ( T K k u 7 l T 3.( U U P M I Q o.%.3.g.V.",
"q.o.o.6.@.A.`.G M G %.o.T.Z.!.^.).].].A.I M I o.&.N.Q A 3 M Q Q o.S.`.Q.Q.`.T.q.I I G U.P M t P I U r.@.U Q D ( E.L.Z.3.P M G ( P P P l u k B c u D ( ( U @.3.3.q.q.3.Q U 3.A.",
"%.o.o.q.3.T.{.I 8 M o.I L.V.T.T.`.'.`.A.Z.Z.3.o.q.Q A G 8 l A &.&.S.).D.D.).Q.g.X.g.q.%.Q Q P D M @.@.3.Q D @.3.!.`.E.@.D G U I U I L k 8 k U U ( U L P 3.V.c.@.r.Z.Z.%.o.3.r.",
"Q o.Q %.%.A.`.o.3 M D l %.Z.V.L.`.'.'.A.T.!.g.Z.`.Q P ( G U I g.A.Q.~.S.S.!.`.Q.B.&.%.P %.Q %.] I q.I U D M V.A.'.{.L.U D @.0.U D P U D M D P U c.r.( P ( $.[ P 3.q.o.I G Q o.",
"Q %.Q @.q.g.Z.I a ( l t A g.z.E.L.!.`.z.g.g.Q g.L.G U G G G G o.D.S.S.S.S.D.S.Q.A.Q Q X.Z.o.q.g.%.@.M p k P z.L.V.E.Z.( U 3.q.( M U I P ( I P 3.U U Q U Q @.$.@.o.I A M A P U ",
"Q r.o.q.Z.3.Q l a %.l p A T.Z.!.A.r.q.Q V.L.A I q.G g.G G A I %.A.B.A.D.D.B.g.g.%.A.S.h.V.`.E.3.3.M l 2 8 ( ( g.D r.T.g.( Q ..o.D Q A A o.U ( ^.r.@.U ( z.V.@.A D A D Q @.o.G ",
"G M M U g.T.!.'.a A %.o.'.o.M g.E.E.L.A z.!.3.a P ( Q U U D P q.A.A.N.S.Q.N.Q a a T.'.!.E.E.!.r.V.U 8 , l g.V.3.( U M ( D P D 3.M I 3.q.G l P Z.%.P I r.A.g.o.U I A q.A.o.A.( ",
"D D Q r.A.T.^.'.G G @.o.`.g.D Q g.Z.q.P @.L.D 8 P Q Q Q ( P P %.%.N.A.A.B.%.M , a r.Z.Z.L.A.L.r.I M u p U L.^.T.3.Q l U D o.( r.g.%.o.%.%.o.I G o.G I 3.q.%.o.Q A I A.!.o.V.q.",
"G Q g.L.T.A.T.`.r.o.g.%.Z.z.o.I D U M P P c.k u P Y U U ( P P ( o.N.T.A.g.%.l 2 A w.Z.W.`.C.p.<.l a l I r.A.E.E.z.( l D G 3.%.3.q.q.q.q.r.q.o.G o.A I %.Q Q q.o.D ( A.!.%.L.Z.",
"Q %.z.V.Z.g.Z.A.q.@.Z.o.I q.Z.g.p u 8 p D 3.M K U @.( U ( P P U q.&.Z.g.q.&.G c A <.<.C.w.c M P l k A 3.A.V.z.V.Z.r.U G I q.3.@.U q.z.q.q.g.q.Q I M I %.U @.Z.%.Q @.%.g.%.T.g.",
"o.%.%.%.%.q.g.Z.Q G %.Q M Z.T.g.k 6 8 3 B U U 3.<.r.@.Y ( U P ( r.G Y ..@.Q k M D :.Y Y c 7 c O.M p c q.E.T.V.V.z.L.V.( U %.r.( o.g.g.&.g.A.g.I A M I %.%.g.N.X...g.Q %.Q r.o.",
"o...I I ( r.Z.Z.q.I ( @.( !.%.l P h k 3 B B P @.( r.:.U U P D P ( k P I U L 3 8 p Y ;.Y K k K ;.u 2 6 P V.E.L.A.@.T.!.P M P 3.Q P q.S.A.B.S.A.g.M W X.&.N.Z.&.Q Q T.%.@.G I P ",
"Q Q I G Q 3.g.r.g.o.( q.%.T.M , I D D k D P M P K :.3.( U L D L l p I c c L 2 5 = b c c n n K k 5 $ % p o.z.g.3.Q L.E.k p M z.3.A q.`.'.).Q.T.S.G A.S.Z.Q.Z.W I ( `.%.( D G G ",
"P Q ( I U o.$.o.P G P o.I g.k 6 M P P I D @.k B D 3.z.3.@.T P I 2 8 I w w I w 6 c Y h 5 h L Y c w < = 8 P @...G o.T.W.p u D W.T.q.g.S.].oX XA.Q .. X}.T.`.Z.G I %.`.P P I ( U ",
"<.$.w.M P D O.P L G E D L P 6 8 c k ( P D U l U @.z.0.g.U o.D D $.G I G L L p w L I w p.E b E U 5 % w @ I @.0.Q E.'.H a o.I E.}.Z.S.~.T.XX Xo.G Z.].'.`.'.M G G ( o.P k 3.G D ",
"p.w.w.j D L Z.Z.p.0.,.I #.I 8 p I @.@.3.@.Q ( U 3.g.r.g.3.q.( U ( I 0.I p 3 2 j L ,.j D p K w.I 6 6 b e E I ..&.S.S.%.t I I o.Z.A.T.`.`.].S.A A N.}.'.Z.Z.o.S 2 M U M M U @.[ ",
"@.w.p.I I Y V.T.P.p.@.Y C.O.p L @.Z.o.Z.Z.%.Z.o.q.q.Z.g.A.Z.z.@.q.Q 3...k 2 $ p L <.Y M u Y 7.P 0 w c c ..X.o.A.S.S.A.4 k A c g.g.Z.!.T.Z.Q a G ~.~.).A.G G M G @.3.T :.M ( P ",
"Y @.3.O.O.3.Z.C.V.r.I ..U.@.l ( Q 3.( g.A.V.E.g.q.q.A.g.!.A.E.z.Z.%.q.@.G p % 2 c D @.( L O.P l Y D D L O.&.I q.N.&.Q 4 A l p G r.N.T.%.A a a W A.%.A.B.s G G g.Q D ( V.P U @.",
"@.( L L I w.C.P.r.@.M O.L.( c ( %.Q g.&.Z.`.A.A.&.g.Q.h.~.A.!.T.g.Z.T.o.A c 8 3 l c O.U L P l 6 K c L Y w.g.o.Z.&.Q 8 t q.c u 8 T.A.L.I u k G q.( I q.%.A L.Q M ( p [ L.3.M ( ",
"I L l L I p.w.p.L l p I w.P I I V.q.Q.g.A.}.A.S.g.Z.S.N.A.B.~.~.T.Z.q.A A ..c 8 I ..<.M l c D 7 6 j O.Y <.o.$.E.g.A.A l %.p P $.T.q.q.I M o.Z.`.r.I I o.Q 3.I G V.M z.L.7.w k ",
"M M k P D @.I U D k u U U D @.U B.A.S.A.S.'.).S.A.S.B.B.g.S.S.S.).g.o.M I g.P u ..3.3.U D 8 P l K P c.M P M I g.A. XQ.S I M r. XA.M G 3.g.T._.}.!.U a I q.l G z.( A @.V.%.D P ",
"U P u h 7 c M U z.U D 3.P M 3.D %.S.g.S.~.!.XX~.Q.~.g.B.&.~.A.A.Z.g.Z.%.Q ( D G U P T G.r.% B P [ P :.6 U Q T.].N.!.`.M %.Z.@.z.T.t l A.`.!.Z.T.Z.I 3 u V.Q @.G M U ( z.( z.3.",
"P D k 8 5 u D :.3.7.[ K M P U P N.A.~.~.).'.'.).Q.S.A.g.h.N.N.N.W g.g.&.%.Q G I I ( 3.z.z.P M ( h T D U 3.6.~.T...~.!.X.P %.r.U D u l P L.z.^.}.L.P l 3.A I P Q Q Z.`.^.q.P A ",
"u l D l u 7 u k K P D l c U @.@.B.A.S.S.~.).).D.A.S.S.N.&.&.&.g.H %.&.X.%.o.U Q A.V.r.@.7.@.U ( 5 U I [ r.g.A.%.A.!.S.o.Q q.%.M M l M ( E.A.L.^.E.r.@.E.3.r.r.g.E.A.g.3.q.g.V.",
"[ [ ( U P P ( @.@.2.( K K @.z.h.g.N.A.S.~.~.A.g.g.A.S.Z.%.Q Q X.! h.A.A.~.S.g.g.Z.T.V.g.V.g.G p k T P / 2.%.g.h.B.A.h.Q P Q P N k k 5 8 M ( [ L.V.u.r.c.T @.@.%.Z.%.Q ( q.Z.A.",
"z.T k h M U ( T r.u.:.K B T 3.r.%.q.A.!.`.!.Z.%.&.g.B.Z.%.W W ..W g.B.A.!.S.&.Q 6.V.E.~.~.r.M y ( P B [ 2.P ] S.).].}.T.%.Q [ g.M K 3 3 u [ :.`.I.E.G.r.U T @.3.A I @.q.g.g.g.",
"L.r./ U @.3.@.U @.3.[ D M U 2.8.Q o.q.A.T.A.r.o.o.o.@.3.@.Q I Q X.B.B.A.~.D.h.q.6.g.g.h.r.G l P D K P ( @.P B o.!.'.].Q.X.H ( g.p D h M K u.@.z.z.L.G.@.T U ( ( M H o.%.X.&.B.",
"D D D M N M D P P / U M l D T ( A A G I U P G G G M M G P A M A m S S M H H S H A G P Q G t u P x P T l N P M M H H H S M a M D 8 u h M M U P D B P U M P l l l G S S G G I Q ",
"P B N x N B P / N K K N k N B D U U ( @.U D D P I A l D D M l M M Q ! Q X.! W W m G P Q W m i N K P / N B G a H G W Q H B M B K D u l M l D 7.[ K K D k ( M M D U I I I I H H ",
"U.8./ / 8.k.[ B P 2.8.2.[ 8.k.x.E.^.{.}.^.z.3.0.z.@.U ( U D G I W h.~.!.!.B. .Q f.B.g.6.h.g. ./ / x / m.J.G 7 Q A.]. XQ.Q B P / ( 8 D K B K I.r.3.T M u ( M K ( z.Z.V.g.q.g.!.",
"5.2.B K P W [ K P / [ / / [ 8.8.V.6.Z.V.%.X.6.Q G G G Q Q Q G S %.&.h.g.g.h.f.G %.x. .h.h.A.P G [ 2.2.K [ J.k.h.g.g.g.6.] W / [ K N p B P B P / T B D / ( K K / 3.%.] X.Q ] E.",
"7 x k i 5 > y i 5 y y q 5 y u u 6 7 p p 7 3 7 3 p u u u t t t u 7 t i u t 3 7 u i a 3 1 7 u 7 r q q u 5 y y 1 i u k k 5 1 r i y y q y k k u y i k k i y y i i i t 6 u k p p u ",
"k / [ [ N y B W k.P k x 2.x.[ k l P Q Q I G A Q h.P p a Q 6.W k r V  .j.f.M i P ] ] G a V P ] 6.i x 2.k.k.P y x K [ / N N [ 8./ k k / K B K i x / 2./ B N P / P B u P U U ( h ",
"/  ./ [ / K / / P / / P K K P / B ] Q I Q G A ] I Q Q G B S I ] B / G M G M M h.G W Q m Q G  . ./ K P B B B N 8.V / P N B [ 2.P / V x.[ / 8.N / / [ [ K V W / P 2.k @.( [ z.B ",
"K B k B B m B N / B x N P / P B B Q P B P G M ( ( P M B Q 3.( M r W W P 6./ m B x V Q k Q V P B x B / P / / N B K K B Z K P K B P k P N B [ k K K P P P P K K P U 8 K M N U k ",
"2.k.2.k.2.P 8.k.K [ j.5.P B / x.I @.%.] ] ] ] r.M ] r.@.P P ] 3.Q j./ B Q %. .5.] 5. .V  .5.%./ 2.2.2.K P  .P 2.8.[ / [ -.[ / / 8.K [ [ 2.j.W 8./ P / [ / P / 2.r.K k.z.7.7.U ",
"5 i k N r $ y N B y < q x N a q 7 u B M t 7 p k B k 7 6 k P M t > t M B m u 7 3 B V t 1 t V m a > 7 N B B i % 1 B x u 7 y k x k y 1 q N N y 5 y x m k y q i N B 6 > u M k q < "
};
